<svg id="Layer_1" data-name="Layer 1" xmlns="http://www.w3.org/2000/svg" viewBox="0 0 198.1 41.1"><defs><style>.cls-1{fill:#c9a34b;}.cls-2{fill:#fff;}</style></defs><path class="cls-1" d="M96.2,125.7a2.1,2.1,0,0,0,1-.6,2.1,2.1,0,0,0,.3-1.2,1.7,1.7,0,0,0-.3-1c-.1-.3-.4-.5-.8-.7a3.2,3.2,0,0,0-1.4-.3H92v7.9h3.1a2.9,2.9,0,0,0,1.4-.3,2.4,2.4,0,0,0,.9-.8,2,2,0,0,0,.3-1.1,1.9,1.9,0,0,0-.4-1.2A1.9,1.9,0,0,0,96.2,125.7Zm-2.9-2.8h1.6a1.7,1.7,0,0,1,1,.3,1.2,1.2,0,0,1,.3.9,1.1,1.1,0,0,1-.3.8,1.7,1.7,0,0,1-1,.3H93.3Zm2.8,5.5a1.8,1.8,0,0,1-1.1.3H93.3v-2.5H95a1.5,1.5,0,0,1,1,.4,1,1,0,0,1,.4.9A1.2,1.2,0,0,1,96.1,128.4Z" transform="translate(-25.2 -101.4)"/><path class="cls-1" d="M103.8,126.9a1.7,1.7,0,0,1-1.8,1.8,1.9,1.9,0,0,1-1.3-.5,1.7,1.7,0,0,1-.5-1.3v-5H99v5a2.7,2.7,0,0,0,.4,1.6,1.8,1.8,0,0,0,1.1,1,3.3,3.3,0,0,0,1.5.3,4.1,4.1,0,0,0,1.6-.3,2.6,2.6,0,0,0,1.1-1,2.7,2.7,0,0,0,.4-1.6v-5h-1.3Z" transform="translate(-25.2 -101.4)"/><path class="cls-1" d="M110.6,125.7l-1.2-.5-1-.2-.5-.4a.7.7,0,0,1-.2-.6,1.2,1.2,0,0,1,.3-.9c.2-.2.5-.2.9-.2a1.5,1.5,0,0,1,1,.3,1,1,0,0,1,.4.7h1.4a1.9,1.9,0,0,0-.8-1.5,2.9,2.9,0,0,0-1.9-.6,3.2,3.2,0,0,0-1.4.3,1.8,1.8,0,0,0-.9.8,2.1,2.1,0,0,0-.4,1.1,2.1,2.1,0,0,0,.4,1.2,2.7,2.7,0,0,0,.8.7l1.3.4.9.3.6.4a.8.8,0,0,1,.2.6,1.2,1.2,0,0,1-.4.9,1.8,1.8,0,0,1-2,0,1.8,1.8,0,0,1-.4-.9h-1.4a1.9,1.9,0,0,0,.4,1.2,2.7,2.7,0,0,0,1,.8l1.4.2a3.7,3.7,0,0,0,1.5-.3,2.4,2.4,0,0,0,.9-.8,2.7,2.7,0,0,0,.3-1.2,2.1,2.1,0,0,0-.3-1.2A1.8,1.8,0,0,0,110.6,125.7Z" transform="translate(-25.2 -101.4)"/><rect class="cls-1" x="87.9" y="20.5" width="1.3" height="7.85"/><polygon class="cls-1" points="95.6 26.4 91.7 20.5 90.4 20.5 90.4 28.4 91.7 28.4 91.7 22.5 95.6 28.4 96.9 28.4 96.9 20.5 95.6 20.5 95.6 26.4"/><polygon class="cls-1" points="98.1 28.4 102.4 28.4 102.4 27.4 99.4 27.4 99.4 24.9 102.1 24.9 102.1 23.9 99.4 23.9 99.4 21.5 102.4 21.5 102.4 20.5 98.1 20.5 98.1 28.4"/><path class="cls-1" d="M133.1,125.7l-1.2-.5-1-.2-.5-.4a.7.7,0,0,1-.2-.6,1.2,1.2,0,0,1,.3-.9c.2-.2.5-.2.9-.2a1.5,1.5,0,0,1,1,.3,1,1,0,0,1,.4.7h1.4a1.9,1.9,0,0,0-.8-1.5,2.9,2.9,0,0,0-1.9-.6,3.2,3.2,0,0,0-1.4.3,1.8,1.8,0,0,0-.9.8,2.1,2.1,0,0,0-.4,1.1,2.1,2.1,0,0,0,.4,1.2,2.7,2.7,0,0,0,.8.7l1.3.4.9.3.6.4a.8.8,0,0,1,.2.6,1.2,1.2,0,0,1-.4.9,1.8,1.8,0,0,1-2,0,1.8,1.8,0,0,1-.4-.9h-1.4a1.9,1.9,0,0,0,.4,1.2,2.7,2.7,0,0,0,1,.8l1.4.2a3.7,3.7,0,0,0,1.5-.3,2.4,2.4,0,0,0,.9-.8,2.7,2.7,0,0,0,.3-1.2,2.1,2.1,0,0,0-.3-1.2A1.8,1.8,0,0,0,133.1,125.7Z" transform="translate(-25.2 -101.4)"/><path class="cls-1" d="M140.7,126.3a1.6,1.6,0,0,0-.8-.6l-1.3-.5-.9-.2-.6-.4a1.4,1.4,0,0,1-.2-.6,1.2,1.2,0,0,1,.3-.9,1.9,1.9,0,0,1,1.9.1.8.8,0,0,1,.4.7h1.4a1.9,1.9,0,0,0-.8-1.5,2.6,2.6,0,0,0-1.8-.6,2.9,2.9,0,0,0-1.4.3,2,2,0,0,0-1.3,1.9,2.1,2.1,0,0,0,.3,1.2,2.7,2.7,0,0,0,.8.7l1.3.4.9.3a.9.9,0,0,1,.6.4c.2.1.2.3.2.6a1.6,1.6,0,0,1-.3.9,1.8,1.8,0,0,1-1.1.3,1.7,1.7,0,0,1-1-.3,3.6,3.6,0,0,1-.4-.9h-1.4a2.8,2.8,0,0,0,.4,1.2,3.9,3.9,0,0,0,1,.8l1.4.2a3.3,3.3,0,0,0,1.5-.3,2.4,2.4,0,0,0,.9-.8,2.7,2.7,0,0,0,.3-1.2A2.1,2.1,0,0,0,140.7,126.3Z" transform="translate(-25.2 -101.4)"/><path class="cls-1" d="M95.6,138h2.9a2.3,2.3,0,0,1-.8,1.6,2.4,2.4,0,0,1-1.7.6,3.2,3.2,0,0,1-1.4-.3,3.1,3.1,0,0,1-1.3-2.5,2.4,2.4,0,0,1,.4-1.5,1.8,1.8,0,0,1,.9-1,2.3,2.3,0,0,1,1.4-.4,2.8,2.8,0,0,1,1.3.3,2.4,2.4,0,0,1,.8.9h1.6a3.5,3.5,0,0,0-1.5-1.7,3.8,3.8,0,0,0-2.2-.6,3.5,3.5,0,0,0-2,.5,4,4,0,0,0-1.5,1.4,4.6,4.6,0,0,0-.5,2.1,4.6,4.6,0,0,0,.5,2,5.4,5.4,0,0,0,1.5,1.5,4.6,4.6,0,0,0,2,.5,4.1,4.1,0,0,0,1.9-.5,5.3,5.3,0,0,0,1.4-1.2,4.9,4.9,0,0,0,.6-1.7v-1H95.6Z" transform="translate(-25.2 -101.4)"/><path class="cls-1" d="M106.2,137.3a2.5,2.5,0,0,0,.4-1.4,2.1,2.1,0,0,0-.3-1.2,2.6,2.6,0,0,0-.9-.9,3.5,3.5,0,0,0-1.6-.3h-2.7v7.9h1.3v-3.2h1l1.8,3.2h1.6l-2-3.3A2.2,2.2,0,0,0,106.2,137.3Zm-3.8-.1v-2.7h1.4a1.2,1.2,0,0,1,1.1.4,1.2,1.2,0,0,1,.4,1,1.3,1.3,0,0,1-.4,1,1.6,1.6,0,0,1-1.1.3Z" transform="translate(-25.2 -101.4)"/><path class="cls-1" d="M114,133.9a3.6,3.6,0,0,0-4,0,4,4,0,0,0-1.5,1.4,4.6,4.6,0,0,0-.5,2.1,4.6,4.6,0,0,0,.5,2,5.4,5.4,0,0,0,1.5,1.5,4.3,4.3,0,0,0,4,0,5.4,5.4,0,0,0,1.5-1.5,4.6,4.6,0,0,0,.5-2,4.6,4.6,0,0,0-.5-2.1A4,4,0,0,0,114,133.9Zm.3,4.9a2.4,2.4,0,0,1-.9,1.1,3.4,3.4,0,0,1-2.8,0,2.4,2.4,0,0,1-.9-1.1,2.3,2.3,0,0,1-.4-1.4,2.4,2.4,0,0,1,.4-1.5,1.8,1.8,0,0,1,.9-1,2.6,2.6,0,0,1,2.8,0,1.8,1.8,0,0,1,.9,1,2.4,2.4,0,0,1,.4,1.5A2.3,2.3,0,0,1,114.3,138.8Z" transform="translate(-25.2 -101.4)"/><path class="cls-1" d="M122.1,138.4a2,2,0,0,1-.5,1.4,2.3,2.3,0,0,1-2.6,0,2,2,0,0,1-.5-1.4v-5h-1.3v5a4.3,4.3,0,0,0,.4,1.7,3.1,3.1,0,0,0,1.1.9,2.9,2.9,0,0,0,1.6.4,2.4,2.4,0,0,0,1.5-.4,2.7,2.7,0,0,0,1.2-.9,4.3,4.3,0,0,0,.4-1.7v-5h-1.3Z" transform="translate(-25.2 -101.4)"/><path class="cls-1" d="M129.8,134.7a1.8,1.8,0,0,0-1-.9,3.3,3.3,0,0,0-1.5-.3h-2.7v7.9h1.3v-3.2h1.4a3.5,3.5,0,0,0,1.6-.3l.9-.9a2.3,2.3,0,0,0,.3-1.1A2.1,2.1,0,0,0,129.8,134.7Zm-1.4,2.1a1.2,1.2,0,0,1-1.1.4h-1.4v-2.7h1.4a1.2,1.2,0,0,1,1.1.4,1.1,1.1,0,0,1,.4,1A1,1,0,0,1,128.4,136.8Z" transform="translate(-25.2 -101.4)"/><polygon class="cls-2" points="67.1 1.3 66.8 1.3 66.8 4.5 72.7 4.5 66.8 12.9 66.8 12.9 66.8 15.6 77.2 15.6 77.5 15.6 77.5 12.3 71.6 12.3 77.5 3.9 77.5 1.3 67.1 1.3"/><path class="cls-2" d="M118.3,109h-8.1V112h3.6a3.2,3.2,0,0,1-2.9,1.6,3.9,3.9,0,0,1-3.8-4,3.8,3.8,0,0,1,3.8-3.9,3.5,3.5,0,0,1,2.7,1.3l.2.2,2.7-2.3-.3-.2a7,7,0,0,0-5.3-2.4,7.5,7.5,0,0,0-7.4,7.3,7.4,7.4,0,0,0,7.4,7.4H112a7,7,0,0,0,3.9-1.8,7.2,7.2,0,0,0,2.4-5.5Z" transform="translate(-25.2 -101.4)"/><polygon class="cls-1" points="53.1 0.9 48.8 0.9 46.7 0.9 43.4 15.3 43.3 15.6 37.7 40 39.7 40 44 40 46.1 40 51.8 15.6 51.8 15.3 55.2 0.9 53.1 0.9"/><polygon class="cls-1" points="49.3 40 52.6 25.7 58 40 49.3 40"/><polygon class="cls-2" points="8.7 0.9 5.4 15.2 0 0.9 8.7 0.9"/><polygon class="cls-2" points="18.2 0.9 13.9 0.9 11.8 0.9 6.2 25.3 6.1 25.6 2.8 40 4.9 40 9.2 40 11.3 40 14.6 25.6 14.7 25.3 20.3 0.9 18.2 0.9"/><polygon class="cls-2" points="29.8 0.9 25.5 0.9 23.5 0.9 17.8 25.3 17.7 25.6 14.4 40 16.5 40 20.8 40 22.9 40 26.2 25.6 26.3 25.3 31.9 0.9 29.8 0.9"/><polygon class="cls-1" points="41.5 0.9 37.2 0.9 35.1 0.9 29.4 25.3 29.4 25.6 26 40 28.1 40 32.4 40 34.5 40 37.8 25.6 37.9 25.3 43.5 0.9 41.5 0.9"/><rect class="cls-2" x="123.7" width="0.3" height="40.9"/><path class="cls-2" d="M173.6,106.1,170.5,118H167l-1.9-7.8-2,7.8h-3.5l-3-11.9h3.1l1.7,8.7,2.1-8.7h3.2l2,8.7,1.8-8.7Z" transform="translate(-25.2 -101.4)"/><path class="cls-2" d="M175,110.7a5,5,0,0,1,1.5-1.7,3.7,3.7,0,0,1,2.1-.6,4.8,4.8,0,0,1,1.8.4,2.9,2.9,0,0,1,1.1,1.1v-1.3h2.9V118h-2.9v-1.3a2.9,2.9,0,0,1-1.1,1.1,4.8,4.8,0,0,1-1.8.4,3.7,3.7,0,0,1-2.1-.6,5,5,0,0,1-1.5-1.7,7,7,0,0,1,0-5.2Zm5.9.9a2,2,0,0,0-1.4-.6,2,2,0,0,0-1.5.6,2.7,2.7,0,0,0,0,3.4,2,2,0,0,0,1.5.6,2,2,0,0,0,1.4-.6,2.7,2.7,0,0,0,0-3.4Z" transform="translate(-25.2 -101.4)"/><path class="cls-2" d="M190.7,109a2.6,2.6,0,0,1,1.7-.5v3h-.8a2.3,2.3,0,0,0-1.6.5,2,2,0,0,0-.6,1.6V118h-2.9v-9.4h2.9v1.7A4,4,0,0,1,190.7,109Z" transform="translate(-25.2 -101.4)"/><path class="cls-2" d="M199.6,118l-2.9-3.9V118h-2.9V105.5h2.9v6.9l2.8-3.8h3.6l-3.9,4.7,4,4.7Z" transform="translate(-25.2 -101.4)"/><path class="cls-2" d="M204.2,110.7a5,5,0,0,1,1.5-1.7,4.3,4.3,0,0,1,2.2-.6,4.7,4.7,0,0,1,1.7.4,4.3,4.3,0,0,1,1.2,1.1v-1.3h2.9V118h-2.9v-1.3a4.3,4.3,0,0,1-1.2,1.1,4.8,4.8,0,0,1-1.8.4,4.2,4.2,0,0,1-2.1-.6,5,5,0,0,1-1.5-1.7,7,7,0,0,1,0-5.2Zm6,.9a2.2,2.2,0,0,0-3,0,2.7,2.7,0,0,0,0,3.4,2.2,2.2,0,0,0,3,0,2.7,2.7,0,0,0,0-3.4Z" transform="translate(-25.2 -101.4)"/><path class="cls-2" d="M165.8,125.9v2.3h-3.2v9.6h-2.9v-9.6h-3.1v-2.3Z" transform="translate(-25.2 -101.4)"/><path class="cls-2" d="M171.4,128.7a3.4,3.4,0,0,1,1.7-.5v3.1h-.8a2.3,2.3,0,0,0-1.6.5,1.8,1.8,0,0,0-.6,1.6v4.4h-2.9v-9.5h2.9V130Z" transform="translate(-25.2 -101.4)"/><path class="cls-2" d="M174.4,130.5a5,5,0,0,1,1.5-1.7,4.3,4.3,0,0,1,2.2-.6,3.3,3.3,0,0,1,1.7.4,3.2,3.2,0,0,1,1.2,1.1v-1.4h2.9v9.5H181v-1.3a2.9,2.9,0,0,1-1.2,1,3.4,3.4,0,0,1-1.8.4,4,4,0,0,1-3.6-2.3,6.6,6.6,0,0,1-.5-2.5A6.7,6.7,0,0,1,174.4,130.5Zm6,.9a2,2,0,0,0-3,0,2.2,2.2,0,0,0-.6,1.7,2.4,2.4,0,0,0,.6,1.7,2.2,2.2,0,0,0,3,0,2.7,2.7,0,0,0,0-3.4Z" transform="translate(-25.2 -101.4)"/><path class="cls-2" d="M185.9,130.5a5,5,0,0,1,1.5-1.7,4.3,4.3,0,0,1,2.2-.6,3.3,3.3,0,0,1,1.7.4,3.2,3.2,0,0,1,1.2,1.1v-4.4h2.9v12.5h-2.9v-1.4a2.5,2.5,0,0,1-1.2,1.1,3.3,3.3,0,0,1-1.7.4,4.3,4.3,0,0,1-2.2-.6,4.2,4.2,0,0,1-1.5-1.7,6.6,6.6,0,0,1-.5-2.5A6.7,6.7,0,0,1,185.9,130.5Zm6,.9a2,2,0,0,0-3,0,2.2,2.2,0,0,0-.6,1.7,2.4,2.4,0,0,0,.6,1.7,2.2,2.2,0,0,0,3,0,2.7,2.7,0,0,0,0-3.4Z" transform="translate(-25.2 -101.4)"/><path class="cls-2" d="M197.7,126.9a1.5,1.5,0,0,1,0-2.2,1.7,1.7,0,0,1,1.2-.5,2.1,2.1,0,0,1,1.3.5,1.5,1.5,0,0,1,0,2.2,2.1,2.1,0,0,1-1.3.5A1.7,1.7,0,0,1,197.7,126.9Zm2.7,1.4v9.5h-2.9v-9.5Z" transform="translate(-25.2 -101.4)"/><path class="cls-2" d="M210.9,129.3a4,4,0,0,1,1,3v5.5H209v-5.1a2.1,2.1,0,0,0-.5-1.5,1.5,1.5,0,0,0-1.3-.5,1.4,1.4,0,0,0-1.3.5,1.7,1.7,0,0,0-.5,1.5v5.1h-2.9v-9.5h2.9v1.3a4,4,0,0,1,1.2-1,4.2,4.2,0,0,1,1.6-.4A3.5,3.5,0,0,1,210.9,129.3Z" transform="translate(-25.2 -101.4)"/><path class="cls-2" d="M219.3,128.6a2.9,2.9,0,0,1,1.1,1.1v-1.4h2.9v9.5a6.4,6.4,0,0,1-.5,2.4,4.1,4.1,0,0,1-1.6,1.6,4.4,4.4,0,0,1-2.6.7,5.7,5.7,0,0,1-3.4-1,3.7,3.7,0,0,1-1.5-2.7h2.8a1.8,1.8,0,0,0,.7.8,1.6,1.6,0,0,0,1.2.4,2,2,0,0,0,1.5-.6,2.3,2.3,0,0,0,.5-1.6v-1.4a3.2,3.2,0,0,1-1.2,1.1,3.1,3.1,0,0,1-1.7.4,3.7,3.7,0,0,1-2.1-.6,3.1,3.1,0,0,1-1.5-1.7,5.1,5.1,0,0,1-.6-2.5,5.3,5.3,0,0,1,.6-2.6,3.5,3.5,0,0,1,1.5-1.7,4.1,4.1,0,0,1,3.9-.2Zm.5,2.8a1.8,1.8,0,0,0-1.5-.7,1.7,1.7,0,0,0-1.4.7,2.2,2.2,0,0,0-.6,1.7,2.4,2.4,0,0,0,.6,1.7,2,2,0,0,0,1.4.6,2,2,0,0,0,1.5-.6,2.7,2.7,0,0,0,0-3.4Z" transform="translate(-25.2 -101.4)"/></svg>