<svg id="Layer_1" data-name="Layer 1" xmlns="http://www.w3.org/2000/svg" viewBox="0 0 273.8 46.5"><defs><style>.cls-1{fill:#c9a34b;}.cls-2{fill:#fff;}</style></defs><path class="cls-1" d="M105.9,126a2.8,2.8,0,0,0,1.1-.8,1.8,1.8,0,0,0,.4-1.3,2,2,0,0,0-.3-1.1,2.8,2.8,0,0,0-1-.9,4.1,4.1,0,0,0-1.6-.3h-3.4v8.9h3.6a3.3,3.3,0,0,0,1.5-.3,2.1,2.1,0,0,0,1-.8,2,2,0,0,0,.4-1.3,2.4,2.4,0,0,0-.5-1.4A1.9,1.9,0,0,0,105.9,126Zm-3.3-3.2h1.8a1.8,1.8,0,0,1,1.1.3,1.4,1.4,0,0,1,0,2,1.8,1.8,0,0,1-1.1.3h-1.8Zm3.1,6.2a1.6,1.6,0,0,1-1.2.4h-1.9v-2.8h1.9a2.1,2.1,0,0,1,1.2.3,1.5,1.5,0,0,1,.4,1.1A1.2,1.2,0,0,1,105.7,129Z" transform="translate(-25.2 -98.3)"/><path class="cls-1" d="M114.5,127.3a2.1,2.1,0,0,1-.5,1.5,2,2,0,0,1-1.5.5,1.8,1.8,0,0,1-1.5-.5,1.7,1.7,0,0,1-.5-1.5v-5.7H109v5.7a3.5,3.5,0,0,0,1.7,3,4.8,4.8,0,0,0,1.8.3,4.7,4.7,0,0,0,1.7-.3,3,3,0,0,0,1.3-1.2,3.5,3.5,0,0,0,.5-1.8v-5.7h-1.5Z" transform="translate(-25.2 -98.3)"/><path class="cls-1" d="M122.3,125.9l-1.5-.5-1-.3-.7-.4a1.4,1.4,0,0,1-.2-.7,1.3,1.3,0,0,1,.4-1,1.5,1.5,0,0,1,1-.3,1.2,1.2,0,0,1,1.1.4,1,1,0,0,1,.5.8h1.6a2.6,2.6,0,0,0-.9-1.7,3.1,3.1,0,0,0-2.1-.7,3.8,3.8,0,0,0-1.6.3,2,2,0,0,0-1.1.9,2.1,2.1,0,0,0-.4,1.4,1.8,1.8,0,0,0,.4,1.3,2,2,0,0,0,.9.7l1.4.5,1.1.3a1.8,1.8,0,0,1,.7.5,1.4,1.4,0,0,1,.2.7,1.3,1.3,0,0,1-.4,1,2.1,2.1,0,0,1-1.2.4,1.8,1.8,0,0,1-1.1-.4,1.9,1.9,0,0,1-.5-1h-1.5a2,2,0,0,0,.4,1.3,2.4,2.4,0,0,0,1.1.9,4.1,4.1,0,0,0,1.6.3,4.3,4.3,0,0,0,1.7-.3,3.2,3.2,0,0,0,1-1,2,2,0,0,0,.4-1.3,1.8,1.8,0,0,0-.4-1.3A2.3,2.3,0,0,0,122.3,125.9Z" transform="translate(-25.2 -98.3)"/><rect class="cls-1" x="99.9" y="23.3" width="1.5" height="8.92"/><polygon class="cls-1" points="108.6 29.9 104.2 23.3 102.7 23.3 102.7 32.2 104.2 32.2 104.2 25.6 108.6 32.2 110 32.2 110 23.3 108.6 23.3 108.6 29.9"/><polygon class="cls-1" points="111.4 32.2 116.4 32.2 116.4 31.1 112.9 31.1 112.9 28.3 116 28.3 116 27.1 112.9 27.1 112.9 24.4 116.4 24.4 116.4 23.3 111.4 23.3 111.4 32.2"/><path class="cls-1" d="M147.8,125.9l-1.4-.5-1.1-.3-.6-.4a.8.8,0,0,1-.2-.7,1.7,1.7,0,0,1,.3-1,1.8,1.8,0,0,1,1.1-.3,1.5,1.5,0,0,1,1.1.4,1.4,1.4,0,0,1,.5.8h1.6a2.6,2.6,0,0,0-.9-1.7,3.2,3.2,0,0,0-2.2-.7,4.1,4.1,0,0,0-1.6.3,3.1,3.1,0,0,0-1.1.9,2.9,2.9,0,0,0-.3,1.4,2.5,2.5,0,0,0,.3,1.3,2.3,2.3,0,0,0,1,.7l1.4.5,1.1.3a1.5,1.5,0,0,1,.6.5.9.9,0,0,1,.3.7,1.3,1.3,0,0,1-.4,1,2.1,2.1,0,0,1-1.2.4,1.6,1.6,0,0,1-1.1-.4,1.4,1.4,0,0,1-.5-1h-1.6a2.8,2.8,0,0,0,.4,1.3,2.7,2.7,0,0,0,1.2.9,4.1,4.1,0,0,0,1.6.3,3.8,3.8,0,0,0,1.6-.3,2.7,2.7,0,0,0,1.1-1,2,2,0,0,0,.4-1.3,2.5,2.5,0,0,0-.4-1.3A2.5,2.5,0,0,0,147.8,125.9Z" transform="translate(-25.2 -98.3)"/><path class="cls-1" d="M156.4,126.7a2.3,2.3,0,0,0-.9-.8l-1.5-.5-1-.3-.7-.4a1.4,1.4,0,0,1-.2-.7,1.3,1.3,0,0,1,.4-1,1.5,1.5,0,0,1,1-.3,1.2,1.2,0,0,1,1.1.4,1,1,0,0,1,.5.8h1.6a2.6,2.6,0,0,0-.9-1.7,3.1,3.1,0,0,0-2.1-.7,3.8,3.8,0,0,0-1.6.3,2,2,0,0,0-1.1.9,2.1,2.1,0,0,0-.4,1.4,1.8,1.8,0,0,0,.4,1.3,2,2,0,0,0,.9.7l1.4.5,1.1.3a1.8,1.8,0,0,1,.7.5,1.4,1.4,0,0,1,.2.7,1.3,1.3,0,0,1-.4,1,2.1,2.1,0,0,1-1.2.4,1.8,1.8,0,0,1-1.1-.4,1.9,1.9,0,0,1-.5-1h-1.5a2,2,0,0,0,.4,1.3,2.4,2.4,0,0,0,1.1.9,4.1,4.1,0,0,0,1.6.3,4.3,4.3,0,0,0,1.7-.3,3.2,3.2,0,0,0,1-1,2,2,0,0,0,.4-1.3A1.8,1.8,0,0,0,156.4,126.7Z" transform="translate(-25.2 -98.3)"/><path class="cls-1" d="M105.2,139.9h3.3a3.1,3.1,0,0,1-.9,1.9,2.9,2.9,0,0,1-1.9.6,2.7,2.7,0,0,1-1.6-.4,2.3,2.3,0,0,1-1.1-1.1,3.8,3.8,0,0,1,0-3.4,2.3,2.3,0,0,1,1.1-1.1,2.7,2.7,0,0,1,1.6-.4,2.5,2.5,0,0,1,2.4,1.3h1.7a4.5,4.5,0,0,0-1.6-2,5.2,5.2,0,0,0-2.5-.7,4.4,4.4,0,0,0-2.3.6,5.2,5.2,0,0,0-1.7,1.6,4.8,4.8,0,0,0-.6,2.4,4.1,4.1,0,0,0,.6,2.3,4.6,4.6,0,0,0,1.7,1.7,4.4,4.4,0,0,0,2.3.6,3.9,3.9,0,0,0,2.1-.6,4,4,0,0,0,1.5-1.4,4.1,4.1,0,0,0,.8-1.9v-1.1h-4.9Z" transform="translate(-25.2 -98.3)"/><path class="cls-1" d="M117.2,139.1a3,3,0,0,0,.5-1.6,2.8,2.8,0,0,0-.3-1.3,2.7,2.7,0,0,0-1.1-1,4.7,4.7,0,0,0-1.7-.4h-3.1v9h1.4v-3.6h1.2l2,3.6h1.8l-2.2-3.7A2.4,2.4,0,0,0,117.2,139.1Zm-4.3-.1v-3h1.7a1.6,1.6,0,0,1,1.2.4,1.2,1.2,0,0,1,.4,1.1,1.4,1.4,0,0,1-.4,1.1,1.6,1.6,0,0,1-1.2.4Z" transform="translate(-25.2 -98.3)"/><path class="cls-1" d="M126.1,135.2a4.4,4.4,0,0,0-2.3-.6,4.6,4.6,0,0,0-2.3.6,4.1,4.1,0,0,0-1.6,1.6,4.8,4.8,0,0,0-.6,2.4,4.8,4.8,0,0,0,2.2,4,4.6,4.6,0,0,0,2.3.6,4.4,4.4,0,0,0,2.3-.6,4.6,4.6,0,0,0,1.7-1.7,4.4,4.4,0,0,0,.6-2.3,4.8,4.8,0,0,0-.6-2.4A4.4,4.4,0,0,0,126.1,135.2Zm.4,5.7a2.3,2.3,0,0,1-1.1,1.1,3.4,3.4,0,0,1-3.2,0,2.2,2.2,0,0,1-1-1.1,3.3,3.3,0,0,1-.4-1.7,3.1,3.1,0,0,1,.4-1.7,2.2,2.2,0,0,1,1-1.1,3.4,3.4,0,0,1,3.2,0,2.3,2.3,0,0,1,1.1,1.1,4.3,4.3,0,0,1,.4,1.7A4.7,4.7,0,0,1,126.5,140.9Z" transform="translate(-25.2 -98.3)"/><path class="cls-1" d="M135.3,140.4a1.8,1.8,0,0,1-.6,1.5,1.7,1.7,0,0,1-1.5.5,1.6,1.6,0,0,1-1.4-.5,1.8,1.8,0,0,1-.6-1.5v-5.7h-1.4v5.7a3.4,3.4,0,0,0,.4,1.8,3,3,0,0,0,1.3,1.2,4.7,4.7,0,0,0,1.7.4,4.8,4.8,0,0,0,1.8-.4,3.7,3.7,0,0,0,1.3-1.2,3.4,3.4,0,0,0,.4-1.8v-5.7h-1.4Z" transform="translate(-25.2 -98.3)"/><path class="cls-1" d="M144,136.1a2.2,2.2,0,0,0-1-.9,4.8,4.8,0,0,0-1.8-.4h-3.1v9h1.5v-3.7h1.6a4.2,4.2,0,0,0,1.8-.3,3.6,3.6,0,0,0,1.1-1,3.1,3.1,0,0,0,.3-1.3A2.3,2.3,0,0,0,144,136.1Zm-1.5,2.5a1.7,1.7,0,0,1-1.3.4h-1.6v-3h1.6a1.7,1.7,0,0,1,1.3.4,1.6,1.6,0,0,1,.4,1.1A1.8,1.8,0,0,1,142.5,138.6Z" transform="translate(-25.2 -98.3)"/><polygon class="cls-2" points="76.2 1.5 75.9 1.5 75.9 5.1 82.6 5.1 75.9 14.7 75.9 14.7 75.9 17.7 87.8 17.7 88.1 17.7 88.1 14 81.4 14 88.1 4.5 88.1 1.5 76.2 1.5"/><path class="cls-2" d="M131,106.9h-9.3v3.4h4.1c-.3,1.1-1.9,1.9-3.3,1.9a4.4,4.4,0,0,1-4.2-4.5,4.3,4.3,0,0,1,4.2-4.5,4.1,4.1,0,0,1,3.1,1.4l.3.3,3-2.6-.3-.3a8,8,0,0,0-6.1-2.6,8.2,8.2,0,0,0-5.9,2.4,8.7,8.7,0,0,0-2.4,5.9,8.3,8.3,0,0,0,8.3,8.3h1.3a7.8,7.8,0,0,0,4.4-2,8.2,8.2,0,0,0,2.8-6.2Z" transform="translate(-25.2 -98.3)"/><polygon class="cls-1" points="60.3 1.1 55.4 1.1 53.1 1.1 49.3 17.4 49.2 17.8 42.8 45.4 45.1 45.4 50 45.4 52.4 45.4 58.8 17.8 58.9 17.4 62.7 1.1 60.3 1.1"/><polygon class="cls-1" points="56 45.4 59.8 29.2 65.8 45.4 56 45.4"/><polygon class="cls-2" points="9.9 1.1 6.1 17.3 0 1.1 9.9 1.1"/><polygon class="cls-2" points="20.7 1.1 15.8 1.1 13.4 1.1 7 28.7 7 29.1 3.2 45.4 5.5 45.4 10.4 45.4 12.8 45.4 16.6 29.1 16.7 28.7 23.1 1.1 20.7 1.1"/><polygon class="cls-2" points="33.9 1.1 29 1.1 26.7 1.1 20.3 28.7 20.2 29.1 16.4 45.4 18.7 45.4 23.6 45.4 26 45.4 29.8 29.1 29.9 28.7 36.3 1.1 33.9 1.1"/><polygon class="cls-1" points="47.1 1.1 42.2 1.1 39.9 1.1 33.5 28.7 33.4 29.1 29.6 45.4 31.9 45.4 36.8 45.4 39.2 45.4 43 29.1 43.1 28.7 49.5 1.1 47.1 1.1"/><rect class="cls-2" x="140.6" width="0.3" height="46.47"/><path class="cls-2" d="M177.1,115.4h4.1v1.8h-6.6v-1.7l4-5.7h-4v-1.9h6.6v1.7Z" transform="translate(-25.2 -98.3)"/><path class="cls-2" d="M189.6,114h-5.2a1.6,1.6,0,0,0,.5,1.1,1.2,1.2,0,0,0,1,.4,1.2,1.2,0,0,0,1.1-.7h2.5a5.4,5.4,0,0,1-.7,1.3,2.7,2.7,0,0,1-1.2.9,4.7,4.7,0,0,1-1.7.3,4.1,4.1,0,0,1-1.9-.4,2.9,2.9,0,0,1-1.3-1.4,3.9,3.9,0,0,1-.5-2,3.5,3.5,0,0,1,.5-2,2.7,2.7,0,0,1,1.3-1.3,4.1,4.1,0,0,1,1.9-.5,3.6,3.6,0,0,1,1.9.5,3.5,3.5,0,0,1,1.4,1.3,3.8,3.8,0,0,1,.4,1.9Zm-2.3-1.1a1.2,1.2,0,0,0-.4-1,1.8,1.8,0,0,0-1-.4,1.3,1.3,0,0,0-1,.4,2.3,2.3,0,0,0-.5,1Z" transform="translate(-25.2 -98.3)"/><path class="cls-2" d="M194.1,110.1a2.8,2.8,0,0,1,1.3-.4v2.4h-.6a2.2,2.2,0,0,0-1.3.4,1.7,1.7,0,0,0-.4,1.3v3.4h-2.3v-7.4h2.3v1.3Z" transform="translate(-25.2 -98.3)"/><path class="cls-2" d="M203.8,109.8v7.4h-2.3v-1a2.4,2.4,0,0,1-.9.8,2.8,2.8,0,0,1-1.3.3,2.4,2.4,0,0,1-1.5-.4,2.2,2.2,0,0,1-1-1.1,3.9,3.9,0,0,1-.4-1.7v-4.3h2.3v4a1.6,1.6,0,0,0,.4,1.2,1.2,1.2,0,0,0,1,.4,1.4,1.4,0,0,0,1.1-.4,2.1,2.1,0,0,0,.3-1.2v-4Z" transform="translate(-25.2 -98.3)"/><path class="cls-2" d="M208.7,110.1a4.6,4.6,0,0,1,1.7-1.7,5.4,5.4,0,0,1,5.3.2,3.6,3.6,0,0,1,1.5,2.3h-2.5a1.9,1.9,0,0,0-.7-.8l-1.1-.2a2.1,2.1,0,0,0-1.8.7,3,3,0,0,0-.7,2,3.2,3.2,0,0,0,.7,2,3,3,0,0,0,2,.7,3.3,3.3,0,0,0,1.4-.4,2.4,2.4,0,0,0,.8-1.3h-2.9V112h5v2.1a6.5,6.5,0,0,1-.9,1.6,5.8,5.8,0,0,1-1.5,1.1,4.6,4.6,0,0,1-2.1.5,5.1,5.1,0,0,1-2.5-.6,4.6,4.6,0,0,1-1.7-1.7,4.8,4.8,0,0,1-.6-2.4A4.9,4.9,0,0,1,208.7,110.1Z" transform="translate(-25.2 -98.3)"/><path class="cls-2" d="M225.6,114h-5.2a1.6,1.6,0,0,0,.5,1.1,1.1,1.1,0,0,0,.9.4,1.3,1.3,0,0,0,1.2-.7h2.4a3.1,3.1,0,0,1-.6,1.3,3.5,3.5,0,0,1-2.9,1.2,4.1,4.1,0,0,1-1.9-.4,2.9,2.9,0,0,1-1.3-1.4,3.1,3.1,0,0,1-.5-2,3.5,3.5,0,0,1,.5-2,2.7,2.7,0,0,1,1.3-1.3,3.9,3.9,0,0,1,3.8,0,2.7,2.7,0,0,1,1.3,1.3,3,3,0,0,1,.5,1.9Zm-2.3-1.1a1.2,1.2,0,0,0-.4-1,1.8,1.8,0,0,0-1-.4,1.3,1.3,0,0,0-1,.4,2.3,2.3,0,0,0-.5,1Z" transform="translate(-25.2 -98.3)"/><path class="cls-2" d="M230,110a2.9,2.9,0,0,1,1.4-.3,3.3,3.3,0,0,1,2.8,1.8,5.2,5.2,0,0,1,0,4,4.1,4.1,0,0,1-1.2,1.4,2.9,2.9,0,0,1-1.6.4,2.9,2.9,0,0,1-1.4-.3,2.4,2.4,0,0,1-.9-.8v1h-2.3v-9.8h2.3v3.5A2,2,0,0,1,230,110Zm1.8,2.2a1.6,1.6,0,0,0-1.1-.5,1.6,1.6,0,0,0-1.6,1.8,2.1,2.1,0,0,0,.4,1.4,1.8,1.8,0,0,0,1.2.5,1.6,1.6,0,0,0,1.1-.5,1.7,1.7,0,0,0,.5-1.4A1.4,1.4,0,0,0,231.8,112.2Z" transform="translate(-25.2 -98.3)"/><path class="cls-2" d="M239.1,110.1a2.8,2.8,0,0,1,1.3-.4v2.4h-.6a2.2,2.2,0,0,0-1.3.4,1.7,1.7,0,0,0-.4,1.3v3.4h-2.3v-7.4h2.3v1.3Z" transform="translate(-25.2 -98.3)"/><path class="cls-2" d="M248.4,114h-5.1a1.6,1.6,0,0,0,.4,1.1,1.4,1.4,0,0,0,2.2-.3h2.4a2.4,2.4,0,0,1-.7,1.3,2.7,2.7,0,0,1-1.2.9,4.1,4.1,0,0,1-1.6.3,3.8,3.8,0,0,1-1.9-.4,3.2,3.2,0,0,1-1.4-1.4,4,4,0,0,1-.4-2,4.5,4.5,0,0,1,.4-2,3.3,3.3,0,0,1,1.3-1.3,4.6,4.6,0,0,1,2-.5,4.1,4.1,0,0,1,1.9.5,2.7,2.7,0,0,1,1.3,1.3,3.8,3.8,0,0,1,.5,1.9A1.3,1.3,0,0,1,248.4,114Zm-2.2-1.1a1.5,1.5,0,0,0-.4-1,1.8,1.8,0,0,0-1-.4,1.3,1.3,0,0,0-1,.4,1.6,1.6,0,0,0-.5,1Z" transform="translate(-25.2 -98.3)"/><path class="cls-2" d="M251.9,107.4v9.8h-2.2v-9.8Z" transform="translate(-25.2 -98.3)"/><path class="cls-2" d="M253.8,108.7a1,1,0,0,1-.4-.9,1.2,1.2,0,0,1,1.3-1.2,1.7,1.7,0,0,1,1,.3,1.2,1.2,0,0,1,.4.9,1,1,0,0,1-.4.9,1.7,1.7,0,0,1-1,.3A1.2,1.2,0,0,1,253.8,108.7Zm2.1,1.1v7.4h-2.3v-7.4Z" transform="translate(-25.2 -98.3)"/><path class="cls-2" d="M260.7,110a3.2,3.2,0,0,1,1.4-.3,3.3,3.3,0,0,1,2.8,1.8,5.2,5.2,0,0,1,0,4,4.1,4.1,0,0,1-1.2,1.4,2.9,2.9,0,0,1-1.6.4,2.9,2.9,0,0,1-1.4-.3,2.4,2.4,0,0,1-.9-.8v1h-2.3v-9.8h2.3v3.5A2,2,0,0,1,260.7,110Zm1.8,2.2a1.6,1.6,0,0,0-1.1-.5,1.6,1.6,0,0,0-1.6,1.8,2.1,2.1,0,0,0,.4,1.4,1.8,1.8,0,0,0,1.2.5,1.6,1.6,0,0,0,1.1-.5,1.7,1.7,0,0,0,.5-1.4A1.4,1.4,0,0,0,262.5,112.2Z" transform="translate(-25.2 -98.3)"/><path class="cls-2" d="M266.5,111.5a3.3,3.3,0,0,1,2.8-1.8,2.9,2.9,0,0,1,1.4.3,2,2,0,0,1,.9.9v-1.1h2.3v7.4h-2.3v-1a2.4,2.4,0,0,1-.9.8,3.2,3.2,0,0,1-1.4.3,2.9,2.9,0,0,1-1.6-.4,4.1,4.1,0,0,1-1.2-1.4,5.2,5.2,0,0,1,0-4Zm4.7.7a1.8,1.8,0,0,0-1.2-.5,1.6,1.6,0,0,0-1.1.5,1.4,1.4,0,0,0-.5,1.3,1.7,1.7,0,0,0,.5,1.4,1.6,1.6,0,0,0,1.1.5,1.8,1.8,0,0,0,1.2-.5,2.1,2.1,0,0,0,.4-1.4A1.8,1.8,0,0,0,271.2,112.2Z" transform="translate(-25.2 -98.3)"/><path class="cls-2" d="M282.1,110.6a3.2,3.2,0,0,1,.8,2.3v4.3h-2.3v-4a2.1,2.1,0,0,0-.3-1.2,1.8,1.8,0,0,0-1.1-.4,1.5,1.5,0,0,0-1,.4,1.6,1.6,0,0,0-.4,1.2v4h-2.3v-7.4h2.3v1a2.4,2.4,0,0,1,.9-.8,3.2,3.2,0,0,1,1.4-.3A2.5,2.5,0,0,1,282.1,110.6Z" transform="translate(-25.2 -98.3)"/><path class="cls-2" d="M285.9,116.9a3.8,3.8,0,0,1-1.4-1.4,3.9,3.9,0,0,1-.5-2,4.6,4.6,0,0,1,.5-2,3.5,3.5,0,0,1,1.4-1.3,4.6,4.6,0,0,1,2-.5,3.8,3.8,0,0,1,1.9.5,2.9,2.9,0,0,1,1.4,1.3,3.5,3.5,0,0,1,.5,2,3.8,3.8,0,0,1-1.9,3.4,4.1,4.1,0,0,1-1.9.4A4.2,4.2,0,0,1,285.9,116.9Zm3.1-2a2,2,0,0,0,.4-1.4,2.1,2.1,0,0,0-.4-1.4,1.5,1.5,0,0,0-1.1-.4,1.4,1.4,0,0,0-1.1.4,2.2,2.2,0,0,0-.5,1.4,2,2,0,0,0,.5,1.4,1.4,1.4,0,0,0,1.1.5A1.6,1.6,0,0,0,289,114.9Z" transform="translate(-25.2 -98.3)"/><path class="cls-2" d="M294.2,117a2.7,2.7,0,0,1-1.2-.9,2.9,2.9,0,0,1-.5-1.3h2.3a.9.9,0,0,0,.3.7l.8.2.7-.2a.5.5,0,0,0,.2-.4.5.5,0,0,0-.3-.5l-1.1-.3-1.3-.4a2.2,2.2,0,0,1-.9-.7,1.6,1.6,0,0,1-.4-1.2,2,2,0,0,1,.3-1.1,2.4,2.4,0,0,1,1.1-.9,3.8,3.8,0,0,1,1.6-.3,3.1,3.1,0,0,1,2.2.7,3.1,3.1,0,0,1,.9,1.8h-2.1a.7.7,0,0,0-.3-.6,1.1,1.1,0,0,0-.8-.2h-.6a.8.8,0,0,0-.2.5c0,.2.1.3.3.4l1.1.4a4,4,0,0,1,1.3.4,2.1,2.1,0,0,1,1,.6,2.3,2.3,0,0,1,.3,1.3,2,2,0,0,1-.3,1.1,2.3,2.3,0,0,1-1.1.8,3.5,3.5,0,0,1-1.6.3A4.7,4.7,0,0,1,294.2,117Z" transform="translate(-25.2 -98.3)"/><path class="cls-2" d="M177,123.4v9.3h-2.3v-9.3Z" transform="translate(-25.2 -98.3)"/><path class="cls-2" d="M190.3,126.1a3.2,3.2,0,0,1,.8,2.3v4.3h-2.2v-4a1.6,1.6,0,0,0-.4-1.1,1.4,1.4,0,0,0-1.1-.4,1.2,1.2,0,0,0-1,.4,1.2,1.2,0,0,0-.4,1.1v4h-2.2v-4a1.6,1.6,0,0,0-.4-1.1,1.4,1.4,0,0,0-1.1-.4,1.2,1.2,0,0,0-1,.4,1.2,1.2,0,0,0-.4,1.1v4h-2.3v-7.4h2.3v.9a3.1,3.1,0,0,1,.9-.7,2.8,2.8,0,0,1,1.3-.3,2.8,2.8,0,0,1,1.5.4,2.4,2.4,0,0,1,1,1,3.6,3.6,0,0,1,1.1-1,3.3,3.3,0,0,1,1.4-.4A2.8,2.8,0,0,1,190.3,126.1Z" transform="translate(-25.2 -98.3)"/><path class="cls-2" d="M195.9,125.5a2.9,2.9,0,0,1,1.4-.3,3.3,3.3,0,0,1,2.8,1.8,5.2,5.2,0,0,1,0,4,3,3,0,0,1-1.2,1.3,2.4,2.4,0,0,1-1.6.5,2.9,2.9,0,0,1-1.4-.3,2.4,2.4,0,0,1-.9-.8v4.5h-2.3V125.3H195v1.1A2,2,0,0,1,195.9,125.5Zm1.8,2.2a1.3,1.3,0,0,0-1.1-.5,1.3,1.3,0,0,0-1.2.5,1.7,1.7,0,0,0-.4,1.3,2.1,2.1,0,0,0,.4,1.4,1.6,1.6,0,0,0,1.2.4,1.3,1.3,0,0,0,1.1-.5,1.9,1.9,0,0,0,0-2.6Z" transform="translate(-25.2 -98.3)"/><path class="cls-2" d="M203.1,132.4a4.4,4.4,0,0,1-1.3-1.4,3.1,3.1,0,0,1-.5-2,3.3,3.3,0,0,1,.5-2,2.9,2.9,0,0,1,1.4-1.3,3.8,3.8,0,0,1,1.9-.5,4.6,4.6,0,0,1,2,.5,3.5,3.5,0,0,1,1.4,1.3,4.3,4.3,0,0,1,0,4,4.7,4.7,0,0,1-1.4,1.4,5.2,5.2,0,0,1-4,0Zm3.1-2a2,2,0,0,0,.5-1.4,2.2,2.2,0,0,0-.5-1.4,1.4,1.4,0,0,0-1.1-.4,1.5,1.5,0,0,0-1.1.4,2.7,2.7,0,0,0,0,2.8,1.5,1.5,0,0,0,2.2,0Z" transform="translate(-25.2 -98.3)"/><path class="cls-2" d="M213.4,125.6a3.7,3.7,0,0,1,1.4-.4v2.4h-.7a2.1,2.1,0,0,0-1.2.4,1.6,1.6,0,0,0-.5,1.3v3.4h-2.2v-7.4h2.2v1.3A4.7,4.7,0,0,1,213.4,125.6Z" transform="translate(-25.2 -98.3)"/><path class="cls-2" d="M220,130.8v1.9h-1.2a2.9,2.9,0,0,1-1.9-.6,2.4,2.4,0,0,1-.7-2v-2.9h-.9v-1.9h.9v-1.8h2.3v1.8H220v1.9h-1.5v3c0,.2,0,.3.1.4l.6.2Z" transform="translate(-25.2 -98.3)"/><path class="cls-2" d="M230.2,132.7l-.8-1.1a2.4,2.4,0,0,1-1.1.9,3.2,3.2,0,0,1-1.4.3,2.9,2.9,0,0,1-1.6-.4,1.9,1.9,0,0,1-1-1,2.6,2.6,0,0,1-.4-1.5,2.8,2.8,0,0,1,.6-1.8,2.4,2.4,0,0,1,1.5-.9l-.5-.9a2.8,2.8,0,0,1-.1-.9,2.7,2.7,0,0,1,.3-1.2,2.4,2.4,0,0,1,.9-.8,3.7,3.7,0,0,1,1.5-.3,2.9,2.9,0,0,1,1.9.5,2.2,2.2,0,0,1,.9,1.4v1.1h-2.1v-.5a.8.8,0,0,0-.2-.5l-.5-.2-.4.2a.6.6,0,0,0-.1.4v.4l.3.5,4.7,6.3Zm-2.5-2.1a.9.9,0,0,0,.3-.7,1,1,0,0,0-1.1-1.1.8.8,0,0,0-.7.3,1.1,1.1,0,0,0-.3.8.9.9,0,0,0,.3.7.8.8,0,0,0,.7.3A1.1,1.1,0,0,0,227.7,130.6Z" transform="translate(-25.2 -98.3)"/><path class="cls-2" d="M238.8,125.2v1.9h3v1.7h-3v2.1h3.4v1.8h-5.7v-9.3h5.7v1.8Z" transform="translate(-25.2 -98.3)"/><path class="cls-2" d="M248.1,132.7l-1.4-2-1.2,2H243l2.5-3.8-2.6-3.6h2.6l1.4,2.1,1.2-2.1h2.5l-2.5,3.7,2.5,3.7Z" transform="translate(-25.2 -98.3)"/><path class="cls-2" d="M254.7,125.5a2.9,2.9,0,0,1,1.4-.3,3.3,3.3,0,0,1,2.8,1.8,5.2,5.2,0,0,1,0,4,3,3,0,0,1-1.2,1.3,2.4,2.4,0,0,1-1.6.5,3.2,3.2,0,0,1-1.4-.3,2.4,2.4,0,0,1-.9-.8v4.5h-2.3V125.3h2.3v1.1A2,2,0,0,1,254.7,125.5Zm1.8,2.2a1.3,1.3,0,0,0-1.1-.5,1.5,1.5,0,0,0-1.2.5,1.7,1.7,0,0,0-.4,1.3,2.1,2.1,0,0,0,.4,1.4,1.7,1.7,0,0,0,1.2.4,1.3,1.3,0,0,0,1.1-.5,1.9,1.9,0,0,0,0-2.6Z" transform="translate(-25.2 -98.3)"/><path class="cls-2" d="M261.9,132.4a4.4,4.4,0,0,1-1.3-1.4,3.1,3.1,0,0,1-.5-2,3.3,3.3,0,0,1,.5-2,2.9,2.9,0,0,1,1.4-1.3,3.8,3.8,0,0,1,1.9-.5,4.6,4.6,0,0,1,2,.5,3.5,3.5,0,0,1,1.4,1.3,4.3,4.3,0,0,1,0,4,4.7,4.7,0,0,1-1.4,1.4,5.2,5.2,0,0,1-4,0Zm3.1-2a2,2,0,0,0,.5-1.4,2.2,2.2,0,0,0-.5-1.4,1.4,1.4,0,0,0-1.1-.4,1.5,1.5,0,0,0-1.1.4,2.7,2.7,0,0,0,0,2.8,1.5,1.5,0,0,0,2.2,0Z" transform="translate(-25.2 -98.3)"/><path class="cls-2" d="M272.3,125.6a2.8,2.8,0,0,1,1.3-.4v2.4h-.7a2.1,2.1,0,0,0-1.2.4,1.6,1.6,0,0,0-.5,1.3v3.4H269v-7.4h2.2v1.3A3.6,3.6,0,0,1,272.3,125.6Z" transform="translate(-25.2 -98.3)"/><path class="cls-2" d="M278.8,130.8v1.9h-1.2a2.9,2.9,0,0,1-1.9-.6,2.4,2.4,0,0,1-.7-2v-2.9h-.9v-1.9h.9v-1.8h2.3v1.8h1.5v1.9h-1.5v3c0,.2,0,.3.1.4a1.1,1.1,0,0,0,.6.2Z" transform="translate(-25.2 -98.3)"/></svg>