<svg id="Layer_1" data-name="Layer 1" xmlns="http://www.w3.org/2000/svg" viewBox="0 0 301.9 40.9"><defs><style>.cls-1{fill:#c9a34b;}.cls-2{fill:#fff;}</style></defs><path class="cls-1" d="M96.2,125.7a2.1,2.1,0,0,0,1-.6,2.1,2.1,0,0,0,.3-1.2,1.7,1.7,0,0,0-.3-1c-.1-.3-.4-.5-.8-.7a3.2,3.2,0,0,0-1.4-.3H92v7.9h3.1a2.9,2.9,0,0,0,1.4-.3,2.4,2.4,0,0,0,.9-.8,2,2,0,0,0,.3-1.1,1.9,1.9,0,0,0-.4-1.2A1.9,1.9,0,0,0,96.2,125.7Zm-2.9-2.8h1.6a1.7,1.7,0,0,1,1,.3,1.2,1.2,0,0,1,.3.9,1.1,1.1,0,0,1-.3.8,1.7,1.7,0,0,1-1,.3H93.3Zm2.8,5.5a1.8,1.8,0,0,1-1.1.3H93.3v-2.5H95a1.5,1.5,0,0,1,1,.4,1,1,0,0,1,.4.9A1.2,1.2,0,0,1,96.1,128.4Z" transform="translate(-25.2 -101.4)"/><path class="cls-1" d="M103.8,126.9a1.7,1.7,0,0,1-1.8,1.8,1.9,1.9,0,0,1-1.3-.5,1.7,1.7,0,0,1-.5-1.3v-5H99v5a2.7,2.7,0,0,0,.4,1.6,1.8,1.8,0,0,0,1.1,1,3.3,3.3,0,0,0,1.5.3,4.1,4.1,0,0,0,1.6-.3,2.6,2.6,0,0,0,1.1-1,2.7,2.7,0,0,0,.4-1.6v-5h-1.3Z" transform="translate(-25.2 -101.4)"/><path class="cls-1" d="M110.6,125.7l-1.2-.5-1-.2-.5-.4a.7.7,0,0,1-.2-.6,1.2,1.2,0,0,1,.3-.9c.2-.2.5-.2.9-.2a1.5,1.5,0,0,1,1,.3,1,1,0,0,1,.4.7h1.4a1.9,1.9,0,0,0-.8-1.5,2.9,2.9,0,0,0-1.9-.6,3.2,3.2,0,0,0-1.4.3,1.8,1.8,0,0,0-.9.8,2.1,2.1,0,0,0-.4,1.1,2.1,2.1,0,0,0,.4,1.2,2.7,2.7,0,0,0,.8.7l1.3.4.9.3.6.4a.8.8,0,0,1,.2.6,1.2,1.2,0,0,1-.4.9,1.8,1.8,0,0,1-2,0,1.8,1.8,0,0,1-.4-.9h-1.4a1.9,1.9,0,0,0,.4,1.2,2.7,2.7,0,0,0,1,.8l1.4.2a3.7,3.7,0,0,0,1.5-.3,2.4,2.4,0,0,0,.9-.8,2.7,2.7,0,0,0,.3-1.2,2.1,2.1,0,0,0-.3-1.2A1.8,1.8,0,0,0,110.6,125.7Z" transform="translate(-25.2 -101.4)"/><rect class="cls-1" x="87.9" y="20.5" width="1.3" height="7.85"/><polygon class="cls-1" points="95.6 26.4 91.7 20.5 90.4 20.5 90.4 28.4 91.7 28.4 91.7 22.5 95.6 28.4 96.9 28.4 96.9 20.5 95.6 20.5 95.6 26.4"/><polygon class="cls-1" points="98.1 28.4 102.4 28.4 102.4 27.4 99.4 27.4 99.4 24.9 102.1 24.9 102.1 23.9 99.4 23.9 99.4 21.5 102.4 21.5 102.4 20.5 98.1 20.5 98.1 28.4"/><path class="cls-1" d="M133.1,125.7l-1.2-.5-1-.2-.5-.4a.7.7,0,0,1-.2-.6,1.2,1.2,0,0,1,.3-.9c.2-.2.5-.2.9-.2a1.5,1.5,0,0,1,1,.3,1,1,0,0,1,.4.7h1.4a1.9,1.9,0,0,0-.8-1.5,2.9,2.9,0,0,0-1.9-.6,3.2,3.2,0,0,0-1.4.3,1.8,1.8,0,0,0-.9.8,2.1,2.1,0,0,0-.4,1.1,2.1,2.1,0,0,0,.4,1.2,2.7,2.7,0,0,0,.8.7l1.3.4.9.3.6.4a.8.8,0,0,1,.2.6,1.2,1.2,0,0,1-.4.9,1.8,1.8,0,0,1-2,0,1.8,1.8,0,0,1-.4-.9h-1.4a1.9,1.9,0,0,0,.4,1.2,2.7,2.7,0,0,0,1,.8l1.4.2a3.7,3.7,0,0,0,1.5-.3,2.4,2.4,0,0,0,.9-.8,2.7,2.7,0,0,0,.3-1.2,2.1,2.1,0,0,0-.3-1.2A1.8,1.8,0,0,0,133.1,125.7Z" transform="translate(-25.2 -101.4)"/><path class="cls-1" d="M140.7,126.3a1.6,1.6,0,0,0-.8-.6l-1.3-.5-.9-.2-.6-.4a1.4,1.4,0,0,1-.2-.6,1.2,1.2,0,0,1,.3-.9,1.9,1.9,0,0,1,1.9.1.8.8,0,0,1,.4.7h1.4a1.9,1.9,0,0,0-.8-1.5,2.6,2.6,0,0,0-1.8-.6,2.9,2.9,0,0,0-1.4.3,2,2,0,0,0-1.3,1.9,2.1,2.1,0,0,0,.3,1.2,2.7,2.7,0,0,0,.8.7l1.3.4.9.3a.9.9,0,0,1,.6.4c.2.1.2.3.2.6a1.6,1.6,0,0,1-.3.9,1.8,1.8,0,0,1-1.1.3,1.7,1.7,0,0,1-1-.3,3.6,3.6,0,0,1-.4-.9h-1.4a2.8,2.8,0,0,0,.4,1.2,3.9,3.9,0,0,0,1,.8l1.4.2a3.3,3.3,0,0,0,1.5-.3,2.4,2.4,0,0,0,.9-.8,2.7,2.7,0,0,0,.3-1.2A2.1,2.1,0,0,0,140.7,126.3Z" transform="translate(-25.2 -101.4)"/><path class="cls-1" d="M95.6,138h2.9a2.3,2.3,0,0,1-.8,1.6,2.4,2.4,0,0,1-1.7.6,3.2,3.2,0,0,1-1.4-.3,3.1,3.1,0,0,1-1.3-2.5,2.4,2.4,0,0,1,.4-1.5,1.8,1.8,0,0,1,.9-1,2.3,2.3,0,0,1,1.4-.4,2.8,2.8,0,0,1,1.3.3,2.4,2.4,0,0,1,.8.9h1.6a3.5,3.5,0,0,0-1.5-1.7,3.8,3.8,0,0,0-2.2-.6,3.5,3.5,0,0,0-2,.5,4,4,0,0,0-1.5,1.4,4.6,4.6,0,0,0-.5,2.1,4.6,4.6,0,0,0,.5,2,5.4,5.4,0,0,0,1.5,1.5,4.6,4.6,0,0,0,2,.5,4.1,4.1,0,0,0,1.9-.5,5.3,5.3,0,0,0,1.4-1.2,4.9,4.9,0,0,0,.6-1.7v-1H95.6Z" transform="translate(-25.2 -101.4)"/><path class="cls-1" d="M106.2,137.3a2.5,2.5,0,0,0,.4-1.4,2.1,2.1,0,0,0-.3-1.2,2.6,2.6,0,0,0-.9-.9,3.5,3.5,0,0,0-1.6-.3h-2.7v7.9h1.3v-3.2h1l1.8,3.2h1.6l-2-3.3A2.2,2.2,0,0,0,106.2,137.3Zm-3.8-.1v-2.7h1.4a1.2,1.2,0,0,1,1.1.4,1.2,1.2,0,0,1,.4,1,1.3,1.3,0,0,1-.4,1,1.6,1.6,0,0,1-1.1.3Z" transform="translate(-25.2 -101.4)"/><path class="cls-1" d="M114,133.9a3.6,3.6,0,0,0-4,0,4,4,0,0,0-1.5,1.4,4.6,4.6,0,0,0-.5,2.1,4.6,4.6,0,0,0,.5,2,5.4,5.4,0,0,0,1.5,1.5,4.3,4.3,0,0,0,4,0,5.4,5.4,0,0,0,1.5-1.5,4.6,4.6,0,0,0,.5-2,4.6,4.6,0,0,0-.5-2.1A4,4,0,0,0,114,133.9Zm.3,4.9a2.4,2.4,0,0,1-.9,1.1,3.4,3.4,0,0,1-2.8,0,2.4,2.4,0,0,1-.9-1.1,2.3,2.3,0,0,1-.4-1.4,2.4,2.4,0,0,1,.4-1.5,1.8,1.8,0,0,1,.9-1,2.6,2.6,0,0,1,2.8,0,1.8,1.8,0,0,1,.9,1,2.4,2.4,0,0,1,.4,1.5A2.3,2.3,0,0,1,114.3,138.8Z" transform="translate(-25.2 -101.4)"/><path class="cls-1" d="M122.1,138.4a2,2,0,0,1-.5,1.4,2.3,2.3,0,0,1-2.6,0,2,2,0,0,1-.5-1.4v-5h-1.3v5a4.3,4.3,0,0,0,.4,1.7,3.1,3.1,0,0,0,1.1.9,2.9,2.9,0,0,0,1.6.4,2.4,2.4,0,0,0,1.5-.4,2.7,2.7,0,0,0,1.2-.9,4.3,4.3,0,0,0,.4-1.7v-5h-1.3Z" transform="translate(-25.2 -101.4)"/><path class="cls-1" d="M129.8,134.7a1.8,1.8,0,0,0-1-.9,3.3,3.3,0,0,0-1.5-.3h-2.7v7.9h1.3v-3.2h1.4a3.5,3.5,0,0,0,1.6-.3l.9-.9a2.3,2.3,0,0,0,.3-1.1A2.1,2.1,0,0,0,129.8,134.7Zm-1.4,2.1a1.2,1.2,0,0,1-1.1.4h-1.4v-2.7h1.4a1.2,1.2,0,0,1,1.1.4,1.1,1.1,0,0,1,.4,1A1,1,0,0,1,128.4,136.8Z" transform="translate(-25.2 -101.4)"/><polygon class="cls-2" points="67.1 1.3 66.8 1.3 66.8 4.5 72.7 4.5 66.8 12.9 66.8 12.9 66.8 15.6 77.2 15.6 77.5 15.6 77.5 12.3 71.6 12.3 77.5 3.9 77.5 1.3 67.1 1.3"/><path class="cls-2" d="M118.3,109h-8.1V112h3.6a3.2,3.2,0,0,1-2.9,1.6,3.9,3.9,0,0,1-3.8-4,3.8,3.8,0,0,1,3.8-3.9,3.5,3.5,0,0,1,2.7,1.3l.2.2,2.7-2.3-.3-.2a7,7,0,0,0-5.3-2.4,7.5,7.5,0,0,0-7.4,7.3,7.4,7.4,0,0,0,7.4,7.4H112a7,7,0,0,0,3.9-1.8,7.2,7.2,0,0,0,2.4-5.5Z" transform="translate(-25.2 -101.4)"/><polygon class="cls-1" points="53.1 0.9 48.8 0.9 46.7 0.9 43.4 15.3 43.3 15.6 37.7 40 39.7 40 44 40 46.1 40 51.8 15.6 51.8 15.3 55.2 0.9 53.1 0.9"/><polygon class="cls-1" points="49.3 40 52.6 25.7 58 40 49.3 40"/><polygon class="cls-2" points="8.7 0.9 5.4 15.2 0 0.9 8.7 0.9"/><polygon class="cls-2" points="18.2 0.9 13.9 0.9 11.8 0.9 6.2 25.3 6.1 25.6 2.8 40 4.9 40 9.2 40 11.3 40 14.6 25.6 14.7 25.3 20.3 0.9 18.2 0.9"/><polygon class="cls-2" points="29.8 0.9 25.5 0.9 23.5 0.9 17.8 25.3 17.7 25.6 14.4 40 16.5 40 20.8 40 22.9 40 26.2 25.6 26.3 25.3 31.9 0.9 29.8 0.9"/><polygon class="cls-1" points="41.5 0.9 37.2 0.9 35.1 0.9 29.4 25.3 29.4 25.6 26 40 28.1 40 32.4 40 34.5 40 37.8 25.6 37.9 25.3 43.5 0.9 41.5 0.9"/><rect class="cls-2" x="123.7" width="0.3" height="40.9"/><path class="cls-2" d="M160.7,116.6l-2.1-3.7H158v3.7h-2.4v-9.9h4.1a4.2,4.2,0,0,1,2,.4,2.2,2.2,0,0,1,1.2,1.1,2.9,2.9,0,0,1,.4,1.6,2.9,2.9,0,0,1-.5,1.8,3,3,0,0,1-1.7,1.1l2.3,3.9Zm-2.7-5.5h1.5a1.3,1.3,0,0,0,1-.3,1.2,1.2,0,0,0,0-1.8,1.3,1.3,0,0,0-1-.4H158Z" transform="translate(-25.2 -101.4)"/><path class="cls-2" d="M164.8,110.5a3.5,3.5,0,0,1,1.3-1.4,3.5,3.5,0,0,1,1.8-.5,3.2,3.2,0,0,1,1.4.3,3,3,0,0,1,1,.9v-1.1h2.4v7.9h-2.4v-1.1a2.2,2.2,0,0,1-1,.9,3.3,3.3,0,0,1-1.5.3,2.6,2.6,0,0,1-1.7-.5,3.5,3.5,0,0,1-1.3-1.4,4.8,4.8,0,0,1-.4-2.2A4.6,4.6,0,0,1,164.8,110.5Zm5,.7a1.7,1.7,0,0,0-1.2-.5,2.1,2.1,0,0,0-1.3.5,2.2,2.2,0,0,0-.5,1.4,2.5,2.5,0,0,0,.5,1.5,2.1,2.1,0,0,0,1.3.5,1.7,1.7,0,0,0,1.2-.5,2.2,2.2,0,0,0,.5-1.4A2.5,2.5,0,0,0,169.8,111.2Z" transform="translate(-25.2 -101.4)"/><path class="cls-2" d="M174.7,107.5a1.2,1.2,0,0,1-.4-.9,1.3,1.3,0,0,1,.4-1,1.8,1.8,0,0,1,2,0,1.3,1.3,0,0,1,.4,1,1.2,1.2,0,0,1-.4.9,1.5,1.5,0,0,1-2,0Zm2.2,1.2v7.9h-2.4v-7.9Z" transform="translate(-25.2 -101.4)"/><path class="cls-2" d="M186.1,113.2h-5.5a1.7,1.7,0,0,0,.5,1.2,1.5,1.5,0,0,0,1,.4,1.4,1.4,0,0,0,1.3-.8H186a3.9,3.9,0,0,1-.8,1.4,3.4,3.4,0,0,1-1.3,1,4.7,4.7,0,0,1-1.7.3,3.6,3.6,0,0,1-2.1-.5,3.2,3.2,0,0,1-1.4-1.4,4.6,4.6,0,0,1-.5-2.1,4.8,4.8,0,0,1,.5-2.2,3.2,3.2,0,0,1,1.4-1.4,4.6,4.6,0,0,1,2.1-.5,3.3,3.3,0,0,1,2,.5,2.9,2.9,0,0,1,1.4,1.3,3.6,3.6,0,0,1,.5,2.1Zm-2.4-1.2a1.4,1.4,0,0,0-.5-1.1,1.8,1.8,0,0,0-1-.4,1.8,1.8,0,0,0-1.1.4,1.9,1.9,0,0,0-.5,1.1Z" transform="translate(-25.2 -101.4)"/><path class="cls-2" d="M196.1,103.1l-3.8,16.2H190l3.8-16.2Z" transform="translate(-25.2 -101.4)"/><path class="cls-2" d="M209,112.6v1.6h-1.8v.6a2.5,2.5,0,0,1-.4.7,1.3,1.3,0,0,1-.6.7l-1,.4-1.4.2a4,4,0,0,1-2.6-.8,2.4,2.4,0,0,1-1-2.1,5.9,5.9,0,0,1,.2-1.3l.6-1.2.6-1.2a7.5,7.5,0,0,0,.7-1.2,5.4,5.4,0,0,0,.5-1.1,2.6,2.6,0,0,0,.3-1.1v-.6h2v.7a2.7,2.7,0,0,1-.3,1.2,6.1,6.1,0,0,1-.5,1.2,7.5,7.5,0,0,1-.7,1.2l-.6,1.2-.6,1.1a3.6,3.6,0,0,0-.2,1,1.4,1.4,0,0,0,.2.6c0,.2.2.3.3.4l.5.3h1.3l.5-.3.3-.4a1.7,1.7,0,0,0,.1-.7v-1.1Z" transform="translate(-25.2 -101.4)"/><path class="cls-2" d="M214.8,107.7v1.4l-.7.6-.5.6a2.9,2.9,0,0,1,2.4,1.3,6.8,6.8,0,0,1,.8,3.4h1.8v1.6h-3.8v-1.2a8.1,8.1,0,0,0-.1-1.6,2,2,0,0,0-.3-1.1,2.3,2.3,0,0,0-.7-.7l-1-.3a7.1,7.1,0,0,0-.8,1.8,15.2,15.2,0,0,0-.2,2.3v.8h-2v-1a13.6,13.6,0,0,1,.2-2.1l.6-1.6.9-1.5,1.1-1.3h-1.7v-2.9h2v1.5Z" transform="translate(-25.2 -101.4)"/><path class="cls-2" d="M229.1,114.9h-3.7l-.6,1.7h-2.6l3.6-9.9h2.9l3.6,9.9h-2.6Zm-.6-1.9-1.3-3.7L226,113Z" transform="translate(-25.2 -101.4)"/><path class="cls-2" d="M237.8,108.9a4.5,4.5,0,0,1,1,.9v-1.1h2.4v7.9a4.5,4.5,0,0,1-.4,2,3.5,3.5,0,0,1-1.3,1.4,5.1,5.1,0,0,1-2.2.5,5,5,0,0,1-2.9-.8,3.3,3.3,0,0,1-1.2-2.3h2.4a1,1,0,0,0,.5.8l1.1.2a1.6,1.6,0,0,0,1.2-.4,2,2,0,0,0,.4-1.4v-1.1a4.5,4.5,0,0,1-1,.9,3.2,3.2,0,0,1-1.4.3,2.7,2.7,0,0,1-1.8-.5,3.5,3.5,0,0,1-1.3-1.4,4.8,4.8,0,0,1-.4-2.2,4.6,4.6,0,0,1,.4-2.1,3.5,3.5,0,0,1,1.3-1.4,3.5,3.5,0,0,1,1.8-.5A3.2,3.2,0,0,1,237.8,108.9Zm.5,2.3a1.7,1.7,0,0,0-1.2-.5,2.1,2.1,0,0,0-1.3.5,2.2,2.2,0,0,0-.5,1.4,2.5,2.5,0,0,0,.5,1.5,2.1,2.1,0,0,0,1.3.5,1.7,1.7,0,0,0,1.2-.5,2.2,2.2,0,0,0,.5-1.4A2.5,2.5,0,0,0,238.3,111.2Z" transform="translate(-25.2 -101.4)"/><path class="cls-2" d="M246.5,109a2.3,2.3,0,0,1,1.4-.4v2.6h-.7a1.7,1.7,0,0,0-1.3.4,1.6,1.6,0,0,0-.5,1.3v3.7H243v-7.9h2.4v1.4A5.7,5.7,0,0,1,246.5,109Z" transform="translate(-25.2 -101.4)"/><path class="cls-2" d="M250.6,116.2a3.4,3.4,0,0,1-1.5-1.4,4.6,4.6,0,0,1-.5-2.1,4.8,4.8,0,0,1,.5-2.2,4,4,0,0,1,1.5-1.4,4.7,4.7,0,0,1,4.2,0,4,4,0,0,1,1.5,1.4,4.8,4.8,0,0,1,.5,2.2,4.6,4.6,0,0,1-.5,2.1,4,4,0,0,1-1.5,1.4,4.1,4.1,0,0,1-2.1.5A3.6,3.6,0,0,1,250.6,116.2Zm3.2-2.1a1.6,1.6,0,0,0,.5-1.4,2.1,2.1,0,0,0-.4-1.5,1.5,1.5,0,0,0-1.2-.5,1.3,1.3,0,0,0-1.2.5,2.1,2.1,0,0,0-.5,1.5,2,2,0,0,0,.5,1.4,1.3,1.3,0,0,0,1.2.5A1.3,1.3,0,0,0,253.8,114.1Z" transform="translate(-25.2 -101.4)"/><path class="cls-2" d="M264.2,110.6v2H258v-2Z" transform="translate(-25.2 -101.4)"/><path class="cls-2" d="M268.7,106.7v9.9h-2.4v-9.9Z" transform="translate(-25.2 -101.4)"/><path class="cls-2" d="M277.6,109.5a3.7,3.7,0,0,1,.8,2.5v4.6H276v-4.3a2.1,2.1,0,0,0-.4-1.2,1.6,1.6,0,0,0-1.1-.5,1.7,1.7,0,0,0-1.2.5,2.1,2.1,0,0,0-.4,1.2v4.3h-2.4v-7.9h2.4v1a3.9,3.9,0,0,1,1-.8,3.2,3.2,0,0,1,1.4-.3A3,3,0,0,1,277.6,109.5Z" transform="translate(-25.2 -101.4)"/><path class="cls-2" d="M280,110.5a4.4,4.4,0,0,1,1.3-1.4,3.5,3.5,0,0,1,1.8-.5,3.2,3.2,0,0,1,1.4.3,2.2,2.2,0,0,1,1,.9v-3.7h2.4v10.5h-2.4v-1.1a1.8,1.8,0,0,1-1,.9,3.2,3.2,0,0,1-1.4.3,2.7,2.7,0,0,1-1.8-.5,4.4,4.4,0,0,1-1.3-1.4,4.8,4.8,0,0,1-.4-2.2A4.6,4.6,0,0,1,280,110.5Zm5,.7a1.7,1.7,0,0,0-2.4,0,1.7,1.7,0,0,0-.5,1.4,2,2,0,0,0,.5,1.5,1.7,1.7,0,0,0,2.4,0,1.7,1.7,0,0,0,.5-1.4A2,2,0,0,0,285,111.2Z" transform="translate(-25.2 -101.4)"/><path class="cls-2" d="M297.5,108.7v7.9h-2.4v-1.1a2.8,2.8,0,0,1-1,.9,3.2,3.2,0,0,1-1.4.3,2.9,2.9,0,0,1-1.6-.4,3.2,3.2,0,0,1-1.1-1.2,4.8,4.8,0,0,1-.4-1.8v-4.6H292V113a1.7,1.7,0,0,0,.5,1.2,1.3,1.3,0,0,0,1.1.5,1.5,1.5,0,0,0,1.5-1.7v-4.3Z" transform="translate(-25.2 -101.4)"/><path class="cls-2" d="M300.6,116.4a4,4,0,0,1-1.2-1,3.5,3.5,0,0,1-.6-1.4h2.4a1.6,1.6,0,0,0,.4.7,1.2,1.2,0,0,0,.9.3l.7-.2a.8.8,0,0,0,.2-.5.5.5,0,0,0-.3-.5l-1.2-.4-1.4-.4a1.7,1.7,0,0,1-1-.7,1.6,1.6,0,0,1-.4-1.2,2.4,2.4,0,0,1,1.5-2.2,4.3,4.3,0,0,1,1.7-.3,3.6,3.6,0,0,1,2.4.7,3.5,3.5,0,0,1,1,2h-2.3a.8.8,0,0,0-.4-.7,1,1,0,0,0-.8-.3l-.6.2c-.2.1-.2.3-.2.5a.5.5,0,0,0,.3.5l1.2.3,1.4.5a2.3,2.3,0,0,1,1,.7,2.5,2.5,0,0,1,.4,1.3,2,2,0,0,1-.4,1.3,3.1,3.1,0,0,1-1.1.8,4.7,4.7,0,0,1-1.7.3A5.8,5.8,0,0,1,300.6,116.4Z" transform="translate(-25.2 -101.4)"/><path class="cls-2" d="M311.6,114.6v2h-1.2a3.3,3.3,0,0,1-2.1-.6,2.8,2.8,0,0,1-.7-2.1v-3.2h-1v-2h1v-1.9H310v1.9h1.6v2H310v3.2c0,.2,0,.4.2.5l.5.2Z" transform="translate(-25.2 -101.4)"/><path class="cls-2" d="M316.4,109a2.6,2.6,0,0,1,1.5-.4v2.6h-.7a2,2,0,0,0-1.4.4c-.3.2-.4.7-.4,1.3v3.7h-2.5v-7.9h2.5v1.4A5.2,5.2,0,0,1,316.4,109Z" transform="translate(-25.2 -101.4)"/><path class="cls-2" d="M320.8,108.7l1.9,4.9,1.8-4.9h2.6l-5,11.7h-2.6l1.8-4.1-3.2-7.6Z" transform="translate(-25.2 -101.4)"/><path class="cls-2" d="M158.3,137.6a12,12,0,0,1-1.3-2.8,11.8,11.8,0,0,1,0-6.8,12,12,0,0,1,1.3-2.8,8.1,8.1,0,0,1,2-2.1H162a10.1,10.1,0,0,0-2.9,3.7,10.6,10.6,0,0,0,0,9,10.1,10.1,0,0,0,2.9,3.7h-1.7A8.1,8.1,0,0,1,158.3,137.6Z" transform="translate(-25.2 -101.4)"/><path class="cls-2" d="M163.6,129.6a3.9,3.9,0,0,1,1.8-1.8,4.5,4.5,0,0,1,2.5-.7,5.1,5.1,0,0,1,2.8.8,4.4,4.4,0,0,1,1.8,2.2h-1.9a2.9,2.9,0,0,0-1.1-1.1,2.9,2.9,0,0,0-1.6-.4,3.3,3.3,0,0,0-1.7.4,3,3,0,0,0-1.2,1.3,3.6,3.6,0,0,0-.5,1.9,3.5,3.5,0,0,0,.5,1.8,3,3,0,0,0,1.2,1.3,3.3,3.3,0,0,0,1.7.4,3.2,3.2,0,0,0,2.2-.7,3.5,3.5,0,0,0,1-2h-3.7v-1.3h5.4V133a6,6,0,0,1-.8,2.1,6.1,6.1,0,0,1-1.7,1.5,4.8,4.8,0,0,1-2.4.6,4.3,4.3,0,0,1-2.5-.7,4.2,4.2,0,0,1-1.8-1.7,4.8,4.8,0,0,1-.7-2.6A4.4,4.4,0,0,1,163.6,129.6Z" transform="translate(-25.2 -101.4)"/><path class="cls-2" d="M174.3,131.1a3.8,3.8,0,0,1,1.4-1.4,2.9,2.9,0,0,1,1.8-.5,3.1,3.1,0,0,1,2.7,1.2v-1.1h1.7v7.8h-1.7v-1.2a2.7,2.7,0,0,1-1.1,1,3.8,3.8,0,0,1-1.6.3,2.7,2.7,0,0,1-1.8-.5,3.8,3.8,0,0,1-1.4-1.4,4.9,4.9,0,0,1-.4-2.1A4.6,4.6,0,0,1,174.3,131.1Zm5.6.7a2,2,0,0,0-.9-.9,2,2,0,0,0-1.1-.3,2.7,2.7,0,0,0-1.2.3,3.8,3.8,0,0,0-.9.9,2.9,2.9,0,0,0-.3,1.4,3.2,3.2,0,0,0,.3,1.4,3.8,3.8,0,0,0,.9.9l1.2.3a2,2,0,0,0,1.1-.3,2,2,0,0,0,.9-.9,3.4,3.4,0,0,0,0-2.8Z" transform="translate(-25.2 -101.4)"/><path class="cls-2" d="M195.1,129.5a3.2,3.2,0,0,1,1.6,3v4.6h-1.6v-4.4a2.5,2.5,0,0,0-.5-1.6,2.5,2.5,0,0,0-1.5-.5,2,2,0,0,0-1.4.5,2.1,2.1,0,0,0-.5,1.6v4.4h-1.6v-4.4a2.1,2.1,0,0,0-.6-1.6,2.2,2.2,0,0,0-2.8,0,2.1,2.1,0,0,0-.6,1.6v4.4H184v-7.8h1.6v.9a3.9,3.9,0,0,1,1-.8l1.3-.2a3.1,3.1,0,0,1,1.7.4,2,2,0,0,1,1.1,1.1,3.2,3.2,0,0,1,1.2-1.1,2.9,2.9,0,0,1,1.6-.4A4.1,4.1,0,0,1,195.1,129.5Z" transform="translate(-25.2 -101.4)"/><path class="cls-2" d="M201.5,129.5a4.1,4.1,0,0,1,1.6-.3,3.2,3.2,0,0,1,1.9.5,3.5,3.5,0,0,1,1.3,1.4,4.6,4.6,0,0,1,.5,2.1,5,5,0,0,1-.5,2.1,3.5,3.5,0,0,1-1.3,1.4,3.2,3.2,0,0,1-1.9.5,3.8,3.8,0,0,1-1.6-.3,3.5,3.5,0,0,1-1.1-.9v1.1h-1.6V126.6h1.6v3.9A2.7,2.7,0,0,1,201.5,129.5Zm3.3,2.3a2,2,0,0,0-.9-.9,2.4,2.4,0,0,0-1.2-.3,2,2,0,0,0-1.1.3,2,2,0,0,0-.9.9,3.4,3.4,0,0,0,0,2.8,2,2,0,0,0,.9.9,2,2,0,0,0,1.1.3,2.4,2.4,0,0,0,1.2-.3,2,2,0,0,0,.9-.9,3.2,3.2,0,0,0,.3-1.4A2.9,2.9,0,0,0,204.8,131.8Z" transform="translate(-25.2 -101.4)"/><path class="cls-2" d="M215.5,133.7h-6a2.2,2.2,0,0,0,.7,1.6,2.2,2.2,0,0,0,3.4-.5h1.7a2.7,2.7,0,0,1-1.3,1.7,4.2,4.2,0,0,1-4.3.2,3.8,3.8,0,0,1-1.4-1.4,4.7,4.7,0,0,1,0-4.2,3.2,3.2,0,0,1,1.4-1.4,3.5,3.5,0,0,1,2-.5,4.2,4.2,0,0,1,2,.4A3.5,3.5,0,0,1,215,131a3.3,3.3,0,0,1,.5,2Zm-1.7-1.1a1.8,1.8,0,0,0-.6-1.5,2.2,2.2,0,0,0-3,0,2.1,2.1,0,0,0-.7,1.5Z" transform="translate(-25.2 -101.4)"/><path class="cls-2" d="M218.7,126.6v10.5h-1.6V126.6Z" transform="translate(-25.2 -101.4)"/><path class="cls-2" d="M220.8,131.1a3.2,3.2,0,0,1,1.4-1.4,2.7,2.7,0,0,1,1.8-.5,3.8,3.8,0,0,1,1.6.3,3.5,3.5,0,0,1,1.1.9v-1.1h1.7v7.8h-1.7v-1.2a2.7,2.7,0,0,1-1.1,1,4.1,4.1,0,0,1-1.6.3,3.2,3.2,0,0,1-1.9-.5,3.5,3.5,0,0,1-1.3-1.4,5,5,0,0,1-.5-2.1A4.6,4.6,0,0,1,220.8,131.1Zm5.6.7a2,2,0,0,0-.9-.9,2,2,0,0,0-1.1-.3,2.4,2.4,0,0,0-1.2.3,2,2,0,0,0-.9.9,2.9,2.9,0,0,0-.3,1.4,3.2,3.2,0,0,0,.3,1.4,2,2,0,0,0,.9.9l1.2.3a2,2,0,0,0,1.1-.3,2,2,0,0,0,.9-.9,3.4,3.4,0,0,0,0-2.8Z" transform="translate(-25.2 -101.4)"/><path class="cls-2" d="M239.9,137.1l-2.3-3.9h-1.2v3.9h-1.7v-9.9h3.4a5.9,5.9,0,0,1,2,.4,2.9,2.9,0,0,1,1.1,1.1,2.8,2.8,0,0,1,.4,1.5,3.1,3.1,0,0,1-.5,1.8,3.2,3.2,0,0,1-1.7,1l2.4,4.1Zm-3.5-5.2h1.7a1.8,1.8,0,0,0,1.4-.5,1.7,1.7,0,0,0,0-2.4,1.8,1.8,0,0,0-1.4-.5h-1.7Z" transform="translate(-25.2 -101.4)"/><path class="cls-2" d="M250.8,133.7h-6a2.6,2.6,0,0,0,.7,1.6,2.3,2.3,0,0,0,1.6.6,1.9,1.9,0,0,0,1.8-1.1h1.8a3.7,3.7,0,0,1-1.3,1.7,3.5,3.5,0,0,1-2.3.7,3.3,3.3,0,0,1-2-.5,3.2,3.2,0,0,1-1.4-1.4,4.7,4.7,0,0,1,0-4.2,2.9,2.9,0,0,1,1.3-1.4,3.6,3.6,0,0,1,2.1-.5,3.8,3.8,0,0,1,1.9.4,3.8,3.8,0,0,1,1.4,1.4,4.2,4.2,0,0,1,.5,2A1.5,1.5,0,0,1,250.8,133.7Zm-1.6-1.1a1.8,1.8,0,0,0-.6-1.5,2.5,2.5,0,0,0-1.6-.6,2,2,0,0,0-1.5.6,2.1,2.1,0,0,0-.7,1.5Z" transform="translate(-25.2 -101.4)"/><path class="cls-2" d="M257.2,129.5a3.5,3.5,0,0,1,1.1.9v-1.1H260v7.9a4.2,4.2,0,0,1-.5,2,3.3,3.3,0,0,1-1.3,1.3,4.6,4.6,0,0,1-2.1.5,4.5,4.5,0,0,1-2.6-.8,2.7,2.7,0,0,1-1.2-2h1.6a1.9,1.9,0,0,0,.8,1,3.3,3.3,0,0,0,1.4.4,2.1,2.1,0,0,0,1.6-.6,2.4,2.4,0,0,0,.6-1.8v-1.3a3.6,3.6,0,0,1-1.1,1,4.1,4.1,0,0,1-1.6.3,3.2,3.2,0,0,1-1.9-.5,3.5,3.5,0,0,1-1.3-1.4,5,5,0,0,1-.5-2.1,4.6,4.6,0,0,1,.5-2.1,3.5,3.5,0,0,1,1.3-1.4,3.2,3.2,0,0,1,1.9-.5A3.8,3.8,0,0,1,257.2,129.5Zm.8,2.3a2,2,0,0,0-.9-.9,2,2,0,0,0-1.1-.3,2.1,2.1,0,0,0-1.2.3,2,2,0,0,0-.9.9,2.9,2.9,0,0,0-.3,1.4,3.2,3.2,0,0,0,.3,1.4,2,2,0,0,0,.9.9,2.4,2.4,0,0,0,1.2.3,2,2,0,0,0,1.1-.3,2,2,0,0,0,.9-.9,3.4,3.4,0,0,0,0-2.8Z" transform="translate(-25.2 -101.4)"/><path class="cls-2" d="M262.2,128a1.1,1.1,0,0,1-.3-.8,1,1,0,0,1,2,0,1.1,1.1,0,0,1-.3.8,1,1,0,0,1-1.4,0Zm1.5,1.3v7.8h-1.6v-7.8Z" transform="translate(-25.2 -101.4)"/><path class="cls-2" d="M267.2,136.7a3.8,3.8,0,0,1-1.4-1.4,4.7,4.7,0,0,1,0-4.2,4,4,0,0,1,1.5-1.4,3.3,3.3,0,0,1,2-.5,3.5,3.5,0,0,1,2,.5,4,4,0,0,1,1.5,1.4,4.6,4.6,0,0,1,.5,2.1,3.7,3.7,0,0,1-.6,2.1,3.2,3.2,0,0,1-1.4,1.4,3.8,3.8,0,0,1-2.1.5A3.5,3.5,0,0,1,267.2,136.7Zm3.2-1.1c.4-.2.6-.6.9-1a2.9,2.9,0,0,0,.3-1.4,3.3,3.3,0,0,0-.3-1.5,2,2,0,0,0-.9-.9,2,2,0,0,0-1.1-.3,2.1,2.1,0,0,0-2,1.2,3.3,3.3,0,0,0-.4,1.5,2.6,2.6,0,0,0,.4,1.5,1.8,1.8,0,0,0,.8.9,2,2,0,0,0,1.1.3A2.7,2.7,0,0,0,270.4,135.6Z" transform="translate(-25.2 -101.4)"/><path class="cls-2" d="M280.5,129.5a3.2,3.2,0,0,1,1.1,1.2,3.4,3.4,0,0,1,.4,1.8v4.6h-1.6v-4.4a2.1,2.1,0,0,0-.5-1.6,2,2,0,0,0-1.4-.5,2.5,2.5,0,0,0-1.5.5,2.5,2.5,0,0,0-.5,1.6v4.4h-1.6v-7.8h1.6v.9a3.9,3.9,0,0,1,1-.8l1.3-.2A4.7,4.7,0,0,1,280.5,129.5Z" transform="translate(-25.2 -101.4)"/><path class="cls-2" d="M287.1,125.2a12,12,0,0,1,1.3,2.8,11.8,11.8,0,0,1,0,6.8,12,12,0,0,1-1.3,2.8,8.1,8.1,0,0,1-2,2.1h-1.7a10.1,10.1,0,0,0,2.9-3.7,10.6,10.6,0,0,0,0-9,10.1,10.1,0,0,0-2.9-3.7h1.7A8.1,8.1,0,0,1,287.1,125.2Z" transform="translate(-25.2 -101.4)"/></svg>