<svg id="Layer_1" data-name="Layer 1" xmlns="http://www.w3.org/2000/svg" viewBox="0 0 275.7 46.5"><defs><style>.cls-1{fill:#c9a34b;}.cls-2{fill:#fff;}</style></defs><path class="cls-1" d="M105.9,126a2.8,2.8,0,0,0,1.1-.8,1.8,1.8,0,0,0,.4-1.3,2,2,0,0,0-.3-1.1,2.8,2.8,0,0,0-1-.9,4.1,4.1,0,0,0-1.6-.3h-3.4v8.9h3.6a3.3,3.3,0,0,0,1.5-.3,2.1,2.1,0,0,0,1-.8,2,2,0,0,0,.4-1.3,2.4,2.4,0,0,0-.5-1.4A1.9,1.9,0,0,0,105.9,126Zm-3.3-3.2h1.8a1.8,1.8,0,0,1,1.1.3,1.4,1.4,0,0,1,0,2,1.8,1.8,0,0,1-1.1.3h-1.8Zm3.1,6.2a1.6,1.6,0,0,1-1.2.4h-1.9v-2.8h1.9a2.1,2.1,0,0,1,1.2.3,1.5,1.5,0,0,1,.4,1.1A1.2,1.2,0,0,1,105.7,129Z" transform="translate(-25.2 -98.3)"/><path class="cls-1" d="M114.5,127.3a2.1,2.1,0,0,1-.5,1.5,2,2,0,0,1-1.5.5,1.8,1.8,0,0,1-1.5-.5,1.7,1.7,0,0,1-.5-1.5v-5.7H109v5.7a3.5,3.5,0,0,0,1.7,3,4.8,4.8,0,0,0,1.8.3,4.7,4.7,0,0,0,1.7-.3,3,3,0,0,0,1.3-1.2,3.5,3.5,0,0,0,.5-1.8v-5.7h-1.5Z" transform="translate(-25.2 -98.3)"/><path class="cls-1" d="M122.3,125.9l-1.5-.5-1-.3-.7-.4a1.4,1.4,0,0,1-.2-.7,1.3,1.3,0,0,1,.4-1,1.5,1.5,0,0,1,1-.3,1.2,1.2,0,0,1,1.1.4,1,1,0,0,1,.5.8h1.6a2.6,2.6,0,0,0-.9-1.7,3.1,3.1,0,0,0-2.1-.7,3.8,3.8,0,0,0-1.6.3,2,2,0,0,0-1.1.9,2.1,2.1,0,0,0-.4,1.4,1.8,1.8,0,0,0,.4,1.3,2,2,0,0,0,.9.7l1.4.5,1.1.3a1.8,1.8,0,0,1,.7.5,1.4,1.4,0,0,1,.2.7,1.3,1.3,0,0,1-.4,1,2.1,2.1,0,0,1-1.2.4,1.8,1.8,0,0,1-1.1-.4,1.9,1.9,0,0,1-.5-1h-1.5a2,2,0,0,0,.4,1.3,2.4,2.4,0,0,0,1.1.9,4.1,4.1,0,0,0,1.6.3,4.3,4.3,0,0,0,1.7-.3,3.2,3.2,0,0,0,1-1,2,2,0,0,0,.4-1.3,1.8,1.8,0,0,0-.4-1.3A2.3,2.3,0,0,0,122.3,125.9Z" transform="translate(-25.2 -98.3)"/><rect class="cls-1" x="99.9" y="23.3" width="1.5" height="8.92"/><polygon class="cls-1" points="108.6 29.9 104.2 23.3 102.7 23.3 102.7 32.2 104.2 32.2 104.2 25.6 108.6 32.2 110 32.2 110 23.3 108.6 23.3 108.6 29.9"/><polygon class="cls-1" points="111.4 32.2 116.4 32.2 116.4 31.1 112.9 31.1 112.9 28.3 116 28.3 116 27.1 112.9 27.1 112.9 24.4 116.4 24.4 116.4 23.3 111.4 23.3 111.4 32.2"/><path class="cls-1" d="M147.8,125.9l-1.4-.5-1.1-.3-.6-.4a.8.8,0,0,1-.2-.7,1.7,1.7,0,0,1,.3-1,1.8,1.8,0,0,1,1.1-.3,1.5,1.5,0,0,1,1.1.4,1.4,1.4,0,0,1,.5.8h1.6a2.6,2.6,0,0,0-.9-1.7,3.2,3.2,0,0,0-2.2-.7,4.1,4.1,0,0,0-1.6.3,3.1,3.1,0,0,0-1.1.9,2.9,2.9,0,0,0-.3,1.4,2.5,2.5,0,0,0,.3,1.3,2.3,2.3,0,0,0,1,.7l1.4.5,1.1.3a1.5,1.5,0,0,1,.6.5.9.9,0,0,1,.3.7,1.3,1.3,0,0,1-.4,1,2.1,2.1,0,0,1-1.2.4,1.6,1.6,0,0,1-1.1-.4,1.4,1.4,0,0,1-.5-1h-1.6a2.8,2.8,0,0,0,.4,1.3,2.7,2.7,0,0,0,1.2.9,4.1,4.1,0,0,0,1.6.3,3.8,3.8,0,0,0,1.6-.3,2.7,2.7,0,0,0,1.1-1,2,2,0,0,0,.4-1.3,2.5,2.5,0,0,0-.4-1.3A2.5,2.5,0,0,0,147.8,125.9Z" transform="translate(-25.2 -98.3)"/><path class="cls-1" d="M156.4,126.7a2.3,2.3,0,0,0-.9-.8l-1.5-.5-1-.3-.7-.4a1.4,1.4,0,0,1-.2-.7,1.3,1.3,0,0,1,.4-1,1.5,1.5,0,0,1,1-.3,1.2,1.2,0,0,1,1.1.4,1,1,0,0,1,.5.8h1.6a2.6,2.6,0,0,0-.9-1.7,3.1,3.1,0,0,0-2.1-.7,3.8,3.8,0,0,0-1.6.3,2,2,0,0,0-1.1.9,2.1,2.1,0,0,0-.4,1.4,1.8,1.8,0,0,0,.4,1.3,2,2,0,0,0,.9.7l1.4.5,1.1.3a1.8,1.8,0,0,1,.7.5,1.4,1.4,0,0,1,.2.7,1.3,1.3,0,0,1-.4,1,2.1,2.1,0,0,1-1.2.4,1.8,1.8,0,0,1-1.1-.4,1.9,1.9,0,0,1-.5-1h-1.5a2,2,0,0,0,.4,1.3,2.4,2.4,0,0,0,1.1.9,4.1,4.1,0,0,0,1.6.3,4.3,4.3,0,0,0,1.7-.3,3.2,3.2,0,0,0,1-1,2,2,0,0,0,.4-1.3A1.8,1.8,0,0,0,156.4,126.7Z" transform="translate(-25.2 -98.3)"/><path class="cls-1" d="M105.2,139.9h3.3a3.1,3.1,0,0,1-.9,1.9,2.9,2.9,0,0,1-1.9.6,2.7,2.7,0,0,1-1.6-.4,2.3,2.3,0,0,1-1.1-1.1,3.8,3.8,0,0,1,0-3.4,2.3,2.3,0,0,1,1.1-1.1,2.7,2.7,0,0,1,1.6-.4,2.5,2.5,0,0,1,2.4,1.3h1.7a4.5,4.5,0,0,0-1.6-2,5.2,5.2,0,0,0-2.5-.7,4.4,4.4,0,0,0-2.3.6,5.2,5.2,0,0,0-1.7,1.6,4.8,4.8,0,0,0-.6,2.4,4.1,4.1,0,0,0,.6,2.3,4.6,4.6,0,0,0,1.7,1.7,4.4,4.4,0,0,0,2.3.6,3.9,3.9,0,0,0,2.1-.6,4,4,0,0,0,1.5-1.4,4.1,4.1,0,0,0,.8-1.9v-1.1h-4.9Z" transform="translate(-25.2 -98.3)"/><path class="cls-1" d="M117.2,139.1a3,3,0,0,0,.5-1.6,2.8,2.8,0,0,0-.3-1.3,2.7,2.7,0,0,0-1.1-1,4.7,4.7,0,0,0-1.7-.4h-3.1v9h1.4v-3.6h1.2l2,3.6h1.8l-2.2-3.7A2.4,2.4,0,0,0,117.2,139.1Zm-4.3-.1v-3h1.7a1.6,1.6,0,0,1,1.2.4,1.2,1.2,0,0,1,.4,1.1,1.4,1.4,0,0,1-.4,1.1,1.6,1.6,0,0,1-1.2.4Z" transform="translate(-25.2 -98.3)"/><path class="cls-1" d="M126.1,135.2a4.4,4.4,0,0,0-2.3-.6,4.6,4.6,0,0,0-2.3.6,4.1,4.1,0,0,0-1.6,1.6,4.8,4.8,0,0,0-.6,2.4,4.8,4.8,0,0,0,2.2,4,4.6,4.6,0,0,0,2.3.6,4.4,4.4,0,0,0,2.3-.6,4.6,4.6,0,0,0,1.7-1.7,4.4,4.4,0,0,0,.6-2.3,4.8,4.8,0,0,0-.6-2.4A4.4,4.4,0,0,0,126.1,135.2Zm.4,5.7a2.3,2.3,0,0,1-1.1,1.1,3.4,3.4,0,0,1-3.2,0,2.2,2.2,0,0,1-1-1.1,3.3,3.3,0,0,1-.4-1.7,3.1,3.1,0,0,1,.4-1.7,2.2,2.2,0,0,1,1-1.1,3.4,3.4,0,0,1,3.2,0,2.3,2.3,0,0,1,1.1,1.1,4.3,4.3,0,0,1,.4,1.7A4.7,4.7,0,0,1,126.5,140.9Z" transform="translate(-25.2 -98.3)"/><path class="cls-1" d="M135.3,140.4a1.8,1.8,0,0,1-.6,1.5,1.7,1.7,0,0,1-1.5.5,1.6,1.6,0,0,1-1.4-.5,1.8,1.8,0,0,1-.6-1.5v-5.7h-1.4v5.7a3.4,3.4,0,0,0,.4,1.8,3,3,0,0,0,1.3,1.2,4.7,4.7,0,0,0,1.7.4,4.8,4.8,0,0,0,1.8-.4,3.7,3.7,0,0,0,1.3-1.2,3.4,3.4,0,0,0,.4-1.8v-5.7h-1.4Z" transform="translate(-25.2 -98.3)"/><path class="cls-1" d="M144,136.1a2.2,2.2,0,0,0-1-.9,4.8,4.8,0,0,0-1.8-.4h-3.1v9h1.5v-3.7h1.6a4.2,4.2,0,0,0,1.8-.3,3.6,3.6,0,0,0,1.1-1,3.1,3.1,0,0,0,.3-1.3A2.3,2.3,0,0,0,144,136.1Zm-1.5,2.5a1.7,1.7,0,0,1-1.3.4h-1.6v-3h1.6a1.7,1.7,0,0,1,1.3.4,1.6,1.6,0,0,1,.4,1.1A1.8,1.8,0,0,1,142.5,138.6Z" transform="translate(-25.2 -98.3)"/><polygon class="cls-2" points="76.2 1.5 75.9 1.5 75.9 5.1 82.6 5.1 75.9 14.7 75.9 14.7 75.9 17.7 87.8 17.7 88.1 17.7 88.1 14 81.4 14 88.1 4.5 88.1 1.5 76.2 1.5"/><path class="cls-2" d="M131,106.9h-9.3v3.4h4.1c-.3,1.1-1.9,1.9-3.3,1.9a4.4,4.4,0,0,1-4.2-4.5,4.3,4.3,0,0,1,4.2-4.5,4.1,4.1,0,0,1,3.1,1.4l.3.3,3-2.6-.3-.3a8,8,0,0,0-6.1-2.6,8.2,8.2,0,0,0-5.9,2.4,8.7,8.7,0,0,0-2.4,5.9,8.3,8.3,0,0,0,8.3,8.3h1.3a7.8,7.8,0,0,0,4.4-2,8.2,8.2,0,0,0,2.8-6.2Z" transform="translate(-25.2 -98.3)"/><polygon class="cls-1" points="60.3 1.1 55.4 1.1 53.1 1.1 49.3 17.4 49.2 17.8 42.8 45.4 45.1 45.4 50 45.4 52.4 45.4 58.8 17.8 58.9 17.4 62.7 1.1 60.3 1.1"/><polygon class="cls-1" points="56 45.4 59.8 29.2 65.8 45.4 56 45.4"/><polygon class="cls-2" points="9.9 1.1 6.1 17.3 0 1.1 9.9 1.1"/><polygon class="cls-2" points="20.7 1.1 15.8 1.1 13.4 1.1 7 28.7 7 29.1 3.2 45.4 5.5 45.4 10.4 45.4 12.8 45.4 16.6 29.1 16.7 28.7 23.1 1.1 20.7 1.1"/><polygon class="cls-2" points="33.9 1.1 29 1.1 26.7 1.1 20.3 28.7 20.2 29.1 16.4 45.4 18.7 45.4 23.6 45.4 26 45.4 29.8 29.1 29.9 28.7 36.3 1.1 33.9 1.1"/><polygon class="cls-1" points="47.1 1.1 42.2 1.1 39.9 1.1 33.5 28.7 33.4 29.1 29.6 45.4 31.9 45.4 36.8 45.4 39.2 45.4 43 29.1 43.1 28.7 49.5 1.1 47.1 1.1"/><rect class="cls-2" x="140.6" width="0.3" height="46.47"/><path class="cls-2" d="M177.1,117.5h4.1v1.8h-6.6v-1.7l4-5.7h-4V110h6.6v1.7Z" transform="translate(-25.2 -98.3)"/><path class="cls-2" d="M182.9,112.2a4.4,4.4,0,0,1,1.6-1.7,5.4,5.4,0,0,1,2.5-.6,4.9,4.9,0,0,1,2.8.8,3.6,3.6,0,0,1,1.5,2.3h-2.5a1.2,1.2,0,0,0-.7-.7,2,2,0,0,0-1.1-.3,2.9,2.9,0,0,0-1.8.7,3.2,3.2,0,0,0-.6,2,2.7,2.7,0,0,0,.7,2,2.4,2.4,0,0,0,1.9.7,2.3,2.3,0,0,0,1.4-.4,2,2,0,0,0,.8-1.3h-2.8v-1.6h4.9v2.1a5.1,5.1,0,0,1-.9,1.6,4.4,4.4,0,0,1-1.5,1.2,4.6,4.6,0,0,1-2.1.4,5.4,5.4,0,0,1-2.5-.6,4.4,4.4,0,0,1-1.6-1.7,4.8,4.8,0,0,1-.6-2.4A4.9,4.9,0,0,1,182.9,112.2Z" transform="translate(-25.2 -98.3)"/><path class="cls-2" d="M202.8,115.4a2.4,2.4,0,0,1,.5,1.4,2.3,2.3,0,0,1-.9,1.9,3.6,3.6,0,0,1-2.2.6h-4.4V110H200a2.9,2.9,0,0,1,2.2.7,1.9,1.9,0,0,1,.8,1.7,2.1,2.1,0,0,1-.4,1.4,2.8,2.8,0,0,1-1.1.8A2,2,0,0,1,202.8,115.4Zm-4.7-1.6h1.5a1.5,1.5,0,0,0,.8-.2,1.1,1.1,0,0,0,.3-.8.8.8,0,0,0-.3-.7,1,1,0,0,0-.8-.3h-1.5Zm2.6,3.5a1.1,1.1,0,0,0,.3-.8.9.9,0,0,0-.4-.8,1.2,1.2,0,0,0-.9-.3h-1.6v2.1h1.7Z" transform="translate(-25.2 -98.3)"/><path class="cls-2" d="M211.9,111.9v7.4h-2.3v-1a1.8,1.8,0,0,1-.9.8,2.8,2.8,0,0,1-1.3.3,2.4,2.4,0,0,1-1.5-.4,1.8,1.8,0,0,1-1-1.1,2.7,2.7,0,0,1-.4-1.6v-4.4h2.3V116a2,2,0,0,0,.3,1.1,1.5,1.5,0,0,0,1.1.4,1.2,1.2,0,0,0,1-.4,1.5,1.5,0,0,0,.4-1.1v-4.1Z" transform="translate(-25.2 -98.3)"/><path class="cls-2" d="M214.8,119.1a2.7,2.7,0,0,1-1.2-.9,2.9,2.9,0,0,1-.5-1.3h2.3a.9.9,0,0,0,.3.7l.8.2a.8.8,0,0,0,.7-.2.5.5,0,0,0,.2-.4.5.5,0,0,0-.3-.5l-1.1-.3-1.3-.4a2.2,2.2,0,0,1-.9-.7,1.6,1.6,0,0,1-.4-1.2,2,2,0,0,1,.3-1.1,2.4,2.4,0,0,1,1.1-.9,3.5,3.5,0,0,1,1.6-.3,3.8,3.8,0,0,1,2.2.7,3.1,3.1,0,0,1,.9,1.8h-2.1c0-.2-.2-.4-.3-.6a1.1,1.1,0,0,0-.8-.2h-.6a.8.8,0,0,0-.2.5.5.5,0,0,0,.3.5l1.1.3a4,4,0,0,1,1.3.4,1.5,1.5,0,0,1,.9.6,2.2,2.2,0,0,1,.1,2.4,2.4,2.4,0,0,1-1.1.9l-1.6.2A4.7,4.7,0,0,1,214.8,119.1Z" transform="translate(-25.2 -98.3)"/><path class="cls-2" d="M221.1,110.8a1,1,0,0,1-.4-.9.9.9,0,0,1,.4-.8,1.2,1.2,0,0,1,1-.4,1,1,0,0,1,.9.4.9.9,0,0,1,.4.8,1,1,0,0,1-.4.9,1.3,1.3,0,0,1-.9.4A1.5,1.5,0,0,1,221.1,110.8Zm2.1,1.1v7.4h-2.3v-7.4Z" transform="translate(-25.2 -98.3)"/><path class="cls-2" d="M231.4,112.7a3,3,0,0,1,.8,2.3v4.3H230v-4a1.6,1.6,0,0,0-.4-1.1,1.4,1.4,0,0,0-1.1-.5,1.4,1.4,0,0,0-1,.5,1.2,1.2,0,0,0-.4,1.1v4h-2.3v-7.4h2.3v1a3.4,3.4,0,0,1,.9-.8,3.2,3.2,0,0,1,1.4-.2A2.4,2.4,0,0,1,231.4,112.7Z" transform="translate(-25.2 -98.3)"/><path class="cls-2" d="M240.7,116.2h-5.1a1.5,1.5,0,0,0,.4,1,1.3,1.3,0,0,0,1,.4,1.1,1.1,0,0,0,1.2-.7h2.4a2.4,2.4,0,0,1-.7,1.3,2.7,2.7,0,0,1-1.2.9,4.1,4.1,0,0,1-1.6.3,4.5,4.5,0,0,1-2-.4,4,4,0,0,1-1.3-1.3,4.6,4.6,0,0,1-.5-2.1,4.6,4.6,0,0,1,.5-2,3.3,3.3,0,0,1,1.3-1.3,4.2,4.2,0,0,1,2-.5,4.1,4.1,0,0,1,1.9.5,2.7,2.7,0,0,1,1.3,1.3,3.8,3.8,0,0,1,.5,1.9A2,2,0,0,1,240.7,116.2Zm-2.2-1.2a1.5,1.5,0,0,0-.4-1,1.8,1.8,0,0,0-1-.4,1.5,1.5,0,0,0-1,.4,1.6,1.6,0,0,0-.5,1Z" transform="translate(-25.2 -98.3)"/><path class="cls-2" d="M243.3,119.1a2.7,2.7,0,0,1-1.2-.9,2.1,2.1,0,0,1-.5-1.3h2.2a1,1,0,0,0,.4.7,1.5,1.5,0,0,0,.8.2c.2,0,.5,0,.6-.2s.2-.2.2-.4a.5.5,0,0,0-.3-.5l-1.1-.3-1.3-.4-.9-.7a1.6,1.6,0,0,1-.4-1.2,1.5,1.5,0,0,1,.4-1.1,2.2,2.2,0,0,1,1-.9,4.1,4.1,0,0,1,1.6-.3,3.4,3.4,0,0,1,2.2.7,2.3,2.3,0,0,1,.9,1.8h-2.1a.9.9,0,0,0-.3-.6.8.8,0,0,0-.7-.2h-.7a.8.8,0,0,0-.2.5.5.5,0,0,0,.4.5l1,.3,1.4.4a2.4,2.4,0,0,1,.9.6,2.8,2.8,0,0,1,.4,1.3,2.1,2.1,0,0,1-.4,1.1,2.2,2.2,0,0,1-1,.9l-1.6.2A4.3,4.3,0,0,1,243.3,119.1Z" transform="translate(-25.2 -98.3)"/><path class="cls-2" d="M250.7,119.1a2.7,2.7,0,0,1-1.2-.9,2.1,2.1,0,0,1-.5-1.3h2.2a1,1,0,0,0,.4.7,1.5,1.5,0,0,0,.8.2c.2,0,.5,0,.6-.2s.3-.2.3-.4a.7.7,0,0,0-.4-.5l-1.1-.3-1.3-.4-.9-.7a2.1,2.1,0,0,1-.4-1.2,1.5,1.5,0,0,1,.4-1.1,2.2,2.2,0,0,1,1-.9,4.1,4.1,0,0,1,1.6-.3,3.4,3.4,0,0,1,2.2.7,2.3,2.3,0,0,1,.9,1.8h-2l-.4-.6a.8.8,0,0,0-.7-.2h-.6a.5.5,0,0,0-.3.5.7.7,0,0,0,.4.5l1,.3,1.4.4a2.4,2.4,0,0,1,.9.6,2.8,2.8,0,0,1,.4,1.3,1.5,1.5,0,0,1-.4,1.1,2.2,2.2,0,0,1-1,.9l-1.6.2A4.3,4.3,0,0,1,250.7,119.1Z" transform="translate(-25.2 -98.3)"/><path class="cls-2" d="M260.1,112.2a4.4,4.4,0,0,1,1.6-1.7,5.4,5.4,0,0,1,2.5-.6,4.9,4.9,0,0,1,2.8.8,3.6,3.6,0,0,1,1.5,2.3H266a1.2,1.2,0,0,0-.7-.7,2,2,0,0,0-1.1-.3,2.9,2.9,0,0,0-1.8.7,3.2,3.2,0,0,0-.6,2,2.7,2.7,0,0,0,.7,2,2.4,2.4,0,0,0,1.9.7,2.3,2.3,0,0,0,1.4-.4,2,2,0,0,0,.8-1.3h-2.8v-1.6h4.9v2.1a5.1,5.1,0,0,1-.9,1.6,4.4,4.4,0,0,1-1.5,1.2,4.6,4.6,0,0,1-2.1.4,4.8,4.8,0,0,1-2.4-.6,4,4,0,0,1-1.7-1.7,4.8,4.8,0,0,1-.6-2.4A4.9,4.9,0,0,1,260.1,112.2Z" transform="translate(-25.2 -98.3)"/><path class="cls-2" d="M273.2,112.2a3.2,3.2,0,0,1,1.4-.3v2.4h-.7a1.9,1.9,0,0,0-1.2.3,1.7,1.7,0,0,0-.5,1.3v3.4H270v-7.4h2.2v1.4A3.6,3.6,0,0,1,273.2,112.2Z" transform="translate(-25.2 -98.3)"/><path class="cls-2" d="M277.1,119a3.5,3.5,0,0,1-1.4-1.3,4.6,4.6,0,0,1-.5-2.1,4.6,4.6,0,0,1,.5-2,2.9,2.9,0,0,1,1.4-1.3,4.1,4.1,0,0,1,1.9-.5,4.2,4.2,0,0,1,2,.5,2.9,2.9,0,0,1,1.4,1.3,4.6,4.6,0,0,1,.5,2,3.9,3.9,0,0,1-.5,2A3.8,3.8,0,0,1,281,119a4.5,4.5,0,0,1-2,.4A3.8,3.8,0,0,1,277.1,119Zm3-2a2,2,0,0,0,.5-1.4,1.7,1.7,0,0,0-.5-1.3,1.2,1.2,0,0,0-1.1-.5,1.3,1.3,0,0,0-1.1.5,1.7,1.7,0,0,0-.4,1.3,2,2,0,0,0,.4,1.4,1.6,1.6,0,0,0,1.1.5A1.4,1.4,0,0,0,280.1,117Z" transform="translate(-25.2 -98.3)"/><path class="cls-2" d="M291.4,111.9v7.4h-2.3v-1a1.8,1.8,0,0,1-.9.8,2.8,2.8,0,0,1-1.3.3,2.4,2.4,0,0,1-1.5-.4,2.2,2.2,0,0,1-1-1.1,3.8,3.8,0,0,1-.4-1.6v-4.4h2.3V116a1.5,1.5,0,0,0,.4,1.1,1.2,1.2,0,0,0,1,.4,1.4,1.4,0,0,0,1.1-.4,2,2,0,0,0,.3-1.1v-4.1Z" transform="translate(-25.2 -98.3)"/><path class="cls-2" d="M296.2,112.1a3.2,3.2,0,0,1,1.4-.3,3.4,3.4,0,0,1,1.7.5,2.8,2.8,0,0,1,1.1,1.3,4.6,4.6,0,0,1,.5,2,3.9,3.9,0,0,1-.5,2,3.1,3.1,0,0,1-1.1,1.4,3.3,3.3,0,0,1-1.7.4,3.2,3.2,0,0,1-1.4-.3,2.4,2.4,0,0,1-.9-.8v4.6H293v-11h2.3V113A2.6,2.6,0,0,1,296.2,112.1Zm1.9,2.2a1.7,1.7,0,0,0-1.2-.5,1.6,1.6,0,0,0-1.1.5,1.9,1.9,0,0,0-.5,1.3,2.2,2.2,0,0,0,.5,1.4,1.6,1.6,0,0,0,1.1.5,1.7,1.7,0,0,0,1.2-.5,2.2,2.2,0,0,0,.5-1.4A1.9,1.9,0,0,0,298.1,114.3Z" transform="translate(-25.2 -98.3)"/><path class="cls-2" d="M180.5,133.2h-3.4l-.6,1.6h-2.4l3.4-9.3h2.6l3.4,9.3h-2.4Zm-.5-1.7-1.2-3.5-1.2,3.5Z" transform="translate(-25.2 -98.3)"/><path class="cls-2" d="M188.7,127.6a2,2,0,0,1,.9.9v-1.1h2.3v7.4a5.8,5.8,0,0,1-.4,1.9,3.3,3.3,0,0,1-1.3,1.3,3.9,3.9,0,0,1-2,.5,4.6,4.6,0,0,1-2.7-.8,2.8,2.8,0,0,1-1.2-2.1h2.3a1.2,1.2,0,0,0,.5.7l1,.2a1.5,1.5,0,0,0,1.1-.4,1.7,1.7,0,0,0,.4-1.3v-1a2.4,2.4,0,0,1-.9.8,2.9,2.9,0,0,1-1.4.3,2.9,2.9,0,0,1-1.6-.4,4.1,4.1,0,0,1-1.2-1.4,5.2,5.2,0,0,1,0-4,3.3,3.3,0,0,1,2.8-1.8A2.9,2.9,0,0,1,188.7,127.6Zm.4,2.2a1.6,1.6,0,0,0-1.1-.5,1.8,1.8,0,0,0-1.2.5,1.7,1.7,0,0,0-.4,1.3,2.1,2.1,0,0,0,.4,1.4,1.8,1.8,0,0,0,1.2.5,1.6,1.6,0,0,0,1.1-.5,1.7,1.7,0,0,0,.5-1.4A1.5,1.5,0,0,0,189.1,129.8Z" transform="translate(-25.2 -98.3)"/><path class="cls-2" d="M196.8,127.7a2.8,2.8,0,0,1,1.3-.4v2.4h-.6a2.2,2.2,0,0,0-1.3.4c-.3.2-.4.7-.4,1.3v3.4h-2.3v-7.4h2.3v1.3Z" transform="translate(-25.2 -98.3)"/><path class="cls-2" d="M200.6,134.5a2.9,2.9,0,0,1-1.3-1.4,3.1,3.1,0,0,1-.5-2,3.5,3.5,0,0,1,.5-2,3.3,3.3,0,0,1,1.3-1.3,4.2,4.2,0,0,1,4,0,3.5,3.5,0,0,1,1.4,1.3,4.6,4.6,0,0,1,.5,2,3.2,3.2,0,0,1-.6,2,3.5,3.5,0,0,1-1.3,1.4,5.2,5.2,0,0,1-4,0Zm3.1-2a2,2,0,0,0,.4-1.4,2.1,2.1,0,0,0-.4-1.4,1.7,1.7,0,0,0-2.2,0,2.1,2.1,0,0,0-.4,1.4,2,2,0,0,0,.4,1.4,1.4,1.4,0,0,0,1.1.5A1.6,1.6,0,0,0,203.7,132.5Z" transform="translate(-25.2 -98.3)"/><path class="cls-2" d="M213,125.5v9.3h-2.3v-9.3Z" transform="translate(-25.2 -98.3)"/><path class="cls-2" d="M221.2,128.2a2.8,2.8,0,0,1,.8,2.3v4.3h-2.2v-4a2.1,2.1,0,0,0-.4-1.2,1.8,1.8,0,0,0-1.1-.4,1.8,1.8,0,0,0-1,.4,1.6,1.6,0,0,0-.4,1.2v4h-2.3v-7.4h2.3v1a3.4,3.4,0,0,1,.9-.8,3.2,3.2,0,0,1,1.4-.3A2.5,2.5,0,0,1,221.2,128.2Z" transform="translate(-25.2 -98.3)"/><path class="cls-2" d="M223.6,129.1a3,3,0,0,1,1.2-1.3,2.9,2.9,0,0,1,2.9-.2,2.7,2.7,0,0,1,1,.8V125H231v9.8h-2.3v-1a2.4,2.4,0,0,1-.9.8,3.2,3.2,0,0,1-1.4.3,2.7,2.7,0,0,1-1.6-.4,4.1,4.1,0,0,1-1.2-1.4,4.3,4.3,0,0,1,0-4Zm4.6.7a1.6,1.6,0,0,0-1.1-.5,1.7,1.7,0,0,0-1.2.5,1.7,1.7,0,0,0-.4,1.3,2.1,2.1,0,0,0,.4,1.4,1.7,1.7,0,0,0,1.2.5,1.6,1.6,0,0,0,1.1-.5,2.2,2.2,0,0,0,.5-1.4A1.9,1.9,0,0,0,228.2,129.8Z" transform="translate(-25.2 -98.3)"/><path class="cls-2" d="M239.9,127.4v7.4h-2.2v-1a3.9,3.9,0,0,1-1,.8,2.8,2.8,0,0,1-1.3.3,2.4,2.4,0,0,1-1.5-.4,2.2,2.2,0,0,1-1-1.1,3.9,3.9,0,0,1-.4-1.7v-4.3h2.3v4a1.6,1.6,0,0,0,.4,1.2,1.2,1.2,0,0,0,1,.4,1.4,1.4,0,0,0,1.1-.4,2.1,2.1,0,0,0,.4-1.2v-4Z" transform="translate(-25.2 -98.3)"/><path class="cls-2" d="M242.8,134.6a2.7,2.7,0,0,1-1.2-.9,2.8,2.8,0,0,1-.4-1.3h2.2a.8.8,0,0,0,.4.7l.7.2.7-.2c.2-.1.2-.2.2-.4a.5.5,0,0,0-.3-.5l-1.1-.3-1.3-.4a2.2,2.2,0,0,1-.9-.7,1.6,1.6,0,0,1-.4-1.2,1.5,1.5,0,0,1,.4-1.1,1.8,1.8,0,0,1,1-.9,3.8,3.8,0,0,1,1.6-.3,3.1,3.1,0,0,1,2.2.7,3.1,3.1,0,0,1,.9,1.8h-2.1a.7.7,0,0,0-.3-.6c-.2-.2-.4-.2-.8-.2h-.6a.8.8,0,0,0-.2.5c0,.2.1.3.4.4a1.9,1.9,0,0,0,1,.4l1.4.4a2.4,2.4,0,0,1,.9.6,2.2,2.2,0,0,1,.4,1.3,2.1,2.1,0,0,1-.4,1.1,2,2,0,0,1-1,.8,4.1,4.1,0,0,1-1.6.3A4.8,4.8,0,0,1,242.8,134.6Z" transform="translate(-25.2 -98.3)"/><path class="cls-2" d="M253.1,132.9v1.9h-1.2a2.9,2.9,0,0,1-1.9-.6,2.7,2.7,0,0,1-.7-2v-2.9h-.9v-1.9h.9v-1.8h2.3v1.8h1.5v1.9h-1.5v3c0,.2,0,.4.2.5h1.3Z" transform="translate(-25.2 -98.3)"/><path class="cls-2" d="M257.6,127.7a3.3,3.3,0,0,1,1.3-.4v2.4h-.6a2.5,2.5,0,0,0-1.3.4,2,2,0,0,0-.4,1.3v3.4h-2.2v-7.4h2.2v1.3A4.7,4.7,0,0,1,257.6,127.7Z" transform="translate(-25.2 -98.3)"/><path class="cls-2" d="M261.7,127.4l1.7,4.7,1.7-4.7h2.5L263,138.3h-2.5l1.7-3.7-3-7.2Z" transform="translate(-25.2 -98.3)"/><path class="cls-2" d="M278.2,130a2.9,2.9,0,0,1-1.1,1.1,5.3,5.3,0,0,1-1.9.4h-1.4v3.3h-2.3v-9.3h3.7a4.1,4.1,0,0,1,1.9.4,2.3,2.3,0,0,1,1.1,1.1,2.4,2.4,0,0,1,.4,1.5A2.8,2.8,0,0,1,278.2,130Zm-2.2-.6a1.5,1.5,0,0,0,0-1.8,1.5,1.5,0,0,0-1-.3h-1.2v2.4H275A1.5,1.5,0,0,0,276,129.4Z" transform="translate(-25.2 -98.3)"/><path class="cls-2" d="M282,133.1h3v1.7h-5.2v-9.3H282Z" transform="translate(-25.2 -98.3)"/><path class="cls-2" d="M286.3,127.7A4.6,4.6,0,0,1,288,126a4.8,4.8,0,0,1,2.4-.6,4.3,4.3,0,0,1,2.8.9,4,4,0,0,1,1.6,2.4h-2.5a1.8,1.8,0,0,0-.8-.9,2,2,0,0,0-1.1-.3,2.1,2.1,0,0,0-1.7.7,2.6,2.6,0,0,0-.7,2,2.5,2.5,0,0,0,.7,1.9,2.1,2.1,0,0,0,1.7.7,2,2,0,0,0,1.1-.3,1.8,1.8,0,0,0,.8-.9h2.5a4,4,0,0,1-1.6,2.4,4.3,4.3,0,0,1-2.8.9,4.8,4.8,0,0,1-2.4-.6,4.6,4.6,0,0,1-1.7-1.7,4.8,4.8,0,0,1-.6-2.4A4.9,4.9,0,0,1,286.3,127.7Z" transform="translate(-25.2 -98.3)"/></svg>