<svg id="Layer_1" data-name="Layer 1" xmlns="http://www.w3.org/2000/svg" viewBox="0 0 841.89 595.28"><defs><style>.cls-1{fill:#c9a44c;}.cls-2{fill:#0b1c2d;}</style></defs><path class="cls-1" d="M450.56,332.59a9.54,9.54,0,0,0,4.42-3,8,8,0,0,0,1.65-5.14,8.4,8.4,0,0,0-1.34-4.65,9.2,9.2,0,0,0-4-3.32,14.67,14.67,0,0,0-6.27-1.23H431.45v35.72h14.28a14.42,14.42,0,0,0,6.22-1.26,9.64,9.64,0,0,0,4.09-3.45,8.83,8.83,0,0,0,1.41-4.9,9,9,0,0,0-2-5.71A7.9,7.9,0,0,0,450.56,332.59Zm-13.25-12.8h7.24a6.58,6.58,0,0,1,4.5,1.42,4.93,4.93,0,0,1,1.62,3.93,4.79,4.79,0,0,1-1.62,3.85,6.68,6.68,0,0,1-4.5,1.39h-7.24Zm12.59,25.08a6.81,6.81,0,0,1-4.68,1.49h-7.91V335H445a7,7,0,0,1,4.78,1.57,5.87,5.87,0,0,1,.11,8.35Z"/><path class="cls-1" d="M485.12,337.88c0,2.71-.72,4.75-2.14,6.12a9.69,9.69,0,0,1-11.92,0q-2.13-2.06-2.13-6.12V315.22h-5.86v22.66a14,14,0,0,0,1.85,7.4,11.46,11.46,0,0,0,5,4.52,16.14,16.14,0,0,0,7,1.5,16.31,16.31,0,0,0,7-1.5,11.77,11.77,0,0,0,5.09-4.52,13.64,13.64,0,0,0,1.9-7.4V315.22h-5.85Z"/><path class="cls-1" d="M516.2,332.38a44.19,44.19,0,0,0-5.78-1.95,37.25,37.25,0,0,1-4.22-1.34,7,7,0,0,1-2.54-1.67,3.73,3.73,0,0,1-1-2.69,4.77,4.77,0,0,1,1.56-3.88,6.23,6.23,0,0,1,4.14-1.31,6.77,6.77,0,0,1,4.5,1.41,4.91,4.91,0,0,1,1.82,3.52h6.48a9.59,9.59,0,0,0-3.68-7.12,13.37,13.37,0,0,0-8.5-2.59,15.73,15.73,0,0,0-6.43,1.23,9.72,9.72,0,0,0-4.31,3.55,9.48,9.48,0,0,0-1.55,5.39,8.55,8.55,0,0,0,1.55,5.35,9.36,9.36,0,0,0,3.72,3,40.44,40.44,0,0,0,5.68,1.88,39.64,39.64,0,0,1,4.34,1.33,7,7,0,0,1,2.62,1.75,4.09,4.09,0,0,1,1.06,2.93,5,5,0,0,1-1.7,3.93,6.84,6.84,0,0,1-4.73,1.52,6.35,6.35,0,0,1-4.54-1.54,6,6,0,0,1-1.83-4h-6.27a9,9,0,0,0,1.65,5.39,10.53,10.53,0,0,0,4.52,3.58,16,16,0,0,0,6.47,1.26,14,14,0,0,0,6.61-1.47A10.58,10.58,0,0,0,520.1,346a9.71,9.71,0,0,0,1.47-5.14,8.66,8.66,0,0,0-1.57-5.42A9.61,9.61,0,0,0,516.2,332.38Z"/><rect class="cls-1" x="527.19" y="315.22" width="5.86" height="35.72"/><polygon class="cls-1" points="562.15 341.79 544.52 315.17 538.66 315.17 538.66 350.94 544.52 350.94 544.52 324.26 562.15 350.94 568.01 350.94 568.01 315.17 562.15 315.17 562.15 341.79"/><polygon class="cls-1" points="573.63 350.94 593.36 350.94 593.36 346.36 579.48 346.36 579.48 335.11 591.82 335.11 591.82 330.58 579.48 330.58 579.48 319.74 593.36 319.74 593.36 315.17 573.63 315.17 573.63 350.94"/><path class="cls-1" d="M618.58,332.38a43.68,43.68,0,0,0-5.78-1.95,37.65,37.65,0,0,1-4.21-1.34,7,7,0,0,1-2.55-1.67,3.78,3.78,0,0,1-1-2.69,4.74,4.74,0,0,1,1.57-3.88,6.19,6.19,0,0,1,4.14-1.31,6.73,6.73,0,0,1,4.49,1.41,4.92,4.92,0,0,1,1.83,3.52h6.47a9.58,9.58,0,0,0-3.67-7.12,13.4,13.4,0,0,0-8.51-2.59,15.71,15.71,0,0,0-6.42,1.23,9.81,9.81,0,0,0-4.32,3.55,9.47,9.47,0,0,0-1.54,5.39,8.54,8.54,0,0,0,1.54,5.35,9.39,9.39,0,0,0,3.73,3,40,40,0,0,0,5.68,1.88,40.35,40.35,0,0,1,4.34,1.33,7.1,7.1,0,0,1,2.62,1.75,4.13,4.13,0,0,1,1,2.93,5,5,0,0,1-1.69,3.93,6.86,6.86,0,0,1-4.73,1.52,6.38,6.38,0,0,1-4.55-1.54,5.93,5.93,0,0,1-1.82-4H599a9,9,0,0,0,1.64,5.39,10.59,10.59,0,0,0,4.52,3.58,16,16,0,0,0,6.48,1.26,14,14,0,0,0,6.6-1.47,10.61,10.61,0,0,0,4.27-3.88,9.79,9.79,0,0,0,1.46-5.14,8.66,8.66,0,0,0-1.56-5.42A9.71,9.71,0,0,0,618.58,332.38Z"/><path class="cls-1" d="M653,335.39a9.68,9.68,0,0,0-3.8-3,44.19,44.19,0,0,0-5.78-1.95,37.25,37.25,0,0,1-4.22-1.34,7,7,0,0,1-2.54-1.67,3.73,3.73,0,0,1-1-2.69,4.77,4.77,0,0,1,1.56-3.88,6.23,6.23,0,0,1,4.14-1.31,6.77,6.77,0,0,1,4.5,1.41,4.91,4.91,0,0,1,1.82,3.52h6.48a9.59,9.59,0,0,0-3.68-7.12,13.37,13.37,0,0,0-8.5-2.59,15.73,15.73,0,0,0-6.43,1.23,9.72,9.72,0,0,0-4.31,3.55,9.48,9.48,0,0,0-1.55,5.39,8.55,8.55,0,0,0,1.55,5.35,9.36,9.36,0,0,0,3.72,3,40.44,40.44,0,0,0,5.68,1.88,39.64,39.64,0,0,1,4.34,1.33,7,7,0,0,1,2.62,1.75,4.09,4.09,0,0,1,1.06,2.93,5,5,0,0,1-1.7,3.93,6.86,6.86,0,0,1-4.73,1.52,6.33,6.33,0,0,1-4.54-1.54,6,6,0,0,1-1.83-4h-6.27a9,9,0,0,0,1.65,5.39,10.53,10.53,0,0,0,4.52,3.58,16,16,0,0,0,6.47,1.26,14,14,0,0,0,6.61-1.47,10.58,10.58,0,0,0,4.26-3.88,9.71,9.71,0,0,0,1.47-5.14A8.66,8.66,0,0,0,653,335.39Z"/><path class="cls-1" d="M447.69,388.5H461.1a11.51,11.51,0,0,1-3.62,7.33,11.22,11.22,0,0,1-7.79,2.7,12.5,12.5,0,0,1-6.32-1.6,11.08,11.08,0,0,1-4.34-4.55,15.49,15.49,0,0,1,0-13.59,11.13,11.13,0,0,1,4.34-4.52,12.49,12.49,0,0,1,6.32-1.59,11.55,11.55,0,0,1,5.7,1.36,9.46,9.46,0,0,1,3.86,4h7a16,16,0,0,0-6.45-7.94,18.7,18.7,0,0,0-10.15-2.8,18.48,18.48,0,0,0-9.17,2.34,17.32,17.32,0,0,0-6.63,6.5,19.35,19.35,0,0,0,0,18.81,17.38,17.38,0,0,0,6.6,6.5,18.46,18.46,0,0,0,9.2,2.34,17.69,17.69,0,0,0,17.68-15.32v-4.57H447.69Z"/><path class="cls-1" d="M495.93,385.14a10.65,10.65,0,0,0,2-6.35,10.47,10.47,0,0,0-1.41-5.39,9.89,9.89,0,0,0-4.27-3.86,15.31,15.31,0,0,0-7-1.44H473v35.72h5.86V389.53h4.47l8.22,14.29h7L489.69,389A10.31,10.31,0,0,0,495.93,385.14Zm-17.08-.23V372.68h6.47a6.86,6.86,0,0,1,5,1.62,6.89,6.89,0,0,1,0,9,6.78,6.78,0,0,1-5,1.65Z"/><path class="cls-1" d="M531.61,369.62a19.24,19.24,0,0,0-18.39,0,17.25,17.25,0,0,0-6.63,6.5,19.38,19.38,0,0,0,0,18.83,17.19,17.19,0,0,0,6.63,6.53,19.24,19.24,0,0,0,18.39,0,17.07,17.07,0,0,0,6.61-6.53,19.6,19.6,0,0,0,0-18.83A17.13,17.13,0,0,0,531.61,369.62Zm1.44,22.71a11.28,11.28,0,0,1-4.34,4.58,13.14,13.14,0,0,1-12.64,0,11.28,11.28,0,0,1-4.34-4.58,14.26,14.26,0,0,1-1.57-6.81,14.08,14.08,0,0,1,1.57-6.78,11.13,11.13,0,0,1,4.34-4.52,13.28,13.28,0,0,1,12.64,0,11.13,11.13,0,0,1,4.34,4.52,14.08,14.08,0,0,1,1.57,6.78A14.26,14.26,0,0,1,533.05,392.33Z"/><path class="cls-1" d="M568.3,390.41q0,4.05-2.13,6.11a8.3,8.3,0,0,1-6,2.06,8.2,8.2,0,0,1-5.94-2.06q-2.13-2.06-2.13-6.11V367.74h-5.86v22.67a14,14,0,0,0,1.85,7.4,11.57,11.57,0,0,0,5,4.52,17.33,17.33,0,0,0,14.06,0,11.82,11.82,0,0,0,5.09-4.52,13.73,13.73,0,0,0,1.9-7.4V367.74H568.3Z"/><path class="cls-1" d="M603.34,373.34a9.81,9.81,0,0,0-4.27-3.82,15.45,15.45,0,0,0-7-1.42H579.77v35.72h5.86V389.33h6.48a15.29,15.29,0,0,0,7.25-1.52,9.66,9.66,0,0,0,4.11-3.93,10.85,10.85,0,0,0,1.28-5.14A10.51,10.51,0,0,0,603.34,373.34Zm-6.25,9.82a6.9,6.9,0,0,1-5,1.59h-6.48V372.68h6.48a6.9,6.9,0,0,1,5,1.59,6.81,6.81,0,0,1,0,8.89Z"/><polygon class="cls-2" points="432.61 227.7 431.45 227.7 431.45 242.43 458.28 242.43 431.45 280.67 431.45 280.68 431.45 292.71 478.77 292.71 479.94 292.71 479.94 277.98 453.11 277.98 479.94 239.74 479.94 227.7 432.61 227.7"/><path class="cls-2" d="M551.05,256.39c0-.08,0-.15,0-.22H514V270H530.4c-1.28,4.35-7.64,7.54-13.2,7.54-9.33,0-16.92-8.11-16.92-18.09s7.43-18,16.92-18a16.52,16.52,0,0,1,12.4,5.77l1,1.13,12-10.38-1-1.19a32.18,32.18,0,0,0-24.44-10.69,33.32,33.32,0,0,0,0,66.63,41.89,41.89,0,0,0,4.39-.22v0l.78-.1.13,0a33.29,33.29,0,0,0,28.69-32.95C551.19,258.42,551.15,257.4,551.05,256.39Z"/><polygon class="cls-1" points="369.29 226.1 349.67 226.1 340.21 226.1 325.08 291.46 324.7 293.1 299.07 403.82 308.52 403.82 328.13 403.82 337.58 403.82 363.22 293.1 363.6 291.46 378.75 226.1 369.29 226.1"/><polygon class="cls-1" points="351.95 403.82 367.04 338.69 391.45 403.82 351.95 403.82"/><polygon class="cls-2" points="167.22 226.1 152.13 291.22 127.72 226.1 167.22 226.1"/><polygon class="cls-2" points="210.65 226.1 191.04 226.1 181.59 226.1 155.95 336.82 155.57 338.45 140.42 403.82 149.88 403.82 169.5 403.82 178.96 403.82 194.09 338.45 194.47 336.82 220.1 226.1 210.65 226.1"/><polygon class="cls-2" points="263.53 226.1 243.92 226.1 234.47 226.1 208.83 336.82 208.46 338.45 193.3 403.82 202.76 403.82 222.38 403.82 231.84 403.82 246.97 338.45 247.35 336.82 272.99 226.1 263.53 226.1"/><polygon class="cls-1" points="316.41 226.1 296.8 226.1 287.35 226.1 261.71 336.82 261.34 338.45 246.19 403.82 255.64 403.82 275.26 403.82 284.72 403.82 299.85 338.45 300.23 336.82 325.87 226.1 316.41 226.1"/></svg>