<svg id="Layer_1" data-name="Layer 1" xmlns="http://www.w3.org/2000/svg" viewBox="0 0 115.9 39.1"><defs><style>.cls-1{fill:#c9a34b;}.cls-2{fill:#fff;}</style></defs><path class="cls-1" d="M191.7,135.8a2.2,2.2,0,0,0,.9-.7,1.5,1.5,0,0,0,.4-1.1,1.7,1.7,0,0,0-.3-1,1.8,1.8,0,0,0-.9-.8,3,3,0,0,0-1.4-.2h-2.9v7.8h3.1a3.2,3.2,0,0,0,1.4-.3,2.2,2.2,0,0,0,.9-.7,2,2,0,0,0,.3-1.1,2.1,2.1,0,0,0-.5-1.3A1.5,1.5,0,0,0,191.7,135.8Zm-3-2.8h1.6a1.3,1.3,0,0,1,1,.3.9.9,0,0,1,.4.8,1,1,0,0,1-.4.9,1.3,1.3,0,0,1-1,.3h-1.6Zm2.8,5.5a1.5,1.5,0,0,1-1,.3h-1.8v-2.5h1.7a1.8,1.8,0,0,1,1.1.3,1.3,1.3,0,0,1,.4,1A1.1,1.1,0,0,1,191.5,138.5Z" transform="translate(-120.6 -112.4)"/><path class="cls-1" d="M199.2,136.9a2,2,0,0,1-.4,1.4,1.8,1.8,0,0,1-1.3.4,1.7,1.7,0,0,1-1.3-.4,1.6,1.6,0,0,1-.5-1.4V132h-1.3v4.9a3.1,3.1,0,0,0,.4,1.7,3.6,3.6,0,0,0,1.1,1,4.1,4.1,0,0,0,1.6.3,4,4,0,0,0,1.5-.3,3.6,3.6,0,0,0,1.1-1,3.1,3.1,0,0,0,.4-1.7V132h-1.3Z" transform="translate(-120.6 -112.4)"/><path class="cls-1" d="M206.1,135.7l-1.3-.4-.9-.3-.6-.4a.8.8,0,0,1-.2-.6,1.1,1.1,0,0,1,.3-.8,1.7,1.7,0,0,1,1-.3,1.2,1.2,0,0,1,.9.3.9.9,0,0,1,.4.8h1.5a2.7,2.7,0,0,0-.8-1.6,2.9,2.9,0,0,0-1.9-.5,3.2,3.2,0,0,0-1.4.2,3.9,3.9,0,0,0-1,.8,2.6,2.6,0,0,0,0,2.4,1.8,1.8,0,0,0,.9.6l1.2.4,1,.3a1,1,0,0,1,.5.4.9.9,0,0,1,.3.6,1.3,1.3,0,0,1-.4.9,1.8,1.8,0,0,1-1.1.3,1.2,1.2,0,0,1-.9-.3,1.3,1.3,0,0,1-.5-.9h-1.3a2.1,2.1,0,0,0,.3,1.2,2.5,2.5,0,0,0,1,.8,3.2,3.2,0,0,0,1.4.3,3.3,3.3,0,0,0,1.5-.3,2.6,2.6,0,0,0,.9-.9,1.5,1.5,0,0,0,.4-1.1,2.1,2.1,0,0,0-.4-1.2A2.7,2.7,0,0,0,206.1,135.7Z" transform="translate(-120.6 -112.4)"/><rect class="cls-1" x="87.9" y="19.6" width="1.3" height="7.85"/><polygon class="cls-1" points="95.6 25.4 91.7 19.6 90.4 19.6 90.4 27.4 91.7 27.4 91.7 21.6 95.6 27.4 96.9 27.4 96.9 19.6 95.6 19.6 95.6 25.4"/><polygon class="cls-1" points="98.1 27.4 102.4 27.4 102.4 26.4 99.4 26.4 99.4 24 102.1 24 102.1 23 99.4 23 99.4 20.6 102.4 20.6 102.4 19.6 98.1 19.6 98.1 27.4"/><path class="cls-1" d="M228.6,135.7l-1.3-.4-.9-.3-.6-.4a.8.8,0,0,1-.2-.6,1.1,1.1,0,0,1,.3-.8,1.7,1.7,0,0,1,1-.3,1.2,1.2,0,0,1,.9.3.9.9,0,0,1,.4.8h1.5a2.7,2.7,0,0,0-.8-1.6,2.9,2.9,0,0,0-1.9-.5,3.2,3.2,0,0,0-1.4.2,3.9,3.9,0,0,0-1,.8,2.6,2.6,0,0,0,0,2.4,1.8,1.8,0,0,0,.9.6l1.2.4,1,.3a1,1,0,0,1,.5.4.9.9,0,0,1,.3.6,1.3,1.3,0,0,1-.4.9,1.8,1.8,0,0,1-1.1.3,1.2,1.2,0,0,1-.9-.3,1.3,1.3,0,0,1-.5-.9h-1.3a2.1,2.1,0,0,0,.3,1.2,2.5,2.5,0,0,0,1,.8,3.2,3.2,0,0,0,1.4.3,3.3,3.3,0,0,0,1.5-.3,2.6,2.6,0,0,0,.9-.9,1.5,1.5,0,0,0,.4-1.1,2.1,2.1,0,0,0-.4-1.2A2.7,2.7,0,0,0,228.6,135.7Z" transform="translate(-120.6 -112.4)"/><path class="cls-1" d="M236.1,136.4a2.7,2.7,0,0,0-.8-.7l-1.3-.4-.9-.3-.6-.4a.8.8,0,0,1-.2-.6.9.9,0,0,1,.4-.8,1.2,1.2,0,0,1,.9-.3,1.7,1.7,0,0,1,1,.3,2,2,0,0,1,.4.8h1.4a2.3,2.3,0,0,0-.8-1.6,2.9,2.9,0,0,0-1.9-.5,3.2,3.2,0,0,0-1.4.2,2.4,2.4,0,0,0-.9.8,2,2,0,0,0,0,2.4,1.6,1.6,0,0,0,.8.6l1.2.4,1,.3.6.4a1.4,1.4,0,0,1,.2.6,1,1,0,0,1-.4.9,1.5,1.5,0,0,1-1,.3,1.3,1.3,0,0,1-1-.3,1,1,0,0,1-.4-.9H231a1.6,1.6,0,0,0,.4,1.2,1.8,1.8,0,0,0,.9.8,3.7,3.7,0,0,0,1.5.3,3.2,3.2,0,0,0,1.4-.3,4.3,4.3,0,0,0,1-.9,2,2,0,0,0,.3-1.1A1.6,1.6,0,0,0,236.1,136.4Z" transform="translate(-120.6 -112.4)"/><path class="cls-1" d="M191,148.1h3a3,3,0,0,1-.8,1.6,2.5,2.5,0,0,1-1.7.6,2.9,2.9,0,0,1-1.4-.4,3.2,3.2,0,0,1-1-1,3.3,3.3,0,0,1-.3-1.5,4,4,0,0,1,.3-1.5,4.7,4.7,0,0,1,1-1,2.9,2.9,0,0,1,1.4-.3,2.4,2.4,0,0,1,1.2.3,2,2,0,0,1,.9.9h1.5a3.7,3.7,0,0,0-1.4-1.8,4.3,4.3,0,0,0-2.2-.6,5,5,0,0,0-2.1.5,3.8,3.8,0,0,0-1.4,1.4,3.8,3.8,0,0,0-.5,2.1,3.6,3.6,0,0,0,.5,2.1,3.2,3.2,0,0,0,1.4,1.4,3.8,3.8,0,0,0,2.1.5,3.7,3.7,0,0,0,1.8-.4,2.9,2.9,0,0,0,1.4-1.3,2.5,2.5,0,0,0,.6-1.6v-1H191Z" transform="translate(-120.6 -112.4)"/><path class="cls-1" d="M201.6,147.3a2.4,2.4,0,0,0,.5-1.4,2.7,2.7,0,0,0-.3-1.2,2.7,2.7,0,0,0-1-.8,3.3,3.3,0,0,0-1.5-.3h-2.7v7.8h1.3v-3.1h1l1.8,3.1h1.5l-1.9-3.2A2.5,2.5,0,0,0,201.6,147.3Zm-3.7,0v-2.7h1.4a1.8,1.8,0,0,1,1.1.3,1.8,1.8,0,0,1,.4,1,1.5,1.5,0,0,1-.4,1,1.8,1.8,0,0,1-1.1.4Z" transform="translate(-120.6 -112.4)"/><path class="cls-1" d="M209.5,143.9a4.6,4.6,0,0,0-2.1-.5,4.6,4.6,0,0,0-2,.5,3.8,3.8,0,0,0-1.4,1.4,4,4,0,0,0,0,4.2,3.2,3.2,0,0,0,1.4,1.4,3.5,3.5,0,0,0,2,.5,3.6,3.6,0,0,0,2.1-.5,3.2,3.2,0,0,0,1.4-1.4,4,4,0,0,0,0-4.2A3.8,3.8,0,0,0,209.5,143.9Zm.3,5a2.4,2.4,0,0,1-1,1,2.9,2.9,0,0,1-1.4.4,2.8,2.8,0,0,1-1.3-.4,1.9,1.9,0,0,1-1-1,3.9,3.9,0,0,1,0-3,2.4,2.4,0,0,1,1-1,2.8,2.8,0,0,1,1.3-.3,2.9,2.9,0,0,1,1.4.3,3.2,3.2,0,0,1,1,1,3.9,3.9,0,0,1,0,3Z" transform="translate(-120.6 -112.4)"/><path class="cls-1" d="M217.5,148.5a1.7,1.7,0,0,1-.4,1.3,2.2,2.2,0,0,1-1.4.5,2.1,2.1,0,0,1-1.3-.5,1.7,1.7,0,0,1-.4-1.3v-5h-1.3v5a2.7,2.7,0,0,0,.4,1.6,2.7,2.7,0,0,0,1.1,1,4,4,0,0,0,1.5.3,4.1,4.1,0,0,0,1.6-.3,3.5,3.5,0,0,0,1.1-1,2.7,2.7,0,0,0,.4-1.6v-5h-1.3Z" transform="translate(-120.6 -112.4)"/><path class="cls-1" d="M225.2,144.7a2.4,2.4,0,0,0-.9-.8,3.3,3.3,0,0,0-1.5-.3h-2.7v7.8h1.2v-3.2h1.5a4.1,4.1,0,0,0,1.6-.3,2,2,0,0,0,.9-.9,3.6,3.6,0,0,0,.2-1.1A2.7,2.7,0,0,0,225.2,144.7Zm-1.3,2.2a1.8,1.8,0,0,1-1.1.3h-1.5v-2.6h1.5a1.8,1.8,0,0,1,1.1.3,1.7,1.7,0,0,1,.3,1A1.5,1.5,0,0,1,223.9,146.9Z" transform="translate(-120.6 -112.4)"/><polygon class="cls-2" points="67.1 0.4 66.8 0.4 66.8 3.6 72.7 3.6 66.8 12 66.8 12 66.8 14.6 77.2 14.6 77.5 14.6 77.5 11.4 71.6 11.4 77.5 3 77.5 0.4 67.1 0.4"/><path class="cls-2" d="M213.7,119h-8.1v3h3.6a3.1,3.1,0,0,1-2.9,1.7,3.9,3.9,0,0,1-3.7-4,3.8,3.8,0,0,1,3.7-4A3.7,3.7,0,0,1,209,117l.3.3,2.6-2.3-.2-.3a7.1,7.1,0,0,0-5.4-2.3,7.2,7.2,0,0,0-7.3,7.3,7.3,7.3,0,0,0,7.3,7.3h1.2a7.7,7.7,0,0,0,3.8-1.7,7.5,7.5,0,0,0,2.5-5.5A1.7,1.7,0,0,0,213.7,119Z" transform="translate(-120.6 -112.4)"/><polygon class="cls-1" points="53.1 0 48.8 0 46.7 0 43.4 14.4 43.3 14.7 37.7 39.1 39.7 39.1 44 39.1 46.1 39.1 51.8 14.7 51.8 14.4 55.2 0 53.1 0"/><polygon class="cls-1" points="49.3 39.1 52.6 24.7 58 39.1 49.3 39.1"/><polygon class="cls-2" points="8.7 0 5.4 14.3 0 0 8.7 0"/><polygon class="cls-2" points="18.2 0 13.9 0 11.8 0 6.2 24.3 6.1 24.7 2.8 39.1 4.9 39.1 9.2 39.1 11.3 39.1 14.6 24.7 14.7 24.3 20.3 0 18.2 0"/><polygon class="cls-2" points="29.8 0 25.5 0 23.5 0 17.8 24.3 17.7 24.7 14.4 39.1 16.5 39.1 20.8 39.1 22.9 39.1 26.2 24.7 26.3 24.3 31.9 0 29.8 0"/><polygon class="cls-1" points="41.5 0 37.2 0 35.1 0 29.4 24.3 29.4 24.7 26 39.1 28.1 39.1 32.4 39.1 34.5 39.1 37.8 24.7 37.9 24.3 43.5 0 41.5 0"/></svg>