<svg id="Layer_1" data-name="Layer 1" xmlns="http://www.w3.org/2000/svg" viewBox="0 0 298.4 40.9"><defs><style>.cls-1{fill:#c9a34b;}.cls-2{fill:#fff;}</style></defs><path class="cls-1" d="M96.2,125.7a2.1,2.1,0,0,0,1-.6,2.1,2.1,0,0,0,.3-1.2,1.7,1.7,0,0,0-.3-1c-.1-.3-.4-.5-.8-.7a3.2,3.2,0,0,0-1.4-.3H92v7.9h3.1a2.9,2.9,0,0,0,1.4-.3,2.4,2.4,0,0,0,.9-.8,2,2,0,0,0,.3-1.1,1.9,1.9,0,0,0-.4-1.2A1.9,1.9,0,0,0,96.2,125.7Zm-2.9-2.8h1.6a1.7,1.7,0,0,1,1,.3,1.2,1.2,0,0,1,.3.9,1.1,1.1,0,0,1-.3.8,1.7,1.7,0,0,1-1,.3H93.3Zm2.8,5.5a1.8,1.8,0,0,1-1.1.3H93.3v-2.5H95a1.5,1.5,0,0,1,1,.4,1,1,0,0,1,.4.9A1.2,1.2,0,0,1,96.1,128.4Z" transform="translate(-25.2 -101.4)"/><path class="cls-1" d="M103.8,126.9a1.7,1.7,0,0,1-1.8,1.8,1.9,1.9,0,0,1-1.3-.5,1.7,1.7,0,0,1-.5-1.3v-5H99v5a2.7,2.7,0,0,0,.4,1.6,1.8,1.8,0,0,0,1.1,1,3.3,3.3,0,0,0,1.5.3,4.1,4.1,0,0,0,1.6-.3,2.6,2.6,0,0,0,1.1-1,2.7,2.7,0,0,0,.4-1.6v-5h-1.3Z" transform="translate(-25.2 -101.4)"/><path class="cls-1" d="M110.6,125.7l-1.2-.5-1-.2-.5-.4a.7.7,0,0,1-.2-.6,1.2,1.2,0,0,1,.3-.9c.2-.2.5-.2.9-.2a1.5,1.5,0,0,1,1,.3,1,1,0,0,1,.4.7h1.4a1.9,1.9,0,0,0-.8-1.5,2.9,2.9,0,0,0-1.9-.6,3.2,3.2,0,0,0-1.4.3,1.8,1.8,0,0,0-.9.8,2.1,2.1,0,0,0-.4,1.1,2.1,2.1,0,0,0,.4,1.2,2.7,2.7,0,0,0,.8.7l1.3.4.9.3.6.4a.8.8,0,0,1,.2.6,1.2,1.2,0,0,1-.4.9,1.8,1.8,0,0,1-2,0,1.8,1.8,0,0,1-.4-.9h-1.4a1.9,1.9,0,0,0,.4,1.2,2.7,2.7,0,0,0,1,.8l1.4.2a3.7,3.7,0,0,0,1.5-.3,2.4,2.4,0,0,0,.9-.8,2.7,2.7,0,0,0,.3-1.2,2.1,2.1,0,0,0-.3-1.2A1.8,1.8,0,0,0,110.6,125.7Z" transform="translate(-25.2 -101.4)"/><rect class="cls-1" x="87.9" y="20.5" width="1.3" height="7.85"/><polygon class="cls-1" points="95.6 26.4 91.7 20.5 90.4 20.5 90.4 28.4 91.7 28.4 91.7 22.5 95.6 28.4 96.9 28.4 96.9 20.5 95.6 20.5 95.6 26.4"/><polygon class="cls-1" points="98.1 28.4 102.4 28.4 102.4 27.4 99.4 27.4 99.4 24.9 102.1 24.9 102.1 23.9 99.4 23.9 99.4 21.5 102.4 21.5 102.4 20.5 98.1 20.5 98.1 28.4"/><path class="cls-1" d="M133.1,125.7l-1.2-.5-1-.2-.5-.4a.7.7,0,0,1-.2-.6,1.2,1.2,0,0,1,.3-.9c.2-.2.5-.2.9-.2a1.5,1.5,0,0,1,1,.3,1,1,0,0,1,.4.7h1.4a1.9,1.9,0,0,0-.8-1.5,2.9,2.9,0,0,0-1.9-.6,3.2,3.2,0,0,0-1.4.3,1.8,1.8,0,0,0-.9.8,2.1,2.1,0,0,0-.4,1.1,2.1,2.1,0,0,0,.4,1.2,2.7,2.7,0,0,0,.8.7l1.3.4.9.3.6.4a.8.8,0,0,1,.2.6,1.2,1.2,0,0,1-.4.9,1.8,1.8,0,0,1-2,0,1.8,1.8,0,0,1-.4-.9h-1.4a1.9,1.9,0,0,0,.4,1.2,2.7,2.7,0,0,0,1,.8l1.4.2a3.7,3.7,0,0,0,1.5-.3,2.4,2.4,0,0,0,.9-.8,2.7,2.7,0,0,0,.3-1.2,2.1,2.1,0,0,0-.3-1.2A1.8,1.8,0,0,0,133.1,125.7Z" transform="translate(-25.2 -101.4)"/><path class="cls-1" d="M140.7,126.3a1.6,1.6,0,0,0-.8-.6l-1.3-.5-.9-.2-.6-.4a1.4,1.4,0,0,1-.2-.6,1.2,1.2,0,0,1,.3-.9,1.9,1.9,0,0,1,1.9.1.8.8,0,0,1,.4.7h1.4a1.9,1.9,0,0,0-.8-1.5,2.6,2.6,0,0,0-1.8-.6,2.9,2.9,0,0,0-1.4.3,2,2,0,0,0-1.3,1.9,2.1,2.1,0,0,0,.3,1.2,2.7,2.7,0,0,0,.8.7l1.3.4.9.3a.9.9,0,0,1,.6.4c.2.1.2.3.2.6a1.6,1.6,0,0,1-.3.9,1.8,1.8,0,0,1-1.1.3,1.7,1.7,0,0,1-1-.3,3.6,3.6,0,0,1-.4-.9h-1.4a2.8,2.8,0,0,0,.4,1.2,3.9,3.9,0,0,0,1,.8l1.4.2a3.3,3.3,0,0,0,1.5-.3,2.4,2.4,0,0,0,.9-.8,2.7,2.7,0,0,0,.3-1.2A2.1,2.1,0,0,0,140.7,126.3Z" transform="translate(-25.2 -101.4)"/><path class="cls-1" d="M95.6,138h2.9a2.3,2.3,0,0,1-.8,1.6,2.4,2.4,0,0,1-1.7.6,3.2,3.2,0,0,1-1.4-.3,3.1,3.1,0,0,1-1.3-2.5,2.4,2.4,0,0,1,.4-1.5,1.8,1.8,0,0,1,.9-1,2.3,2.3,0,0,1,1.4-.4,2.8,2.8,0,0,1,1.3.3,2.4,2.4,0,0,1,.8.9h1.6a3.5,3.5,0,0,0-1.5-1.7,3.8,3.8,0,0,0-2.2-.6,3.5,3.5,0,0,0-2,.5,4,4,0,0,0-1.5,1.4,4.6,4.6,0,0,0-.5,2.1,4.6,4.6,0,0,0,.5,2,5.4,5.4,0,0,0,1.5,1.5,4.6,4.6,0,0,0,2,.5,4.1,4.1,0,0,0,1.9-.5,5.3,5.3,0,0,0,1.4-1.2,4.9,4.9,0,0,0,.6-1.7v-1H95.6Z" transform="translate(-25.2 -101.4)"/><path class="cls-1" d="M106.2,137.3a2.5,2.5,0,0,0,.4-1.4,2.1,2.1,0,0,0-.3-1.2,2.6,2.6,0,0,0-.9-.9,3.5,3.5,0,0,0-1.6-.3h-2.7v7.9h1.3v-3.2h1l1.8,3.2h1.6l-2-3.3A2.2,2.2,0,0,0,106.2,137.3Zm-3.8-.1v-2.7h1.4a1.2,1.2,0,0,1,1.1.4,1.2,1.2,0,0,1,.4,1,1.3,1.3,0,0,1-.4,1,1.6,1.6,0,0,1-1.1.3Z" transform="translate(-25.2 -101.4)"/><path class="cls-1" d="M114,133.9a3.6,3.6,0,0,0-4,0,4,4,0,0,0-1.5,1.4,4.6,4.6,0,0,0-.5,2.1,4.6,4.6,0,0,0,.5,2,5.4,5.4,0,0,0,1.5,1.5,4.3,4.3,0,0,0,4,0,5.4,5.4,0,0,0,1.5-1.5,4.6,4.6,0,0,0,.5-2,4.6,4.6,0,0,0-.5-2.1A4,4,0,0,0,114,133.9Zm.3,4.9a2.4,2.4,0,0,1-.9,1.1,3.4,3.4,0,0,1-2.8,0,2.4,2.4,0,0,1-.9-1.1,2.3,2.3,0,0,1-.4-1.4,2.4,2.4,0,0,1,.4-1.5,1.8,1.8,0,0,1,.9-1,2.6,2.6,0,0,1,2.8,0,1.8,1.8,0,0,1,.9,1,2.4,2.4,0,0,1,.4,1.5A2.3,2.3,0,0,1,114.3,138.8Z" transform="translate(-25.2 -101.4)"/><path class="cls-1" d="M122.1,138.4a2,2,0,0,1-.5,1.4,2.3,2.3,0,0,1-2.6,0,2,2,0,0,1-.5-1.4v-5h-1.3v5a4.3,4.3,0,0,0,.4,1.7,3.1,3.1,0,0,0,1.1.9,2.9,2.9,0,0,0,1.6.4,2.4,2.4,0,0,0,1.5-.4,2.7,2.7,0,0,0,1.2-.9,4.3,4.3,0,0,0,.4-1.7v-5h-1.3Z" transform="translate(-25.2 -101.4)"/><path class="cls-1" d="M129.8,134.7a1.8,1.8,0,0,0-1-.9,3.3,3.3,0,0,0-1.5-.3h-2.7v7.9h1.3v-3.2h1.4a3.5,3.5,0,0,0,1.6-.3l.9-.9a2.3,2.3,0,0,0,.3-1.1A2.1,2.1,0,0,0,129.8,134.7Zm-1.4,2.1a1.2,1.2,0,0,1-1.1.4h-1.4v-2.7h1.4a1.2,1.2,0,0,1,1.1.4,1.1,1.1,0,0,1,.4,1A1,1,0,0,1,128.4,136.8Z" transform="translate(-25.2 -101.4)"/><polygon class="cls-2" points="67.1 1.3 66.8 1.3 66.8 4.5 72.7 4.5 66.8 12.9 66.8 12.9 66.8 15.6 77.2 15.6 77.5 15.6 77.5 12.3 71.6 12.3 77.5 3.9 77.5 1.3 67.1 1.3"/><path class="cls-2" d="M118.3,109h-8.1V112h3.6a3.2,3.2,0,0,1-2.9,1.6,3.9,3.9,0,0,1-3.8-4,3.8,3.8,0,0,1,3.8-3.9,3.5,3.5,0,0,1,2.7,1.3l.2.2,2.7-2.3-.3-.2a7,7,0,0,0-5.3-2.4,7.5,7.5,0,0,0-7.4,7.3,7.4,7.4,0,0,0,7.4,7.4H112a7,7,0,0,0,3.9-1.8,7.2,7.2,0,0,0,2.4-5.5Z" transform="translate(-25.2 -101.4)"/><polygon class="cls-1" points="53.1 0.9 48.8 0.9 46.7 0.9 43.4 15.3 43.3 15.6 37.7 40 39.7 40 44 40 46.1 40 51.8 15.6 51.8 15.3 55.2 0.9 53.1 0.9"/><polygon class="cls-1" points="49.3 40 52.6 25.7 58 40 49.3 40"/><polygon class="cls-2" points="8.7 0.9 5.4 15.2 0 0.9 8.7 0.9"/><polygon class="cls-2" points="18.2 0.9 13.9 0.9 11.8 0.9 6.2 25.3 6.1 25.6 2.8 40 4.9 40 9.2 40 11.3 40 14.6 25.6 14.7 25.3 20.3 0.9 18.2 0.9"/><polygon class="cls-2" points="29.8 0.9 25.5 0.9 23.5 0.9 17.8 25.3 17.7 25.6 14.4 40 16.5 40 20.8 40 22.9 40 26.2 25.6 26.3 25.3 31.9 0.9 29.8 0.9"/><polygon class="cls-1" points="41.5 0.9 37.2 0.9 35.1 0.9 29.4 25.3 29.4 25.6 26 40 28.1 40 32.4 40 34.5 40 37.8 25.6 37.9 25.3 43.5 0.9 41.5 0.9"/><rect class="cls-2" x="123.7" width="0.3" height="40.9"/><path class="cls-2" d="M168.7,118.5h-2.9l-4.9-7.3v7.3H158V106.6h2.9l4.9,7.4v-7.4h2.9Z" transform="translate(-25.2 -101.4)"/><path class="cls-2" d="M172.6,118.1a4.9,4.9,0,0,1-1.8-1.7,5.9,5.9,0,0,1,0-5.2,5.8,5.8,0,0,1,1.8-1.7,5.4,5.4,0,0,1,2.5-.6,5.1,5.1,0,0,1,2.5.6,4.2,4.2,0,0,1,1.8,1.7,5.9,5.9,0,0,1,0,5.2,5.8,5.8,0,0,1-1.8,1.7,5.4,5.4,0,0,1-2.5.6A5.1,5.1,0,0,1,172.6,118.1Zm3.9-2.5a3,3,0,0,0,0-3.6,1.9,1.9,0,0,0-2.8,0,2.4,2.4,0,0,0-.6,1.8,2.6,2.6,0,0,0,.6,1.8,1.8,1.8,0,0,0,1.4.6A2,2,0,0,0,176.5,115.6Z" transform="translate(-25.2 -101.4)"/><path class="cls-2" d="M185.7,109.5a2.8,2.8,0,0,1,1.7-.5v3h-.8a2.5,2.5,0,0,0-1.6.5,1.9,1.9,0,0,0-.5,1.6v4.4h-2.9v-9.4h2.9v1.7A3,3,0,0,1,185.7,109.5Z" transform="translate(-25.2 -101.4)"/><path class="cls-2" d="M194.1,116.1v2.4h-1.5a3.6,3.6,0,0,1-2.4-.7,3.4,3.4,0,0,1-.9-2.6v-3.7h-1.2v-2.4h1.2v-2.3h2.9v2.3h1.9v2.4h-1.9v3.8c0,.3,0,.5.2.6a1,1,0,0,0,.7.2Z" transform="translate(-25.2 -101.4)"/><path class="cls-2" d="M204.1,110a4.4,4.4,0,0,1,1,3v5.5h-2.9v-5.1a2,2,0,0,0-.5-1.5,1.7,1.7,0,0,0-1.3-.5,1.9,1.9,0,0,0-1.3.5,2.5,2.5,0,0,0-.5,1.5v5.1h-2.9V106h2.9v4.3a4,4,0,0,1,1.2-1,4.7,4.7,0,0,1,1.7-.3A3.3,3.3,0,0,1,204.1,110Z" transform="translate(-25.2 -101.4)"/><path class="cls-2" d="M216,114.5h-6.6a2.3,2.3,0,0,0,.6,1.3,1.3,1.3,0,0,0,1.2.5,1.4,1.4,0,0,0,1.5-.9h3.1a3.8,3.8,0,0,1-.8,1.7,3.6,3.6,0,0,1-1.6,1.1,4.6,4.6,0,0,1-2.1.5,4.8,4.8,0,0,1-2.4-.6,4,4,0,0,1-1.7-1.7,5.9,5.9,0,0,1,0-5.2,4.4,4.4,0,0,1,1.6-1.7,5.4,5.4,0,0,1,2.5-.6,5.1,5.1,0,0,1,2.5.6,3.8,3.8,0,0,1,1.6,1.7,4.8,4.8,0,0,1,.6,2.4Zm-2.9-1.5a1.7,1.7,0,0,0-.5-1.3,2.3,2.3,0,0,0-2.6,0,2.3,2.3,0,0,0-.6,1.3Z" transform="translate(-25.2 -101.4)"/><path class="cls-2" d="M221.7,109.5a2.8,2.8,0,0,1,1.7-.5v3h-.8a2.5,2.5,0,0,0-1.6.5,1.9,1.9,0,0,0-.5,1.6v4.4h-2.9v-9.4h2.9v1.7A3,3,0,0,1,221.7,109.5Z" transform="translate(-25.2 -101.4)"/><path class="cls-2" d="M233.2,110a4.4,4.4,0,0,1,1,3v5.5h-2.9v-5.1a2.4,2.4,0,0,0-.4-1.5,2.2,2.2,0,0,0-1.4-.5,1.9,1.9,0,0,0-1.3.5,2.5,2.5,0,0,0-.5,1.5v5.1h-2.9v-9.4h2.9v1.2a4,4,0,0,1,1.2-1,4.7,4.7,0,0,1,1.7-.3A3.3,3.3,0,0,1,233.2,110Z" transform="translate(-25.2 -101.4)"/><path class="cls-2" d="M242.1,118.2a4,4,0,0,1-1.6-1.2,3.5,3.5,0,0,1-.7-2h3.1a1.2,1.2,0,0,0,.5,1,1.5,1.5,0,0,0,1,.4,1.3,1.3,0,0,0,1-.4,1,1,0,0,0,.4-.8.9.9,0,0,0-.3-.7l-.8-.5-1.2-.4-1.9-.7a3.2,3.2,0,0,1-1.2-1.1,2.4,2.4,0,0,1-.5-1.8,3.1,3.1,0,0,1,1.2-2.6,5,5,0,0,1,3.1-.9,5.3,5.3,0,0,1,3.2.9,3.1,3.1,0,0,1,1.2,2.6h-3.1a1,1,0,0,0-.4-.9,1.7,1.7,0,0,0-1-.3,1.3,1.3,0,0,0-.9.2,1.2,1.2,0,0,0-.3.9,1,1,0,0,0,.6.9l1.7.7,1.8.7a4.1,4.1,0,0,1,1.3,1,3.5,3.5,0,0,1,0,3.6,5,5,0,0,1-1.5,1.4,5.6,5.6,0,0,1-2.3.5A6,6,0,0,1,242.1,118.2Z" transform="translate(-25.2 -101.4)"/><path class="cls-2" d="M255.8,116.1v2.4h-1.4a3.7,3.7,0,0,1-2.5-.7,3.4,3.4,0,0,1-.9-2.6v-3.7h-1.1v-2.4H251v-2.3h2.9v2.3h1.9v2.4h-1.9v3.8a.8.8,0,0,0,.2.6l.7.2Z" transform="translate(-25.2 -101.4)"/><path class="cls-2" d="M257.4,111.2a5,5,0,0,1,1.5-1.7,4.3,4.3,0,0,1,2.2-.6,4.7,4.7,0,0,1,1.7.4,4.3,4.3,0,0,1,1.2,1.1v-1.3h2.9v9.4H264v-1.3a4.3,4.3,0,0,1-1.2,1.1,4.8,4.8,0,0,1-1.8.4,4.2,4.2,0,0,1-2.1-.6,5,5,0,0,1-1.5-1.7,7,7,0,0,1,0-5.2Zm6,.9a2.2,2.2,0,0,0-3,0,2.7,2.7,0,0,0,0,3.4,2.2,2.2,0,0,0,3,0,2.7,2.7,0,0,0,0-3.4Z" transform="translate(-25.2 -101.4)"/><path class="cls-2" d="M273.1,109.5a2.8,2.8,0,0,1,1.7-.5v3H274a2.5,2.5,0,0,0-1.6.5,1.9,1.9,0,0,0-.5,1.6v4.4H269v-9.4h2.9v1.7A3,3,0,0,1,273.1,109.5Z" transform="translate(-25.2 -101.4)"/><path class="cls-2" d="M290.4,106.6v11.9h-2.9v-4.9H283v4.9h-2.9V106.6H283v4.7h4.5v-4.7Z" transform="translate(-25.2 -101.4)"/><path class="cls-2" d="M294.3,118.1a4.6,4.6,0,0,1-1.7-1.7,5.2,5.2,0,0,1,0-5.2,4.2,4.2,0,0,1,1.8-1.7,4.9,4.9,0,0,1,2.5-.6,5.4,5.4,0,0,1,2.5.6,5.1,5.1,0,0,1,1.7,6.9,4.2,4.2,0,0,1-1.8,1.7,4.9,4.9,0,0,1-2.5.6A5.4,5.4,0,0,1,294.3,118.1Zm3.9-2.5a2.6,2.6,0,0,0,.6-1.8,3.2,3.2,0,0,0-.5-1.8,2,2,0,0,0-1.4-.6,1.7,1.7,0,0,0-1.4.6,2.4,2.4,0,0,0-.6,1.8,3.2,3.2,0,0,0,.5,1.8,2,2,0,0,0,1.4.6A1.7,1.7,0,0,0,298.2,115.6Z" transform="translate(-25.2 -101.4)"/><path class="cls-2" d="M308.6,116.1v2.4h-1.5a2.9,2.9,0,0,1-3.3-3.3v-3.7h-1.2v-2.4h1.2v-2.3h2.9v2.3h1.9v2.4h-1.9v3.8c0,.3,0,.5.2.6a1,1,0,0,0,.7.2Z" transform="translate(-25.2 -101.4)"/><path class="cls-2" d="M319.1,114.5h-6.6a1.5,1.5,0,0,0,.6,1.3,1.3,1.3,0,0,0,1.2.5,1.6,1.6,0,0,0,1.5-.9h3.1a5.6,5.6,0,0,1-.9,1.7,3.3,3.3,0,0,1-1.5,1.1,4.6,4.6,0,0,1-2.1.5,5.4,5.4,0,0,1-2.5-.6,4.6,4.6,0,0,1-1.7-1.7,5.9,5.9,0,0,1,0-5.2,4.6,4.6,0,0,1,1.7-1.7,5.1,5.1,0,0,1,2.5-.6,4.8,4.8,0,0,1,2.4.6,3.5,3.5,0,0,1,1.7,1.7,4.8,4.8,0,0,1,.6,2.4Zm-3-1.5a1.4,1.4,0,0,0-.5-1.3,1.6,1.6,0,0,0-1.2-.4,2,2,0,0,0-1.3.4,2.3,2.3,0,0,0-.6,1.3Z" transform="translate(-25.2 -101.4)"/><path class="cls-2" d="M323.5,106v12.5h-2.9V106Z" transform="translate(-25.2 -101.4)"/><path class="cls-2" d="M165.5,138.3l-1-1.4a6.9,6.9,0,0,1-1.3,1.1,4.1,4.1,0,0,1-1.9.4,3.3,3.3,0,0,1-2-.5,2.7,2.7,0,0,1-1.3-1.3,3.2,3.2,0,0,1-.5-1.9,3.1,3.1,0,0,1,.8-2.3,2.6,2.6,0,0,1,1.9-1.2c-.2-.4-.5-.8-.6-1.1a5,5,0,0,1-.2-1.2,2.3,2.3,0,0,1,.4-1.4,3.2,3.2,0,0,1,1.2-1.1,3.8,3.8,0,0,1,1.9-.4,3.6,3.6,0,0,1,2.4.7,2.5,2.5,0,0,1,1.1,1.7,3.1,3.1,0,0,1,.1,1v.5h-2.8a1.5,1.5,0,0,0,.1-.7c-.1-.2-.1-.4-.3-.6l-.6-.2-.5.2c-.2.2-.2.3-.2.6a.6.6,0,0,0,.1.4c0,.2.2.4.4.7l5.9,8Zm-3.2-2.7a1,1,0,0,0,.4-.9,1.4,1.4,0,0,0-1.4-1.4,1.1,1.1,0,0,0-.9.4,1.3,1.3,0,0,0-.4,1,1,1,0,0,0,.4.9,1.1,1.1,0,0,0,.9.4A1.3,1.3,0,0,0,162.3,135.6Z" transform="translate(-25.2 -101.4)"/><path class="cls-2" d="M182.2,126.4v2.3H179v9.6h-2.9v-9.6H173v-2.3Z" transform="translate(-25.2 -101.4)"/><path class="cls-2" d="M185.4,137.8a3.7,3.7,0,0,1-1.7-1.6,5.5,5.5,0,0,1-.6-2.6,5.3,5.3,0,0,1,.6-2.6,4.2,4.2,0,0,1,1.8-1.7,4.9,4.9,0,0,1,2.5-.6,5.4,5.4,0,0,1,2.5.6,4.6,4.6,0,0,1,1.7,1.7,4.4,4.4,0,0,1,.7,2.6,4.3,4.3,0,0,1-.7,2.5,3.5,3.5,0,0,1-1.7,1.7,5.5,5.5,0,0,1-2.6.6A5.4,5.4,0,0,1,185.4,137.8Zm4-2.5a2.9,2.9,0,0,0,.5-1.7,2.4,2.4,0,0,0-.5-1.8,2,2,0,0,0-1.4-.6,1.7,1.7,0,0,0-1.4.6,2.4,2.4,0,0,0-.6,1.8,2.4,2.4,0,0,0,.6,1.7,1.6,1.6,0,0,0,1.3.6A2,2,0,0,0,189.4,135.3Z" transform="translate(-25.2 -101.4)"/><path class="cls-2" d="M203.8,128.8v9.5h-2.9V137a2.9,2.9,0,0,1-1.2,1,3.3,3.3,0,0,1-1.7.4,3.8,3.8,0,0,1-1.9-.5,2.9,2.9,0,0,1-1.3-1.4,4.6,4.6,0,0,1-.5-2.1v-5.6h2.9V134a2.5,2.5,0,0,0,.5,1.5,1.9,1.9,0,0,0,1.3.5,2,2,0,0,0,1.4-.5,2.5,2.5,0,0,0,.5-1.5v-5.2Z" transform="translate(-25.2 -101.4)"/><path class="cls-2" d="M210,129.2a3.4,3.4,0,0,1,1.7-.5v3.1h-.8a2.5,2.5,0,0,0-1.6.5c-.4.3-.5.8-.5,1.6v4.4h-2.9v-9.5h2.9v1.7A4.9,4.9,0,0,1,210,129.2Z" transform="translate(-25.2 -101.4)"/><path class="cls-2" d="M213.3,127.4a1.5,1.5,0,0,1,0-2.2,1.9,1.9,0,0,1,1.3-.5,1.7,1.7,0,0,1,1.2.5,1.5,1.5,0,0,1,0,2.2,1.7,1.7,0,0,1-1.2.5A1.9,1.9,0,0,1,213.3,127.4Zm2.7,1.4v9.5h-2.9v-9.5Z" transform="translate(-25.2 -101.4)"/><path class="cls-2" d="M219.8,138a5,5,0,0,1-1.6-1.1,3.5,3.5,0,0,1-.6-1.7h2.9a.8.8,0,0,0,.4.8,1.3,1.3,0,0,0,1,.4,1.2,1.2,0,0,0,.9-.3.6.6,0,0,0,.3-.6c0-.2-.2-.4-.5-.6l-1.4-.4-1.6-.5a2.5,2.5,0,0,1-1.2-.8,2.5,2.5,0,0,1,0-3,2.8,2.8,0,0,1,1.3-1.1,4.4,4.4,0,0,1,2.1-.4,4.3,4.3,0,0,1,2.8.9,3.8,3.8,0,0,1,1.1,2.3h-2.6a1.4,1.4,0,0,0-.5-.8,1.2,1.2,0,0,0-.9-.3l-.8.2a.7.7,0,0,0-.3.6.7.7,0,0,0,.4.6l1.4.4,1.7.5a3.4,3.4,0,0,1,1.2.9,2.5,2.5,0,0,1,0,3,2.8,2.8,0,0,1-1.3,1.1,6.6,6.6,0,0,1-2.1.3A4.6,4.6,0,0,1,219.8,138Z" transform="translate(-25.2 -101.4)"/><path class="cls-2" d="M242.4,129.8a4.1,4.1,0,0,1,1.1,3v5.5h-2.9v-5.1a2,2,0,0,0-.5-1.4,1.5,1.5,0,0,0-1.3-.5,1.4,1.4,0,0,0-1.3.5,1.6,1.6,0,0,0-.5,1.4v5.1h-2.9v-5.1a2,2,0,0,0-.5-1.4,1.5,1.5,0,0,0-1.3-.5,1.7,1.7,0,0,0-1.4.5,2,2,0,0,0-.4,1.4v5.1h-2.9v-9.5h2.9V130a2.4,2.4,0,0,1,1.1-.9,4.2,4.2,0,0,1,1.6-.4,3.8,3.8,0,0,1,1.9.5,2.7,2.7,0,0,1,1.3,1.3,5.8,5.8,0,0,1,1.4-1.3,3.9,3.9,0,0,1,4.6.6Z" transform="translate(-25.2 -101.4)"/></svg>