<svg id="Layer_1" data-name="Layer 1" xmlns="http://www.w3.org/2000/svg" viewBox="0 0 272.8 40.9"><defs><style>.cls-1{fill:#c9a34b;}.cls-2{fill:#fff;}</style></defs><path class="cls-1" d="M96.2,125.7a2.1,2.1,0,0,0,1-.6,2.1,2.1,0,0,0,.3-1.2,1.7,1.7,0,0,0-.3-1c-.1-.3-.4-.5-.8-.7a3.2,3.2,0,0,0-1.4-.3H92v7.9h3.1a2.9,2.9,0,0,0,1.4-.3,2.4,2.4,0,0,0,.9-.8,2,2,0,0,0,.3-1.1,1.9,1.9,0,0,0-.4-1.2A1.9,1.9,0,0,0,96.2,125.7Zm-2.9-2.8h1.6a1.7,1.7,0,0,1,1,.3,1.2,1.2,0,0,1,.3.9,1.1,1.1,0,0,1-.3.8,1.7,1.7,0,0,1-1,.3H93.3Zm2.8,5.5a1.8,1.8,0,0,1-1.1.3H93.3v-2.5H95a1.5,1.5,0,0,1,1,.4,1,1,0,0,1,.4.9A1.2,1.2,0,0,1,96.1,128.4Z" transform="translate(-25.2 -101.4)"/><path class="cls-1" d="M103.8,126.9a1.7,1.7,0,0,1-1.8,1.8,1.9,1.9,0,0,1-1.3-.5,1.7,1.7,0,0,1-.5-1.3v-5H99v5a2.7,2.7,0,0,0,.4,1.6,1.8,1.8,0,0,0,1.1,1,3.3,3.3,0,0,0,1.5.3,4.1,4.1,0,0,0,1.6-.3,2.6,2.6,0,0,0,1.1-1,2.7,2.7,0,0,0,.4-1.6v-5h-1.3Z" transform="translate(-25.2 -101.4)"/><path class="cls-1" d="M110.6,125.7l-1.2-.5-1-.2-.5-.4a.7.7,0,0,1-.2-.6,1.2,1.2,0,0,1,.3-.9c.2-.2.5-.2.9-.2a1.5,1.5,0,0,1,1,.3,1,1,0,0,1,.4.7h1.4a1.9,1.9,0,0,0-.8-1.5,2.9,2.9,0,0,0-1.9-.6,3.2,3.2,0,0,0-1.4.3,1.8,1.8,0,0,0-.9.8,2.1,2.1,0,0,0-.4,1.1,2.1,2.1,0,0,0,.4,1.2,2.7,2.7,0,0,0,.8.7l1.3.4.9.3.6.4a.8.8,0,0,1,.2.6,1.2,1.2,0,0,1-.4.9,1.8,1.8,0,0,1-2,0,1.8,1.8,0,0,1-.4-.9h-1.4a1.9,1.9,0,0,0,.4,1.2,2.7,2.7,0,0,0,1,.8l1.4.2a3.7,3.7,0,0,0,1.5-.3,2.4,2.4,0,0,0,.9-.8,2.7,2.7,0,0,0,.3-1.2,2.1,2.1,0,0,0-.3-1.2A1.8,1.8,0,0,0,110.6,125.7Z" transform="translate(-25.2 -101.4)"/><rect class="cls-1" x="87.9" y="20.5" width="1.3" height="7.85"/><polygon class="cls-1" points="95.6 26.4 91.7 20.5 90.4 20.5 90.4 28.4 91.7 28.4 91.7 22.5 95.6 28.4 96.9 28.4 96.9 20.5 95.6 20.5 95.6 26.4"/><polygon class="cls-1" points="98.1 28.4 102.4 28.4 102.4 27.4 99.4 27.4 99.4 24.9 102.1 24.9 102.1 23.9 99.4 23.9 99.4 21.5 102.4 21.5 102.4 20.5 98.1 20.5 98.1 28.4"/><path class="cls-1" d="M133.1,125.7l-1.2-.5-1-.2-.5-.4a.7.7,0,0,1-.2-.6,1.2,1.2,0,0,1,.3-.9c.2-.2.5-.2.9-.2a1.5,1.5,0,0,1,1,.3,1,1,0,0,1,.4.7h1.4a1.9,1.9,0,0,0-.8-1.5,2.9,2.9,0,0,0-1.9-.6,3.2,3.2,0,0,0-1.4.3,1.8,1.8,0,0,0-.9.8,2.1,2.1,0,0,0-.4,1.1,2.1,2.1,0,0,0,.4,1.2,2.7,2.7,0,0,0,.8.7l1.3.4.9.3.6.4a.8.8,0,0,1,.2.6,1.2,1.2,0,0,1-.4.9,1.8,1.8,0,0,1-2,0,1.8,1.8,0,0,1-.4-.9h-1.4a1.9,1.9,0,0,0,.4,1.2,2.7,2.7,0,0,0,1,.8l1.4.2a3.7,3.7,0,0,0,1.5-.3,2.4,2.4,0,0,0,.9-.8,2.7,2.7,0,0,0,.3-1.2,2.1,2.1,0,0,0-.3-1.2A1.8,1.8,0,0,0,133.1,125.7Z" transform="translate(-25.2 -101.4)"/><path class="cls-1" d="M140.7,126.3a1.6,1.6,0,0,0-.8-.6l-1.3-.5-.9-.2-.6-.4a1.4,1.4,0,0,1-.2-.6,1.2,1.2,0,0,1,.3-.9,1.9,1.9,0,0,1,1.9.1.8.8,0,0,1,.4.7h1.4a1.9,1.9,0,0,0-.8-1.5,2.6,2.6,0,0,0-1.8-.6,2.9,2.9,0,0,0-1.4.3,2,2,0,0,0-1.3,1.9,2.1,2.1,0,0,0,.3,1.2,2.7,2.7,0,0,0,.8.7l1.3.4.9.3a.9.9,0,0,1,.6.4c.2.1.2.3.2.6a1.6,1.6,0,0,1-.3.9,1.8,1.8,0,0,1-1.1.3,1.7,1.7,0,0,1-1-.3,3.6,3.6,0,0,1-.4-.9h-1.4a2.8,2.8,0,0,0,.4,1.2,3.9,3.9,0,0,0,1,.8l1.4.2a3.3,3.3,0,0,0,1.5-.3,2.4,2.4,0,0,0,.9-.8,2.7,2.7,0,0,0,.3-1.2A2.1,2.1,0,0,0,140.7,126.3Z" transform="translate(-25.2 -101.4)"/><path class="cls-1" d="M95.6,138h2.9a2.3,2.3,0,0,1-.8,1.6,2.4,2.4,0,0,1-1.7.6,3.2,3.2,0,0,1-1.4-.3,3.1,3.1,0,0,1-1.3-2.5,2.4,2.4,0,0,1,.4-1.5,1.8,1.8,0,0,1,.9-1,2.3,2.3,0,0,1,1.4-.4,2.8,2.8,0,0,1,1.3.3,2.4,2.4,0,0,1,.8.9h1.6a3.5,3.5,0,0,0-1.5-1.7,3.8,3.8,0,0,0-2.2-.6,3.5,3.5,0,0,0-2,.5,4,4,0,0,0-1.5,1.4,4.6,4.6,0,0,0-.5,2.1,4.6,4.6,0,0,0,.5,2,5.4,5.4,0,0,0,1.5,1.5,4.6,4.6,0,0,0,2,.5,4.1,4.1,0,0,0,1.9-.5,5.3,5.3,0,0,0,1.4-1.2,4.9,4.9,0,0,0,.6-1.7v-1H95.6Z" transform="translate(-25.2 -101.4)"/><path class="cls-1" d="M106.2,137.3a2.5,2.5,0,0,0,.4-1.4,2.1,2.1,0,0,0-.3-1.2,2.6,2.6,0,0,0-.9-.9,3.5,3.5,0,0,0-1.6-.3h-2.7v7.9h1.3v-3.2h1l1.8,3.2h1.6l-2-3.3A2.2,2.2,0,0,0,106.2,137.3Zm-3.8-.1v-2.7h1.4a1.2,1.2,0,0,1,1.1.4,1.2,1.2,0,0,1,.4,1,1.3,1.3,0,0,1-.4,1,1.6,1.6,0,0,1-1.1.3Z" transform="translate(-25.2 -101.4)"/><path class="cls-1" d="M114,133.9a3.6,3.6,0,0,0-4,0,4,4,0,0,0-1.5,1.4,4.6,4.6,0,0,0-.5,2.1,4.6,4.6,0,0,0,.5,2,5.4,5.4,0,0,0,1.5,1.5,4.3,4.3,0,0,0,4,0,5.4,5.4,0,0,0,1.5-1.5,4.6,4.6,0,0,0,.5-2,4.6,4.6,0,0,0-.5-2.1A4,4,0,0,0,114,133.9Zm.3,4.9a2.4,2.4,0,0,1-.9,1.1,3.4,3.4,0,0,1-2.8,0,2.4,2.4,0,0,1-.9-1.1,2.3,2.3,0,0,1-.4-1.4,2.4,2.4,0,0,1,.4-1.5,1.8,1.8,0,0,1,.9-1,2.6,2.6,0,0,1,2.8,0,1.8,1.8,0,0,1,.9,1,2.4,2.4,0,0,1,.4,1.5A2.3,2.3,0,0,1,114.3,138.8Z" transform="translate(-25.2 -101.4)"/><path class="cls-1" d="M122.1,138.4a2,2,0,0,1-.5,1.4,2.3,2.3,0,0,1-2.6,0,2,2,0,0,1-.5-1.4v-5h-1.3v5a4.3,4.3,0,0,0,.4,1.7,3.1,3.1,0,0,0,1.1.9,2.9,2.9,0,0,0,1.6.4,2.4,2.4,0,0,0,1.5-.4,2.7,2.7,0,0,0,1.2-.9,4.3,4.3,0,0,0,.4-1.7v-5h-1.3Z" transform="translate(-25.2 -101.4)"/><path class="cls-1" d="M129.8,134.7a1.8,1.8,0,0,0-1-.9,3.3,3.3,0,0,0-1.5-.3h-2.7v7.9h1.3v-3.2h1.4a3.5,3.5,0,0,0,1.6-.3l.9-.9a2.3,2.3,0,0,0,.3-1.1A2.1,2.1,0,0,0,129.8,134.7Zm-1.4,2.1a1.2,1.2,0,0,1-1.1.4h-1.4v-2.7h1.4a1.2,1.2,0,0,1,1.1.4,1.1,1.1,0,0,1,.4,1A1,1,0,0,1,128.4,136.8Z" transform="translate(-25.2 -101.4)"/><polygon class="cls-2" points="67.1 1.3 66.8 1.3 66.8 4.5 72.7 4.5 66.8 12.9 66.8 12.9 66.8 15.6 77.2 15.6 77.5 15.6 77.5 12.3 71.6 12.3 77.5 3.9 77.5 1.3 67.1 1.3"/><path class="cls-2" d="M118.3,109h-8.1V112h3.6a3.2,3.2,0,0,1-2.9,1.6,3.9,3.9,0,0,1-3.8-4,3.8,3.8,0,0,1,3.8-3.9,3.5,3.5,0,0,1,2.7,1.3l.2.2,2.7-2.3-.3-.2a7,7,0,0,0-5.3-2.4,7.5,7.5,0,0,0-7.4,7.3,7.4,7.4,0,0,0,7.4,7.4H112a7,7,0,0,0,3.9-1.8,7.2,7.2,0,0,0,2.4-5.5Z" transform="translate(-25.2 -101.4)"/><polygon class="cls-1" points="53.1 0.9 48.8 0.9 46.7 0.9 43.4 15.3 43.3 15.6 37.7 40 39.7 40 44 40 46.1 40 51.8 15.6 51.8 15.3 55.2 0.9 53.1 0.9"/><polygon class="cls-1" points="49.3 40 52.6 25.7 58 40 49.3 40"/><polygon class="cls-2" points="8.7 0.9 5.4 15.2 0 0.9 8.7 0.9"/><polygon class="cls-2" points="18.2 0.9 13.9 0.9 11.8 0.9 6.2 25.3 6.1 25.6 2.8 40 4.9 40 9.2 40 11.3 40 14.6 25.6 14.7 25.3 20.3 0.9 18.2 0.9"/><polygon class="cls-2" points="29.8 0.9 25.5 0.9 23.5 0.9 17.8 25.3 17.7 25.6 14.4 40 16.5 40 20.8 40 22.9 40 26.2 25.6 26.3 25.3 31.9 0.9 29.8 0.9"/><polygon class="cls-1" points="41.5 0.9 37.2 0.9 35.1 0.9 29.4 25.3 29.4 25.6 26 40 28.1 40 32.4 40 34.5 40 37.8 25.6 37.9 25.3 43.5 0.9 41.5 0.9"/><rect class="cls-2" x="123.7" width="0.3" height="40.9"/><path class="cls-2" d="M158.3,118.1a2.2,2.2,0,0,1-1.3-1,2.5,2.5,0,0,1-.5-1.5h2.4a1.2,1.2,0,0,0,.4.8,1,1,0,0,0,.8.3,1.1,1.1,0,0,0,.8-.3.9.9,0,0,0,.3-.6.6.6,0,0,0-.3-.6,1,1,0,0,0-.5-.4l-1-.3-1.5-.6a3.9,3.9,0,0,1-1-.8,2.4,2.4,0,0,1-.4-1.5,2.5,2.5,0,0,1,.9-2,4.1,4.1,0,0,1,2.5-.8,3.7,3.7,0,0,1,2.5.8,2.7,2.7,0,0,1,1.1,2H161a1,1,0,0,0-.4-.7,1,1,0,0,0-.8-.3.7.7,0,0,0-.6.3.6.6,0,0,0-.3.6.8.8,0,0,0,.5.7,4,4,0,0,0,1.3.6l1.5.6a2.5,2.5,0,0,1,1,.8,2.9,2.9,0,0,1,.4,1.4,3.3,3.3,0,0,1-.4,1.4,3.2,3.2,0,0,1-1.2,1.1,5.3,5.3,0,0,1-1.9.4A3.7,3.7,0,0,1,158.3,118.1Z" transform="translate(-25.2 -101.4)"/><path class="cls-2" d="M165,112.6a3,3,0,0,1,1.2-1.3,2.4,2.4,0,0,1,1.6-.5,2.9,2.9,0,0,1,1.4.3,2,2,0,0,1,.9.9v-1.1h2.3v7.5h-2.3v-1.1a2,2,0,0,1-.9.9,3.2,3.2,0,0,1-1.4.3,3,3,0,0,1-1.6-.5,3.7,3.7,0,0,1-1.2-1.3,4.6,4.6,0,0,1-.5-2.1A4.6,4.6,0,0,1,165,112.6Zm4.7.7a1.8,1.8,0,0,0-1.2-.5,1.5,1.5,0,0,0-1.2.5,1.8,1.8,0,0,0-.4,1.3,2.1,2.1,0,0,0,.4,1.4,1.7,1.7,0,0,0,2.4,0,2,2,0,0,0,.4-1.4A1.8,1.8,0,0,0,169.7,113.3Z" transform="translate(-25.2 -101.4)"/><path class="cls-2" d="M177.5,116.2l1.6-5.3h2.4l-2.6,7.5H176l-2.6-7.5h2.4Z" transform="translate(-25.2 -101.4)"/><path class="cls-2" d="M182.5,112.6a3,3,0,0,1,1.2-1.3,2.4,2.4,0,0,1,1.6-.5,2.9,2.9,0,0,1,1.4.3,2,2,0,0,1,.9.9v-1.1h2.3v7.5h-2.3v-1.1a2,2,0,0,1-.9.9,3.2,3.2,0,0,1-1.4.3,3,3,0,0,1-1.6-.5,3.7,3.7,0,0,1-1.2-1.3,4.6,4.6,0,0,1-.5-2.1A4.6,4.6,0,0,1,182.5,112.6Zm4.7.7a1.8,1.8,0,0,0-1.2-.5,1.5,1.5,0,0,0-1.2.5,1.8,1.8,0,0,0-.4,1.3,2.1,2.1,0,0,0,.4,1.4,1.7,1.7,0,0,0,2.4,0,2,2,0,0,0,.4-1.4A1.8,1.8,0,0,0,187.2,113.3Z" transform="translate(-25.2 -101.4)"/><path class="cls-2" d="M198.2,111.7a2.8,2.8,0,0,1,.8,2.3v4.4h-2.2v-4.1a2.1,2.1,0,0,0-.4-1.2,1.8,1.8,0,0,0-1.1-.4,1.5,1.5,0,0,0-1,.4,1.6,1.6,0,0,0-.4,1.2v4.1h-2.3v-7.5h2.3v1a2.4,2.4,0,0,1,.9-.8,3.2,3.2,0,0,1,1.4-.3A2.5,2.5,0,0,1,198.2,111.7Z" transform="translate(-25.2 -101.4)"/><path class="cls-2" d="M200.6,112.6a3,3,0,0,1,1.2-1.3,2.6,2.6,0,0,1,1.7-.5,3.2,3.2,0,0,1,1.4.3,2,2,0,0,1,.9.9v-1.1h2.3v7.5h-2.3v-1.1a2.2,2.2,0,0,1-1,.9,2.8,2.8,0,0,1-1.3.3,3.4,3.4,0,0,1-1.7-.5,3.7,3.7,0,0,1-1.2-1.3,4.6,4.6,0,0,1-.4-2.1A4.5,4.5,0,0,1,200.6,112.6Zm4.7.7a1.7,1.7,0,0,0-1.2-.5,1.3,1.3,0,0,0-1.1.5,1.9,1.9,0,0,0-.5,1.3,2.2,2.2,0,0,0,.5,1.4,1.6,1.6,0,0,0,1.1.5,1.7,1.7,0,0,0,1.2-.5,2,2,0,0,0,.5-1.4A1.9,1.9,0,0,0,205.3,113.3Z" transform="translate(-25.2 -101.4)"/><path class="cls-2" d="M219,109v1.8h-3.9v2H218v1.7h-2.9v3.9h-2.3V109Z" transform="translate(-25.2 -101.4)"/><path class="cls-2" d="M220.1,112.6a3,3,0,0,1,1.2-1.3,2.6,2.6,0,0,1,1.7-.5,3.2,3.2,0,0,1,1.4.3,2,2,0,0,1,.9.9v-1.1h2.3v7.5h-2.3v-1.1a2,2,0,0,1-.9.9,3.2,3.2,0,0,1-1.4.3,3.4,3.4,0,0,1-1.7-.5,3.7,3.7,0,0,1-1.2-1.3,6.5,6.5,0,0,1-.4-2.1A6.5,6.5,0,0,1,220.1,112.6Zm4.7.7a1.6,1.6,0,0,0-1.1-.5,1.3,1.3,0,0,0-1.2.5,1.9,1.9,0,0,0-.5,1.3,2.2,2.2,0,0,0,.5,1.4,1.7,1.7,0,0,0,1.2.5,1.6,1.6,0,0,0,1.1-.5,1.6,1.6,0,0,0,.5-1.4A1.5,1.5,0,0,0,224.8,113.3Z" transform="translate(-25.2 -101.4)"/><path class="cls-2" d="M232.6,111.2a2,2,0,0,1,1.3-.4v2.4h-.6a2.2,2.2,0,0,0-1.3.4,1.7,1.7,0,0,0-.4,1.3v3.5h-2.3v-7.5h2.3v1.3A3.2,3.2,0,0,1,232.6,111.2Z" transform="translate(-25.2 -101.4)"/><path class="cls-2" d="M246.8,111.7a3.2,3.2,0,0,1,.8,2.3v4.4h-2.3v-4.1a1.4,1.4,0,0,0-.4-1.1,1.2,1.2,0,0,0-1-.4,1.4,1.4,0,0,0-1.1.4,1.8,1.8,0,0,0-.3,1.1v4.1h-2.3v-4.1a1.8,1.8,0,0,0-.4-1.1,1.4,1.4,0,0,0-1.1-.4,1.2,1.2,0,0,0-1,.4,1.4,1.4,0,0,0-.4,1.1v4.1H235v-7.5h2.3v.9a2.2,2.2,0,0,1,.9-.7,2.8,2.8,0,0,1,1.3-.3,2.9,2.9,0,0,1,2.5,1.4,5.2,5.2,0,0,1,1.1-1,2.4,2.4,0,0,1,1.5-.4A2.9,2.9,0,0,1,246.8,111.7Z" transform="translate(-25.2 -101.4)"/><path class="cls-2" d="M249.4,109.8a1.2,1.2,0,0,1-.4-.9,1,1,0,0,1,.4-.9,1.5,1.5,0,0,1,1-.4,1.3,1.3,0,0,1,.9.4,1,1,0,0,1,.4.9,1.2,1.2,0,0,1-1.3,1.2A1.5,1.5,0,0,1,249.4,109.8Zm2.1,1.1v7.5h-2.3v-7.5Z" transform="translate(-25.2 -101.4)"/><path class="cls-2" d="M259.8,111.7a2.8,2.8,0,0,1,.8,2.3v4.4h-2.3v-4.1a1.6,1.6,0,0,0-.4-1.2,1.5,1.5,0,0,0-2,0,1.6,1.6,0,0,0-.4,1.2v4.1h-2.3v-7.5h2.3v1a2.4,2.4,0,0,1,.9-.8,2.8,2.8,0,0,1,1.3-.3A2.6,2.6,0,0,1,259.8,111.7Z" transform="translate(-25.2 -101.4)"/><path class="cls-2" d="M266.4,111.1a2.8,2.8,0,0,1,1,.9v-1.1h2.3v7.5a3.5,3.5,0,0,1-.5,1.8,2.7,2.7,0,0,1-1.2,1.4,4.6,4.6,0,0,1-2.1.5,4.6,4.6,0,0,1-2.7-.8,2.8,2.8,0,0,1-1.2-2.1h2.3c.1.2.2.5.5.6a1.7,1.7,0,0,0,1,.3,1.6,1.6,0,0,0,1.1-.4,1.7,1.7,0,0,0,.5-1.3v-1.1a4.3,4.3,0,0,1-1,.9,2.8,2.8,0,0,1-1.3.3,3.1,3.1,0,0,1-1.7-.5,3.7,3.7,0,0,1-1.2-1.3,4.6,4.6,0,0,1-.4-2.1,4.5,4.5,0,0,1,.4-2,3,3,0,0,1,1.2-1.3,2.5,2.5,0,0,1,1.7-.5A2.8,2.8,0,0,1,266.4,111.1Zm.5,2.2a1.7,1.7,0,0,0-1.2-.5,1.3,1.3,0,0,0-1.1.5,1.5,1.5,0,0,0-.5,1.3,1.7,1.7,0,0,0,.5,1.4,1.6,1.6,0,0,0,1.1.5,1.7,1.7,0,0,0,1.2-.5,2,2,0,0,0,.5-1.4A1.9,1.9,0,0,0,266.9,113.3Z" transform="translate(-25.2 -101.4)"/><path class="cls-2" d="M281.2,113.5a2.9,2.9,0,0,1-1.1,1.1,4.2,4.2,0,0,1-2,.4h-1.4v3.4h-2.3V109h3.7a3.6,3.6,0,0,1,1.9.4,2.4,2.4,0,0,1,1.2,1,2.9,2.9,0,0,1,.4,1.6A2.8,2.8,0,0,1,281.2,113.5Zm-2.3-.6a1.2,1.2,0,0,0,0-1.8,1.2,1.2,0,0,0-.9-.3h-1.3v2.4H278A1.2,1.2,0,0,0,278.9,112.9Z" transform="translate(-25.2 -101.4)"/><path class="cls-2" d="M285.1,116.6h3v1.8h-5.3V109h2.3Z" transform="translate(-25.2 -101.4)"/><path class="cls-2" d="M289.4,111.2a4,4,0,0,1,1.7-1.7,4.8,4.8,0,0,1,2.4-.6,5.5,5.5,0,0,1,2.9.8,4.4,4.4,0,0,1,1.6,2.5h-2.5a2.4,2.4,0,0,0-.8-.9,2.7,2.7,0,0,0-1.2-.3,2.1,2.1,0,0,0-1.7.7,2.6,2.6,0,0,0-.7,2,2.5,2.5,0,0,0,.7,1.9,2.1,2.1,0,0,0,1.7.8,1.9,1.9,0,0,0,1.2-.4,3,3,0,0,0,.8-.8H298a4.5,4.5,0,0,1-1.6,2.4,4.7,4.7,0,0,1-2.9.8,4.8,4.8,0,0,1-2.4-.6,4,4,0,0,1-1.7-1.7,4.8,4.8,0,0,1-.6-2.4A4.9,4.9,0,0,1,289.4,111.2Z" transform="translate(-25.2 -101.4)"/><path class="cls-2" d="M157.8,133.2a10,10,0,0,1-1-4.6,10.3,10.3,0,0,1,1-4.6,10.9,10.9,0,0,1,2.7-3.3h2.2v.3a10,10,0,0,0-2.8,3.4,10.2,10.2,0,0,0,0,8.4,10.3,10.3,0,0,0,2.8,3.5v.2h-2.2A8.9,8.9,0,0,1,157.8,133.2Z" transform="translate(-25.2 -101.4)"/><path class="cls-2" d="M168,134l-2-3.5h-.5V134h-2.3v-9.4H167a3.6,3.6,0,0,1,1.9.4,3.2,3.2,0,0,1,1.2,1.1,2.4,2.4,0,0,1,.4,1.5,3.4,3.4,0,0,1-.5,1.7,3.7,3.7,0,0,1-1.6,1l2.2,3.7Zm-2.5-5.2h1.4a1.2,1.2,0,0,0,.9-.3,1.1,1.1,0,0,0,.3-.8,1.1,1.1,0,0,0-1.2-1.2h-1.4Z" transform="translate(-25.2 -101.4)"/><path class="cls-2" d="M171.9,128.2a3.7,3.7,0,0,1,1.2-1.3,3.1,3.1,0,0,1,1.7-.5,1.8,1.8,0,0,1,1.3.4,2.7,2.7,0,0,1,1,.8v-1.1h2.3V134h-2.3v-1a3.9,3.9,0,0,1-1,.8,2.9,2.9,0,0,1-1.4.3,2.9,2.9,0,0,1-1.6-.4,4.1,4.1,0,0,1-1.2-1.4,4.5,4.5,0,0,1-.4-2A4.6,4.6,0,0,1,171.9,128.2Zm4.7.7a1.7,1.7,0,0,0-1.2-.5,1.6,1.6,0,0,0-1.1.5,2,2,0,0,0-.5,1.4,1.9,1.9,0,0,0,.5,1.3,1.3,1.3,0,0,0,1.1.5,1.3,1.3,0,0,0,1.2-.5,1.7,1.7,0,0,0,.5-1.3A2.2,2.2,0,0,0,176.6,128.9Z" transform="translate(-25.2 -101.4)"/><path class="cls-2" d="M182.7,126.5l1.8,4.7,1.7-4.7h2.5L184,137.6h-2.5l1.7-3.8-3-7.3Z" transform="translate(-25.2 -101.4)"/><path class="cls-2" d="M189.5,128.2a3.7,3.7,0,0,1,1.2-1.3,3,3,0,0,1,1.6-.5,2.1,2.1,0,0,1,1.4.4,2.4,2.4,0,0,1,.9.8v-1.1h2.3V134h-2.3v-1a2.4,2.4,0,0,1-.9.8,2.9,2.9,0,0,1-1.4.3,2.9,2.9,0,0,1-1.6-.4,4.1,4.1,0,0,1-1.2-1.4,4.6,4.6,0,0,1-.5-2A4.6,4.6,0,0,1,189.5,128.2Zm4.7.7a1.7,1.7,0,0,0-1.2-.5,1.6,1.6,0,0,0-1.1.5,1.6,1.6,0,0,0-.5,1.4,1.5,1.5,0,0,0,.5,1.3,1.3,1.3,0,0,0,1.1.5,1.3,1.3,0,0,0,1.2-.5,1.7,1.7,0,0,0,.4-1.3A2.1,2.1,0,0,0,194.2,128.9Z" transform="translate(-25.2 -101.4)"/><path class="cls-2" d="M201.2,131.7l-1.7,4.4H198l.9-4.4Z" transform="translate(-25.2 -101.4)"/><path class="cls-2" d="M212.4,124.6v1.8h-2.5V134h-2.3v-7.6h-2.5v-1.8Z" transform="translate(-25.2 -101.4)"/><path class="cls-2" d="M213.7,125.4a1,1,0,0,1-.4-.9,1.2,1.2,0,0,1,.4-.9,1.5,1.5,0,0,1,1-.3,1.2,1.2,0,0,1,1.3,1.2,1,1,0,0,1-.4.9,1.3,1.3,0,0,1-.9.4A1.5,1.5,0,0,1,213.7,125.4Zm2.1,1.1V134h-2.3v-7.5Z" transform="translate(-25.2 -101.4)"/><path class="cls-2" d="M221.7,126.8a2.4,2.4,0,0,1,.9.8v-1.1h2.3V134a4.1,4.1,0,0,1-.4,1.9,3.7,3.7,0,0,1-1.2,1.3,4.6,4.6,0,0,1-2.1.5,4,4,0,0,1-2.7-.8,2.8,2.8,0,0,1-1.2-2.1h2.3c0,.3.2.5.5.7l1,.2a1.5,1.5,0,0,0,1.1-.4,1.7,1.7,0,0,0,.4-1.3v-1a2.4,2.4,0,0,1-.9.8,3.2,3.2,0,0,1-1.4.3,3.3,3.3,0,0,1-1.7-.4,3,3,0,0,1-1.1-1.4,4.6,4.6,0,0,1-.5-2,4.6,4.6,0,0,1,.5-2.1,2.8,2.8,0,0,1,1.1-1.3,3.4,3.4,0,0,1,1.7-.5A2.3,2.3,0,0,1,221.7,126.8Zm.4,2.1a1.6,1.6,0,0,0-1.1-.5,1.7,1.7,0,0,0-1.2.5,2,2,0,0,0-.4,1.4,1.8,1.8,0,0,0,.4,1.3,1.3,1.3,0,0,0,1.2.5,1.3,1.3,0,0,0,1.1-.5,1.4,1.4,0,0,0,.5-1.3A1.7,1.7,0,0,0,222.1,128.9Z" transform="translate(-25.2 -101.4)"/><path class="cls-2" d="M229.9,126.8a2.8,2.8,0,0,1,1.3-.3v2.4h-.6a1.7,1.7,0,0,0-1.3.4c-.3.2-.4.6-.4,1.3V134h-2.3v-7.5h2.3v1.4A2.7,2.7,0,0,1,229.9,126.8Z" transform="translate(-25.2 -101.4)"/><path class="cls-2" d="M232.3,128.2a3.7,3.7,0,0,1,1.2-1.3,3.1,3.1,0,0,1,1.7-.5,1.8,1.8,0,0,1,1.3.4,2.7,2.7,0,0,1,1,.8v-1.1h2.3V134h-2.3v-1a3.9,3.9,0,0,1-1,.8,2.9,2.9,0,0,1-1.4.3,2.9,2.9,0,0,1-1.6-.4,4.1,4.1,0,0,1-1.2-1.4,4.5,4.5,0,0,1-.4-2A4.6,4.6,0,0,1,232.3,128.2Zm4.7.7a1.7,1.7,0,0,0-1.2-.5,1.6,1.6,0,0,0-1.1.5,2,2,0,0,0-.5,1.4,1.9,1.9,0,0,0,.5,1.3,1.3,1.3,0,0,0,1.1.5,1.3,1.3,0,0,0,1.2-.5,1.7,1.7,0,0,0,.5-1.3A2.2,2.2,0,0,0,237,128.9Z" transform="translate(-25.2 -101.4)"/><path class="cls-2" d="M243.1,126.5l1.8,4.7,1.7-4.7h2.5l-4.7,11.1h-2.5l1.7-3.8-3-7.3Z" transform="translate(-25.2 -101.4)"/><path class="cls-2" d="M253.6,124a11.1,11.1,0,0,1,0,9.2,7.8,7.8,0,0,1-2.6,3.3h-2.3v-.2a9.3,9.3,0,0,0,2.8-3.5,10.3,10.3,0,0,0,0-8.4,9,9,0,0,0-2.8-3.4v-.3H251A9.3,9.3,0,0,1,253.6,124Z" transform="translate(-25.2 -101.4)"/></svg>