<svg id="Layer_1" data-name="Layer 1" xmlns="http://www.w3.org/2000/svg" viewBox="0 0 210.2 40.9"><defs><style>.cls-1{fill:#c9a34b;}.cls-2{fill:#fff;}</style></defs><path class="cls-1" d="M96.2,125.7a2.1,2.1,0,0,0,1-.6,2.1,2.1,0,0,0,.3-1.2,1.7,1.7,0,0,0-.3-1c-.1-.3-.4-.5-.8-.7a3.2,3.2,0,0,0-1.4-.3H92v7.9h3.1a2.9,2.9,0,0,0,1.4-.3,2.4,2.4,0,0,0,.9-.8,2,2,0,0,0,.3-1.1,1.9,1.9,0,0,0-.4-1.2A1.9,1.9,0,0,0,96.2,125.7Zm-2.9-2.8h1.6a1.7,1.7,0,0,1,1,.3,1.2,1.2,0,0,1,.3.9,1.1,1.1,0,0,1-.3.8,1.7,1.7,0,0,1-1,.3H93.3Zm2.8,5.5a1.8,1.8,0,0,1-1.1.3H93.3v-2.5H95a1.5,1.5,0,0,1,1,.4,1,1,0,0,1,.4.9A1.2,1.2,0,0,1,96.1,128.4Z" transform="translate(-25.2 -101.4)"/><path class="cls-1" d="M103.8,126.9a1.7,1.7,0,0,1-1.8,1.8,1.9,1.9,0,0,1-1.3-.5,1.7,1.7,0,0,1-.5-1.3v-5H99v5a2.7,2.7,0,0,0,.4,1.6,1.8,1.8,0,0,0,1.1,1,3.3,3.3,0,0,0,1.5.3,4.1,4.1,0,0,0,1.6-.3,2.6,2.6,0,0,0,1.1-1,2.7,2.7,0,0,0,.4-1.6v-5h-1.3Z" transform="translate(-25.2 -101.4)"/><path class="cls-1" d="M110.6,125.7l-1.2-.5-1-.2-.5-.4a.7.7,0,0,1-.2-.6,1.2,1.2,0,0,1,.3-.9c.2-.2.5-.2.9-.2a1.5,1.5,0,0,1,1,.3,1,1,0,0,1,.4.7h1.4a1.9,1.9,0,0,0-.8-1.5,2.9,2.9,0,0,0-1.9-.6,3.2,3.2,0,0,0-1.4.3,1.8,1.8,0,0,0-.9.8,2.1,2.1,0,0,0-.4,1.1,2.1,2.1,0,0,0,.4,1.2,2.7,2.7,0,0,0,.8.7l1.3.4.9.3.6.4a.8.8,0,0,1,.2.6,1.2,1.2,0,0,1-.4.9,1.8,1.8,0,0,1-2,0,1.8,1.8,0,0,1-.4-.9h-1.4a1.9,1.9,0,0,0,.4,1.2,2.7,2.7,0,0,0,1,.8l1.4.2a3.7,3.7,0,0,0,1.5-.3,2.4,2.4,0,0,0,.9-.8,2.7,2.7,0,0,0,.3-1.2,2.1,2.1,0,0,0-.3-1.2A1.8,1.8,0,0,0,110.6,125.7Z" transform="translate(-25.2 -101.4)"/><rect class="cls-1" x="87.9" y="20.5" width="1.3" height="7.85"/><polygon class="cls-1" points="95.6 26.4 91.7 20.5 90.4 20.5 90.4 28.4 91.7 28.4 91.7 22.5 95.6 28.4 96.9 28.4 96.9 20.5 95.6 20.5 95.6 26.4"/><polygon class="cls-1" points="98.1 28.4 102.4 28.4 102.4 27.4 99.4 27.4 99.4 24.9 102.1 24.9 102.1 23.9 99.4 23.9 99.4 21.5 102.4 21.5 102.4 20.5 98.1 20.5 98.1 28.4"/><path class="cls-1" d="M133.1,125.7l-1.2-.5-1-.2-.5-.4a.7.7,0,0,1-.2-.6,1.2,1.2,0,0,1,.3-.9c.2-.2.5-.2.9-.2a1.5,1.5,0,0,1,1,.3,1,1,0,0,1,.4.7h1.4a1.9,1.9,0,0,0-.8-1.5,2.9,2.9,0,0,0-1.9-.6,3.2,3.2,0,0,0-1.4.3,1.8,1.8,0,0,0-.9.8,2.1,2.1,0,0,0-.4,1.1,2.1,2.1,0,0,0,.4,1.2,2.7,2.7,0,0,0,.8.7l1.3.4.9.3.6.4a.8.8,0,0,1,.2.6,1.2,1.2,0,0,1-.4.9,1.8,1.8,0,0,1-2,0,1.8,1.8,0,0,1-.4-.9h-1.4a1.9,1.9,0,0,0,.4,1.2,2.7,2.7,0,0,0,1,.8l1.4.2a3.7,3.7,0,0,0,1.5-.3,2.4,2.4,0,0,0,.9-.8,2.7,2.7,0,0,0,.3-1.2,2.1,2.1,0,0,0-.3-1.2A1.8,1.8,0,0,0,133.1,125.7Z" transform="translate(-25.2 -101.4)"/><path class="cls-1" d="M140.7,126.3a1.6,1.6,0,0,0-.8-.6l-1.3-.5-.9-.2-.6-.4a1.4,1.4,0,0,1-.2-.6,1.2,1.2,0,0,1,.3-.9,1.9,1.9,0,0,1,1.9.1.8.8,0,0,1,.4.7h1.4a1.9,1.9,0,0,0-.8-1.5,2.6,2.6,0,0,0-1.8-.6,2.9,2.9,0,0,0-1.4.3,2,2,0,0,0-1.3,1.9,2.1,2.1,0,0,0,.3,1.2,2.7,2.7,0,0,0,.8.7l1.3.4.9.3a.9.9,0,0,1,.6.4c.2.1.2.3.2.6a1.6,1.6,0,0,1-.3.9,1.8,1.8,0,0,1-1.1.3,1.7,1.7,0,0,1-1-.3,3.6,3.6,0,0,1-.4-.9h-1.4a2.8,2.8,0,0,0,.4,1.2,3.9,3.9,0,0,0,1,.8l1.4.2a3.3,3.3,0,0,0,1.5-.3,2.4,2.4,0,0,0,.9-.8,2.7,2.7,0,0,0,.3-1.2A2.1,2.1,0,0,0,140.7,126.3Z" transform="translate(-25.2 -101.4)"/><path class="cls-1" d="M95.6,138h2.9a2.3,2.3,0,0,1-.8,1.6,2.4,2.4,0,0,1-1.7.6,3.2,3.2,0,0,1-1.4-.3,3.1,3.1,0,0,1-1.3-2.5,2.4,2.4,0,0,1,.4-1.5,1.8,1.8,0,0,1,.9-1,2.3,2.3,0,0,1,1.4-.4,2.8,2.8,0,0,1,1.3.3,2.4,2.4,0,0,1,.8.9h1.6a3.5,3.5,0,0,0-1.5-1.7,3.8,3.8,0,0,0-2.2-.6,3.5,3.5,0,0,0-2,.5,4,4,0,0,0-1.5,1.4,4.6,4.6,0,0,0-.5,2.1,4.6,4.6,0,0,0,.5,2,5.4,5.4,0,0,0,1.5,1.5,4.6,4.6,0,0,0,2,.5,4.1,4.1,0,0,0,1.9-.5,5.3,5.3,0,0,0,1.4-1.2,4.9,4.9,0,0,0,.6-1.7v-1H95.6Z" transform="translate(-25.2 -101.4)"/><path class="cls-1" d="M106.2,137.3a2.5,2.5,0,0,0,.4-1.4,2.1,2.1,0,0,0-.3-1.2,2.6,2.6,0,0,0-.9-.9,3.5,3.5,0,0,0-1.6-.3h-2.7v7.9h1.3v-3.2h1l1.8,3.2h1.6l-2-3.3A2.2,2.2,0,0,0,106.2,137.3Zm-3.8-.1v-2.7h1.4a1.2,1.2,0,0,1,1.1.4,1.2,1.2,0,0,1,.4,1,1.3,1.3,0,0,1-.4,1,1.6,1.6,0,0,1-1.1.3Z" transform="translate(-25.2 -101.4)"/><path class="cls-1" d="M114,133.9a3.6,3.6,0,0,0-4,0,4,4,0,0,0-1.5,1.4,4.6,4.6,0,0,0-.5,2.1,4.6,4.6,0,0,0,.5,2,5.4,5.4,0,0,0,1.5,1.5,4.3,4.3,0,0,0,4,0,5.4,5.4,0,0,0,1.5-1.5,4.6,4.6,0,0,0,.5-2,4.6,4.6,0,0,0-.5-2.1A4,4,0,0,0,114,133.9Zm.3,4.9a2.4,2.4,0,0,1-.9,1.1,3.4,3.4,0,0,1-2.8,0,2.4,2.4,0,0,1-.9-1.1,2.3,2.3,0,0,1-.4-1.4,2.4,2.4,0,0,1,.4-1.5,1.8,1.8,0,0,1,.9-1,2.6,2.6,0,0,1,2.8,0,1.8,1.8,0,0,1,.9,1,2.4,2.4,0,0,1,.4,1.5A2.3,2.3,0,0,1,114.3,138.8Z" transform="translate(-25.2 -101.4)"/><path class="cls-1" d="M122.1,138.4a2,2,0,0,1-.5,1.4,2.3,2.3,0,0,1-2.6,0,2,2,0,0,1-.5-1.4v-5h-1.3v5a4.3,4.3,0,0,0,.4,1.7,3.1,3.1,0,0,0,1.1.9,2.9,2.9,0,0,0,1.6.4,2.4,2.4,0,0,0,1.5-.4,2.7,2.7,0,0,0,1.2-.9,4.3,4.3,0,0,0,.4-1.7v-5h-1.3Z" transform="translate(-25.2 -101.4)"/><path class="cls-1" d="M129.8,134.7a1.8,1.8,0,0,0-1-.9,3.3,3.3,0,0,0-1.5-.3h-2.7v7.9h1.3v-3.2h1.4a3.5,3.5,0,0,0,1.6-.3l.9-.9a2.3,2.3,0,0,0,.3-1.1A2.1,2.1,0,0,0,129.8,134.7Zm-1.4,2.1a1.2,1.2,0,0,1-1.1.4h-1.4v-2.7h1.4a1.2,1.2,0,0,1,1.1.4,1.1,1.1,0,0,1,.4,1A1,1,0,0,1,128.4,136.8Z" transform="translate(-25.2 -101.4)"/><polygon class="cls-2" points="67.1 1.3 66.8 1.3 66.8 4.5 72.7 4.5 66.8 12.9 66.8 12.9 66.8 15.6 77.2 15.6 77.5 15.6 77.5 12.3 71.6 12.3 77.5 3.9 77.5 1.3 67.1 1.3"/><path class="cls-2" d="M118.3,109h-8.1V112h3.6a3.2,3.2,0,0,1-2.9,1.6,3.9,3.9,0,0,1-3.8-4,3.8,3.8,0,0,1,3.8-3.9,3.5,3.5,0,0,1,2.7,1.3l.2.2,2.7-2.3-.3-.2a7,7,0,0,0-5.3-2.4,7.5,7.5,0,0,0-7.4,7.3,7.4,7.4,0,0,0,7.4,7.4H112a7,7,0,0,0,3.9-1.8,7.2,7.2,0,0,0,2.4-5.5Z" transform="translate(-25.2 -101.4)"/><polygon class="cls-1" points="53.1 0.9 48.8 0.9 46.7 0.9 43.4 15.3 43.3 15.6 37.7 40 39.7 40 44 40 46.1 40 51.8 15.6 51.8 15.3 55.2 0.9 53.1 0.9"/><polygon class="cls-1" points="49.3 40 52.6 25.7 58 40 49.3 40"/><polygon class="cls-2" points="8.7 0.9 5.4 15.2 0 0.9 8.7 0.9"/><polygon class="cls-2" points="18.2 0.9 13.9 0.9 11.8 0.9 6.2 25.3 6.1 25.6 2.8 40 4.9 40 9.2 40 11.3 40 14.6 25.6 14.7 25.3 20.3 0.9 18.2 0.9"/><polygon class="cls-2" points="29.8 0.9 25.5 0.9 23.5 0.9 17.8 25.3 17.7 25.6 14.4 40 16.5 40 20.8 40 22.9 40 26.2 25.6 26.3 25.3 31.9 0.9 29.8 0.9"/><polygon class="cls-1" points="41.5 0.9 37.2 0.9 35.1 0.9 29.4 25.3 29.4 25.6 26 40 28.1 40 32.4 40 34.5 40 37.8 25.6 37.9 25.3 43.5 0.9 41.5 0.9"/><rect class="cls-2" x="123.7" width="0.3" height="40.9"/><path class="cls-2" d="M159.9,117.7h3.6v1.6h-5.8v-1.5l3.5-5.1h-3.5v-1.6h5.8v1.5Z" transform="translate(-25.2 -101.4)"/><path class="cls-2" d="M166.1,119.1a3.1,3.1,0,0,1-1.1-.9,2.9,2.9,0,0,1-.5-1.3h2.2a.9.9,0,0,0,.3.7l.7.2.7-.2c.2-.2.2-.3.2-.6s0-.4-.2-.5l-.5-.3-.8-.3-1.3-.5-.9-.7a2.5,2.5,0,0,1-.3-1.3,2.2,2.2,0,0,1,.8-1.8,3.6,3.6,0,0,1,2.2-.6,3.3,3.3,0,0,1,2.1.6,2.3,2.3,0,0,1,.9,1.8h-2.1a.7.7,0,0,0-.3-.6.8.8,0,0,0-.7-.2c-.3,0-.4,0-.6.2a.8.8,0,0,0-.2.5.8.8,0,0,0,.4.7l1.1.4,1.3.5a3.2,3.2,0,0,1,.9.8,2.1,2.1,0,0,1,.3,1.2,2.4,2.4,0,0,1-.3,1.2,2.4,2.4,0,0,1-1.1.9,2.5,2.5,0,0,1-1.6.4A4.1,4.1,0,0,1,166.1,119.1Z" transform="translate(-25.2 -101.4)"/><path class="cls-2" d="M158,126.7a3.1,3.1,0,0,1,1.5-1.5,3.7,3.7,0,0,1,2.1-.6,4.1,4.1,0,0,1,2.5.8,3.4,3.4,0,0,1,1.4,2.1h-2.2a1.6,1.6,0,0,0-.7-.7,1.7,1.7,0,0,0-1-.3,2,2,0,0,0-1.5.6,2.7,2.7,0,0,0,0,3.4,1.8,1.8,0,0,0,1.5.7,1.7,1.7,0,0,0,1-.3,1.9,1.9,0,0,0,.7-.8h2.2a3.4,3.4,0,0,1-1.4,2.1,4.1,4.1,0,0,1-2.5.8,4.6,4.6,0,0,1-2.1-.5A4.3,4.3,0,0,1,158,131a5.1,5.1,0,0,1-.5-2.2A4.6,4.6,0,0,1,158,126.7Z" transform="translate(-25.2 -101.4)"/><path class="cls-2" d="M168,132.6a2.6,2.6,0,0,1-1.2-1.1,3.7,3.7,0,0,1-.5-1.8,3.5,3.5,0,0,1,1.7-3,3.8,3.8,0,0,1,3.4,0,3,3,0,0,1,1.3,1.2,4.8,4.8,0,0,1,.4,1.8,3.4,3.4,0,0,1-.5,1.7,2.8,2.8,0,0,1-1.2,1.2,3.3,3.3,0,0,1-1.7.4A3.1,3.1,0,0,1,168,132.6Zm2.7-1.7a2,2,0,0,0,0-2.4,1.3,1.3,0,0,0-2,0,1.7,1.7,0,0,0-.3,1.2,2.1,2.1,0,0,0,.3,1.2,1.5,1.5,0,0,0,2,0Z" transform="translate(-25.2 -101.4)"/><path class="cls-2" d="M180,127.1a3.2,3.2,0,0,1,.6,2v3.8h-1.9v-3.5a1.5,1.5,0,0,0-.4-1,1.2,1.2,0,0,0-1.8,0,1.5,1.5,0,0,0-.3,1v3.5h-2v-6.5h2v.9a1.9,1.9,0,0,1,.8-.7,2,2,0,0,1,1.1-.3A2.6,2.6,0,0,1,180,127.1Z" transform="translate(-25.2 -101.4)"/><path class="cls-2" d="M183.2,132.7a2.3,2.3,0,0,1-1.1-.8,2.1,2.1,0,0,1-.4-1.1h2a.9.9,0,0,0,.3.6l.7.2.5-.2c.2-.1.2-.2.2-.4a.5.5,0,0,0-.2-.4l-1-.3L183,130a2.1,2.1,0,0,1-.8-.6,1.5,1.5,0,0,1-.3-1,2,2,0,0,1,.3-1.1,2.2,2.2,0,0,1,.9-.7,3.2,3.2,0,0,1,1.4-.3,3,3,0,0,1,2,.6,2.5,2.5,0,0,1,.8,1.6h-1.9a.5.5,0,0,0-.3-.5c-.1-.2-.3-.2-.6-.2H184c-.2.1-.2.2-.2.4s.1.3.3.4l.9.3a3.4,3.4,0,0,1,1.2.4,1.6,1.6,0,0,1,.8.6,1.5,1.5,0,0,1,.3,1,2,2,0,0,1-.3,1.1,2.2,2.2,0,0,1-.9.7l-1.4.2A3.3,3.3,0,0,1,183.2,132.7Z" transform="translate(-25.2 -101.4)"/><path class="cls-2" d="M192.2,131.2v1.7h-1a2.2,2.2,0,0,1-1.7-.5,2.1,2.1,0,0,1-.6-1.7v-2.6h-.8v-1.7h.8v-1.6h2v1.6h1.3v1.7h-1.3v2.6c0,.2,0,.3.1.4h1.2Z" transform="translate(-25.2 -101.4)"/><path class="cls-2" d="M196.2,126.7a2.1,2.1,0,0,1,1.1-.4v2.2h-.5a1.6,1.6,0,0,0-1.1.3,1.2,1.2,0,0,0-.4,1.1v3h-2v-6.5h2v1.2A2,2,0,0,1,196.2,126.7Z" transform="translate(-25.2 -101.4)"/><path class="cls-2" d="M204.7,126.4v6.5h-2V132a1.4,1.4,0,0,1-.8.7,2,2,0,0,1-1.1.3,3.2,3.2,0,0,1-1.4-.3,2.7,2.7,0,0,1-.8-1,2.4,2.4,0,0,1-.4-1.5v-3.8h2V130a1.3,1.3,0,0,0,.4,1,1.5,1.5,0,0,0,1.8,0,1.7,1.7,0,0,0,.3-1v-3.6Z" transform="translate(-25.2 -101.4)"/><path class="cls-2" d="M206.2,127.9a4.3,4.3,0,0,1,1.1-1.2,4.7,4.7,0,0,1,1.7-.4,3,3,0,0,1,2.1.7,3.3,3.3,0,0,1,1.1,1.8h-2.1a1.2,1.2,0,0,0-1.1-.8c-.4,0-.6.2-.9.5a1.7,1.7,0,0,0-.3,1.2,2.1,2.1,0,0,0,.3,1.2,1.2,1.2,0,0,0,2-.3h2.1a4.2,4.2,0,0,1-1.1,1.8,3.5,3.5,0,0,1-2.1.6,3.3,3.3,0,0,1-1.7-.4,3.8,3.8,0,0,1-1.1-1.1,3.7,3.7,0,0,1-.4-1.8A3.4,3.4,0,0,1,206.2,127.9Z" transform="translate(-25.2 -101.4)"/><path class="cls-2" d="M216.9,131.2v1.7h-1a2.2,2.2,0,0,1-1.7-.5,2.1,2.1,0,0,1-.6-1.7v-2.6h-.8v-1.7h.8v-1.6h2v1.6h1.3v1.7h-1.3v2.6c0,.2,0,.3.1.4h1.2Z" transform="translate(-25.2 -101.4)"/><path class="cls-2" d="M218.1,125.4a.9.9,0,0,1-.3-.7,1.1,1.1,0,0,1,.3-.8,1.4,1.4,0,0,1,.9-.3,1.1,1.1,0,0,1,.8.3.9.9,0,0,1,.4.8.8.8,0,0,1-.4.7,1.1,1.1,0,0,1-.8.3A1.4,1.4,0,0,1,218.1,125.4Zm1.9,1v6.5h-2v-6.5Z" transform="translate(-25.2 -101.4)"/><path class="cls-2" d="M222.7,132.6a3.2,3.2,0,0,1-1.2-1.1,3.7,3.7,0,0,1-.5-1.8,3.5,3.5,0,0,1,1.7-3,4.7,4.7,0,0,1,1.7-.4,5.3,5.3,0,0,1,1.8.4,3.2,3.2,0,0,1,1.6,3,3.3,3.3,0,0,1-.4,1.7,2.5,2.5,0,0,1-1.3,1.2,3.8,3.8,0,0,1-3.4,0Zm2.7-1.7a2,2,0,0,0,0-2.4,1.4,1.4,0,0,0-1-.5,1.1,1.1,0,0,0-.9.5c-.3.2-.4.6-.4,1.2a2.1,2.1,0,0,0,.3,1.2,1.5,1.5,0,0,0,2,0Z" transform="translate(-25.2 -101.4)"/><path class="cls-2" d="M234.7,127.1a3.2,3.2,0,0,1,.7,2v3.8h-2v-3.5a1.2,1.2,0,0,0-.4-1,1.2,1.2,0,0,0-1.8,0,1.5,1.5,0,0,0-.3,1v3.5h-2v-6.5h2v.9a1.9,1.9,0,0,1,.8-.7,2,2,0,0,1,1.1-.3A2.6,2.6,0,0,1,234.7,127.1Z" transform="translate(-25.2 -101.4)"/></svg>