<svg id="Layer_1" data-name="Layer 1" xmlns="http://www.w3.org/2000/svg" viewBox="0 0 284.3 40.9"><defs><style>.cls-1{fill:#c9a34b;}.cls-2{fill:#fff;}</style></defs><path class="cls-1" d="M96.2,125.7a2.1,2.1,0,0,0,1-.6,2.1,2.1,0,0,0,.3-1.2,1.7,1.7,0,0,0-.3-1c-.1-.3-.4-.5-.8-.7a3.2,3.2,0,0,0-1.4-.3H92v7.9h3.1a2.9,2.9,0,0,0,1.4-.3,2.4,2.4,0,0,0,.9-.8,2,2,0,0,0,.3-1.1,1.9,1.9,0,0,0-.4-1.2A1.9,1.9,0,0,0,96.2,125.7Zm-2.9-2.8h1.6a1.7,1.7,0,0,1,1,.3,1.2,1.2,0,0,1,.3.9,1.1,1.1,0,0,1-.3.8,1.7,1.7,0,0,1-1,.3H93.3Zm2.8,5.5a1.8,1.8,0,0,1-1.1.3H93.3v-2.5H95a1.5,1.5,0,0,1,1,.4,1,1,0,0,1,.4.9A1.2,1.2,0,0,1,96.1,128.4Z" transform="translate(-25.2 -101.4)"/><path class="cls-1" d="M103.8,126.9a1.7,1.7,0,0,1-1.8,1.8,1.9,1.9,0,0,1-1.3-.5,1.7,1.7,0,0,1-.5-1.3v-5H99v5a2.7,2.7,0,0,0,.4,1.6,1.8,1.8,0,0,0,1.1,1,3.3,3.3,0,0,0,1.5.3,4.1,4.1,0,0,0,1.6-.3,2.6,2.6,0,0,0,1.1-1,2.7,2.7,0,0,0,.4-1.6v-5h-1.3Z" transform="translate(-25.2 -101.4)"/><path class="cls-1" d="M110.6,125.7l-1.2-.5-1-.2-.5-.4a.7.7,0,0,1-.2-.6,1.2,1.2,0,0,1,.3-.9c.2-.2.5-.2.9-.2a1.5,1.5,0,0,1,1,.3,1,1,0,0,1,.4.7h1.4a1.9,1.9,0,0,0-.8-1.5,2.9,2.9,0,0,0-1.9-.6,3.2,3.2,0,0,0-1.4.3,1.8,1.8,0,0,0-.9.8,2.1,2.1,0,0,0-.4,1.1,2.1,2.1,0,0,0,.4,1.2,2.7,2.7,0,0,0,.8.7l1.3.4.9.3.6.4a.8.8,0,0,1,.2.6,1.2,1.2,0,0,1-.4.9,1.8,1.8,0,0,1-2,0,1.8,1.8,0,0,1-.4-.9h-1.4a1.9,1.9,0,0,0,.4,1.2,2.7,2.7,0,0,0,1,.8l1.4.2a3.7,3.7,0,0,0,1.5-.3,2.4,2.4,0,0,0,.9-.8,2.7,2.7,0,0,0,.3-1.2,2.1,2.1,0,0,0-.3-1.2A1.8,1.8,0,0,0,110.6,125.7Z" transform="translate(-25.2 -101.4)"/><rect class="cls-1" x="87.9" y="20.5" width="1.3" height="7.85"/><polygon class="cls-1" points="95.6 26.4 91.7 20.5 90.4 20.5 90.4 28.4 91.7 28.4 91.7 22.5 95.6 28.4 96.9 28.4 96.9 20.5 95.6 20.5 95.6 26.4"/><polygon class="cls-1" points="98.1 28.4 102.4 28.4 102.4 27.4 99.4 27.4 99.4 24.9 102.1 24.9 102.1 23.9 99.4 23.9 99.4 21.5 102.4 21.5 102.4 20.5 98.1 20.5 98.1 28.4"/><path class="cls-1" d="M133.1,125.7l-1.2-.5-1-.2-.5-.4a.7.7,0,0,1-.2-.6,1.2,1.2,0,0,1,.3-.9c.2-.2.5-.2.9-.2a1.5,1.5,0,0,1,1,.3,1,1,0,0,1,.4.7h1.4a1.9,1.9,0,0,0-.8-1.5,2.9,2.9,0,0,0-1.9-.6,3.2,3.2,0,0,0-1.4.3,1.8,1.8,0,0,0-.9.8,2.1,2.1,0,0,0-.4,1.1,2.1,2.1,0,0,0,.4,1.2,2.7,2.7,0,0,0,.8.7l1.3.4.9.3.6.4a.8.8,0,0,1,.2.6,1.2,1.2,0,0,1-.4.9,1.8,1.8,0,0,1-2,0,1.8,1.8,0,0,1-.4-.9h-1.4a1.9,1.9,0,0,0,.4,1.2,2.7,2.7,0,0,0,1,.8l1.4.2a3.7,3.7,0,0,0,1.5-.3,2.4,2.4,0,0,0,.9-.8,2.7,2.7,0,0,0,.3-1.2,2.1,2.1,0,0,0-.3-1.2A1.8,1.8,0,0,0,133.1,125.7Z" transform="translate(-25.2 -101.4)"/><path class="cls-1" d="M140.7,126.3a1.6,1.6,0,0,0-.8-.6l-1.3-.5-.9-.2-.6-.4a1.4,1.4,0,0,1-.2-.6,1.2,1.2,0,0,1,.3-.9,1.9,1.9,0,0,1,1.9.1.8.8,0,0,1,.4.7h1.4a1.9,1.9,0,0,0-.8-1.5,2.6,2.6,0,0,0-1.8-.6,2.9,2.9,0,0,0-1.4.3,2,2,0,0,0-1.3,1.9,2.1,2.1,0,0,0,.3,1.2,2.7,2.7,0,0,0,.8.7l1.3.4.9.3a.9.9,0,0,1,.6.4c.2.1.2.3.2.6a1.6,1.6,0,0,1-.3.9,1.8,1.8,0,0,1-1.1.3,1.7,1.7,0,0,1-1-.3,3.6,3.6,0,0,1-.4-.9h-1.4a2.8,2.8,0,0,0,.4,1.2,3.9,3.9,0,0,0,1,.8l1.4.2a3.3,3.3,0,0,0,1.5-.3,2.4,2.4,0,0,0,.9-.8,2.7,2.7,0,0,0,.3-1.2A2.1,2.1,0,0,0,140.7,126.3Z" transform="translate(-25.2 -101.4)"/><path class="cls-1" d="M95.6,138h2.9a2.3,2.3,0,0,1-.8,1.6,2.4,2.4,0,0,1-1.7.6,3.2,3.2,0,0,1-1.4-.3,3.1,3.1,0,0,1-1.3-2.5,2.4,2.4,0,0,1,.4-1.5,1.8,1.8,0,0,1,.9-1,2.3,2.3,0,0,1,1.4-.4,2.8,2.8,0,0,1,1.3.3,2.4,2.4,0,0,1,.8.9h1.6a3.5,3.5,0,0,0-1.5-1.7,3.8,3.8,0,0,0-2.2-.6,3.5,3.5,0,0,0-2,.5,4,4,0,0,0-1.5,1.4,4.6,4.6,0,0,0-.5,2.1,4.6,4.6,0,0,0,.5,2,5.4,5.4,0,0,0,1.5,1.5,4.6,4.6,0,0,0,2,.5,4.1,4.1,0,0,0,1.9-.5,5.3,5.3,0,0,0,1.4-1.2,4.9,4.9,0,0,0,.6-1.7v-1H95.6Z" transform="translate(-25.2 -101.4)"/><path class="cls-1" d="M106.2,137.3a2.5,2.5,0,0,0,.4-1.4,2.1,2.1,0,0,0-.3-1.2,2.6,2.6,0,0,0-.9-.9,3.5,3.5,0,0,0-1.6-.3h-2.7v7.9h1.3v-3.2h1l1.8,3.2h1.6l-2-3.3A2.2,2.2,0,0,0,106.2,137.3Zm-3.8-.1v-2.7h1.4a1.2,1.2,0,0,1,1.1.4,1.2,1.2,0,0,1,.4,1,1.3,1.3,0,0,1-.4,1,1.6,1.6,0,0,1-1.1.3Z" transform="translate(-25.2 -101.4)"/><path class="cls-1" d="M114,133.9a3.6,3.6,0,0,0-4,0,4,4,0,0,0-1.5,1.4,4.6,4.6,0,0,0-.5,2.1,4.6,4.6,0,0,0,.5,2,5.4,5.4,0,0,0,1.5,1.5,4.3,4.3,0,0,0,4,0,5.4,5.4,0,0,0,1.5-1.5,4.6,4.6,0,0,0,.5-2,4.6,4.6,0,0,0-.5-2.1A4,4,0,0,0,114,133.9Zm.3,4.9a2.4,2.4,0,0,1-.9,1.1,3.4,3.4,0,0,1-2.8,0,2.4,2.4,0,0,1-.9-1.1,2.3,2.3,0,0,1-.4-1.4,2.4,2.4,0,0,1,.4-1.5,1.8,1.8,0,0,1,.9-1,2.6,2.6,0,0,1,2.8,0,1.8,1.8,0,0,1,.9,1,2.4,2.4,0,0,1,.4,1.5A2.3,2.3,0,0,1,114.3,138.8Z" transform="translate(-25.2 -101.4)"/><path class="cls-1" d="M122.1,138.4a2,2,0,0,1-.5,1.4,2.3,2.3,0,0,1-2.6,0,2,2,0,0,1-.5-1.4v-5h-1.3v5a4.3,4.3,0,0,0,.4,1.7,3.1,3.1,0,0,0,1.1.9,2.9,2.9,0,0,0,1.6.4,2.4,2.4,0,0,0,1.5-.4,2.7,2.7,0,0,0,1.2-.9,4.3,4.3,0,0,0,.4-1.7v-5h-1.3Z" transform="translate(-25.2 -101.4)"/><path class="cls-1" d="M129.8,134.7a1.8,1.8,0,0,0-1-.9,3.3,3.3,0,0,0-1.5-.3h-2.7v7.9h1.3v-3.2h1.4a3.5,3.5,0,0,0,1.6-.3l.9-.9a2.3,2.3,0,0,0,.3-1.1A2.1,2.1,0,0,0,129.8,134.7Zm-1.4,2.1a1.2,1.2,0,0,1-1.1.4h-1.4v-2.7h1.4a1.2,1.2,0,0,1,1.1.4,1.1,1.1,0,0,1,.4,1A1,1,0,0,1,128.4,136.8Z" transform="translate(-25.2 -101.4)"/><polygon class="cls-2" points="67.1 1.3 66.8 1.3 66.8 4.5 72.7 4.5 66.8 12.9 66.8 12.9 66.8 15.6 77.2 15.6 77.5 15.6 77.5 12.3 71.6 12.3 77.5 3.9 77.5 1.3 67.1 1.3"/><path class="cls-2" d="M118.3,109h-8.1V112h3.6a3.2,3.2,0,0,1-2.9,1.6,3.9,3.9,0,0,1-3.8-4,3.8,3.8,0,0,1,3.8-3.9,3.5,3.5,0,0,1,2.7,1.3l.2.2,2.7-2.3-.3-.2a7,7,0,0,0-5.3-2.4,7.5,7.5,0,0,0-7.4,7.3,7.4,7.4,0,0,0,7.4,7.4H112a7,7,0,0,0,3.9-1.8,7.2,7.2,0,0,0,2.4-5.5Z" transform="translate(-25.2 -101.4)"/><polygon class="cls-1" points="53.1 0.9 48.8 0.9 46.7 0.9 43.4 15.3 43.3 15.6 37.7 40 39.7 40 44 40 46.1 40 51.8 15.6 51.8 15.3 55.2 0.9 53.1 0.9"/><polygon class="cls-1" points="49.3 40 52.6 25.7 58 40 49.3 40"/><polygon class="cls-2" points="8.7 0.9 5.4 15.2 0 0.9 8.7 0.9"/><polygon class="cls-2" points="18.2 0.9 13.9 0.9 11.8 0.9 6.2 25.3 6.1 25.6 2.8 40 4.9 40 9.2 40 11.3 40 14.6 25.6 14.7 25.3 20.3 0.9 18.2 0.9"/><polygon class="cls-2" points="29.8 0.9 25.5 0.9 23.5 0.9 17.8 25.3 17.7 25.6 14.4 40 16.5 40 20.8 40 22.9 40 26.2 25.6 26.3 25.3 31.9 0.9 29.8 0.9"/><polygon class="cls-1" points="41.5 0.9 37.2 0.9 35.1 0.9 29.4 25.3 29.4 25.6 26 40 28.1 40 32.4 40 34.5 40 37.8 25.6 37.9 25.3 43.5 0.9 41.5 0.9"/><rect class="cls-2" x="123.7" width="0.3" height="40.9"/><path class="cls-2" d="M160.1,110.4h3.5v1.7h-5.8v-1.5l3.6-5.1h-3.6v-1.6h5.8v1.5Z" transform="translate(-25.2 -101.4)"/><path class="cls-2" d="M165.1,105.8a5.4,5.4,0,0,1,1.5-1.5,5.4,5.4,0,0,1,2.2-.5,4.1,4.1,0,0,1,2.5.7,3.5,3.5,0,0,1,1.3,2h-2.2l-.6-.7-1-.2a1.9,1.9,0,0,0-1.6.7,2.4,2.4,0,0,0-.6,1.7,2.4,2.4,0,0,0,.7,1.7,1.9,1.9,0,0,0,1.6.7,2.5,2.5,0,0,0,1.3-.4,2.1,2.1,0,0,0,.7-1.1h-2.5v-1.4h4.3v1.8a3.7,3.7,0,0,1-.7,1.4,3.6,3.6,0,0,1-1.4,1,3.4,3.4,0,0,1-1.8.4,4.2,4.2,0,0,1-2.2-.5,3.6,3.6,0,0,1-1.5-1.5,4.6,4.6,0,0,1-.5-2.1A5.1,5.1,0,0,1,165.1,105.8Z" transform="translate(-25.2 -101.4)"/><path class="cls-2" d="M182.7,108.6a1.9,1.9,0,0,1,.4,1.2,2.1,2.1,0,0,1-.7,1.7,3.2,3.2,0,0,1-2,.6h-3.8v-8.2h3.6a3,3,0,0,1,2,.6,1.7,1.7,0,0,1,.7,1.5,1.6,1.6,0,0,1-.4,1.2,2.6,2.6,0,0,1-1,.7A1.9,1.9,0,0,1,182.7,108.6Zm-4.1-1.4h1.3l.7-.2a.9.9,0,0,0,.3-.7.7.7,0,0,0-.3-.6.8.8,0,0,0-.7-.2h-1.3Zm2.2,3.1a1,1,0,0,0,0-1.4,1.1,1.1,0,0,0-.8-.3h-1.4v1.9H180Z" transform="translate(-25.2 -101.4)"/><path class="cls-2" d="M190.7,105.6v6.5h-2v-.9a2.7,2.7,0,0,1-.8.7l-1.2.3a2.8,2.8,0,0,1-1.3-.4,2,2,0,0,1-.9-.9,4,4,0,0,1-.3-1.5v-3.8h2v3.5a1.5,1.5,0,0,0,.3,1,1,1,0,0,0,.9.4,1.3,1.3,0,0,0,1-.4,1.5,1.5,0,0,0,.3-1v-3.5Z" transform="translate(-25.2 -101.4)"/><path class="cls-2" d="M193.3,111.9a3.1,3.1,0,0,1-1.1-.8,2.5,2.5,0,0,1-.4-1.2h2a.6.6,0,0,0,.3.6c.1.2.4.2.7.2h.5a.4.4,0,0,0,.2-.4c0-.2-.1-.4-.3-.4l-.9-.3-1.2-.4-.8-.5a2,2,0,0,1-.3-1.1,1.7,1.7,0,0,1,.3-1,2.4,2.4,0,0,1,.9-.8l1.4-.2a3,3,0,0,1,2,.6,2.7,2.7,0,0,1,.8,1.6h-1.9a.7.7,0,0,0-.3-.6l-.6-.2-.6.2c-.1,0-.1.2-.1.4a.5.5,0,0,0,.3.4l.9.3,1.2.3a2.1,2.1,0,0,1,.8.6,1.8,1.8,0,0,1,.3,1.1,1.7,1.7,0,0,1-.3,1,2.2,2.2,0,0,1-.9.7,3.2,3.2,0,0,1-1.4.3A3.3,3.3,0,0,1,193.3,111.9Z" transform="translate(-25.2 -101.4)"/><path class="cls-2" d="M198.8,104.6a1.2,1.2,0,0,1,0-1.6,1.2,1.2,0,0,1,.9-.3,1.1,1.1,0,1,1,0,2.2A1.2,1.2,0,0,1,198.8,104.6Zm1.8,1v6.5h-2v-6.5Z" transform="translate(-25.2 -101.4)"/><path class="cls-2" d="M207.9,106.2a2.8,2.8,0,0,1,.7,2.1v3.8h-2v-3.6a1.1,1.1,0,0,0-1.3-1.3,1.6,1.6,0,0,0-.9.3,1.7,1.7,0,0,0-.3,1v3.6h-2v-6.5h2v.8a2.7,2.7,0,0,1,.8-.7l1.2-.2A2.4,2.4,0,0,1,207.9,106.2Z" transform="translate(-25.2 -101.4)"/><path class="cls-2" d="M216.1,109.3h-4.5a1.2,1.2,0,0,0,.3.9,1.6,1.6,0,0,0,.9.3,1,1,0,0,0,1-.6H216a3.4,3.4,0,0,1-.6,1.2l-1.1.8a3.2,3.2,0,0,1-1.4.3,4.3,4.3,0,0,1-1.7-.4,3.2,3.2,0,0,1-1.6-3,3.7,3.7,0,0,1,.4-1.8,2.5,2.5,0,0,1,1.2-1.1,2.9,2.9,0,0,1,1.7-.4,3.3,3.3,0,0,1,1.7.4,2.9,2.9,0,0,1,1.1,1.1,3.3,3.3,0,0,1,.4,1.7Zm-2-1a1,1,0,0,0-.4-.9,1.2,1.2,0,0,0-.9-.3,1.1,1.1,0,0,0-.8.3,1.3,1.3,0,0,0-.4.9Z" transform="translate(-25.2 -101.4)"/><path class="cls-2" d="M218.3,111.9l-1.1-.8a2.5,2.5,0,0,1-.4-1.2h2a.6.6,0,0,0,.3.6.8.8,0,0,0,.7.2h.6l.2-.4c0-.2-.1-.4-.3-.4l-1-.3-1.1-.4-.8-.5a2.1,2.1,0,0,1-.4-1.1,1.7,1.7,0,0,1,.3-1,3.9,3.9,0,0,1,1-.8l1.4-.2a2.9,2.9,0,0,1,1.9.6,1.9,1.9,0,0,1,.8,1.6h-1.8l-.3-.6-.7-.2-.5.2c-.1,0-.2.2-.2.4a.5.5,0,0,0,.3.4l.9.3,1.2.3a1.6,1.6,0,0,1,.8.6,1.8,1.8,0,0,1,.3,1.1,1.7,1.7,0,0,1-.3,1,2.2,2.2,0,0,1-.9.7,3.2,3.2,0,0,1-1.4.3A3.3,3.3,0,0,1,218.3,111.9Z" transform="translate(-25.2 -101.4)"/><path class="cls-2" d="M224.8,111.9a2.7,2.7,0,0,1-1-.8,2.6,2.6,0,0,1-.5-1.2h2a.6.6,0,0,0,.3.6.8.8,0,0,0,.7.2h.6l.2-.4c0-.2-.1-.4-.3-.4l-1-.3-1.1-.4-.8-.5a2,2,0,0,1-.3-1.1,1.7,1.7,0,0,1,.3-1,2.4,2.4,0,0,1,.9-.8l1.4-.2a2.7,2.7,0,0,1,1.9.6,1.9,1.9,0,0,1,.8,1.6h-1.8a.7.7,0,0,0-.3-.6l-.7-.2-.5.2c-.1,0-.2.2-.2.4a.5.5,0,0,0,.3.4l.9.3,1.2.3a1.6,1.6,0,0,1,.8.6,1.4,1.4,0,0,1,.4,1.1,1.7,1.7,0,0,1-.3,1l-1,.7a2.9,2.9,0,0,1-1.4.3Z" transform="translate(-25.2 -101.4)"/><path class="cls-2" d="M233.1,105.8a4.3,4.3,0,0,1,1.5-1.5,4.6,4.6,0,0,1,2.1-.5,4.1,4.1,0,0,1,2.5.7,3.7,3.7,0,0,1,1.4,2h-2.3a1.3,1.3,0,0,0-.6-.7l-1-.2a1.8,1.8,0,0,0-1.5.7,2.7,2.7,0,0,0,0,3.4,2.1,2.1,0,0,0,1.7.7,2.8,2.8,0,0,0,1.3-.4,3,3,0,0,0,.7-1.1h-2.5v-1.4h4.3v1.8a3.9,3.9,0,0,1-.8,1.4,3.2,3.2,0,0,1-1.3,1,4.1,4.1,0,0,1-1.9.4,3.6,3.6,0,0,1-2.1-.5,3.1,3.1,0,0,1-1.5-1.5,3.6,3.6,0,0,1-.5-2.1A4,4,0,0,1,233.1,105.8Z" transform="translate(-25.2 -101.4)"/><path class="cls-2" d="M244.7,105.8a2.1,2.1,0,0,1,1.2-.3v2.1h-.6a1.6,1.6,0,0,0-1.1.3c-.3.2-.4.6-.4,1.2v3h-2v-6.5h2v1.1A2,2,0,0,1,244.7,105.8Z" transform="translate(-25.2 -101.4)"/><path class="cls-2" d="M248.1,111.8a2.3,2.3,0,0,1-1.2-1.2,3.5,3.5,0,0,1-.5-1.8,3.4,3.4,0,0,1,.5-1.7,2.3,2.3,0,0,1,1.2-1.2,3.8,3.8,0,0,1,3.4,0,2.3,2.3,0,0,1,1.2,1.2,3.4,3.4,0,0,1,.5,1.7,3.5,3.5,0,0,1-1.7,3,4.7,4.7,0,0,1-1.7.4A4.3,4.3,0,0,1,248.1,111.8Zm2.7-1.8a2,2,0,0,0,0-2.4,1.4,1.4,0,0,0-2,0,2,2,0,0,0,0,2.4,1.3,1.3,0,0,0,2,0Z" transform="translate(-25.2 -101.4)"/><path class="cls-2" d="M260.7,105.6v6.5h-2v-.9a2.7,2.7,0,0,1-.8.7,2.7,2.7,0,0,1-1.2.3,2.8,2.8,0,0,1-1.3-.4,2,2,0,0,1-.9-.9,4,4,0,0,1-.3-1.5v-3.8h2v3.5a1.5,1.5,0,0,0,.3,1,1,1,0,0,0,.9.4,1.3,1.3,0,0,0,1-.4,1.5,1.5,0,0,0,.3-1v-3.5Z" transform="translate(-25.2 -101.4)"/><path class="cls-2" d="M264.9,105.7l1.2-.2a2.4,2.4,0,0,1,1.5.4,2.2,2.2,0,0,1,1,1.1,3.7,3.7,0,0,1,.4,1.8,3.4,3.4,0,0,1-.4,1.8,2.9,2.9,0,0,1-1,1.2,3.3,3.3,0,0,1-1.5.4,2.7,2.7,0,0,1-1.2-.3,2.7,2.7,0,0,1-.8-.7v4h-2v-9.6h2v.9Zm1.7,1.9a2.1,2.1,0,0,0-1.1-.4,1.8,1.8,0,0,0-1,.4,2,2,0,0,0,0,2.4,1.3,1.3,0,0,0,1,.4,1.5,1.5,0,0,0,1.1-.4,2,2,0,0,0,0-2.4Z" transform="translate(-25.2 -101.4)"/><path class="cls-2" d="M162.2,125.7l-1.7-3.1H160v3.1h-2v-8.2h3.3a4.3,4.3,0,0,1,1.7.3,2.4,2.4,0,0,1,1,1,2.8,2.8,0,0,1,.4,1.3,3,3,0,0,1-.5,1.5,2.8,2.8,0,0,1-1.4.9l1.9,3.2Zm-2.2-4.5h1.2c.4,0,.7-.1.8-.3a.8.8,0,0,0,.3-.7,1.1,1.1,0,0,0-.3-.8c-.1-.2-.4-.3-.8-.3H160Z" transform="translate(-25.2 -101.4)"/><path class="cls-2" d="M171.7,122.9h-4.5a1.8,1.8,0,0,0,.4,1,1.1,1.1,0,0,0,.8.3,1.1,1.1,0,0,0,1.1-.7h2.1a2.3,2.3,0,0,1-.6,1.2,3.1,3.1,0,0,1-1.1.8,3.2,3.2,0,0,1-1.4.3,3.3,3.3,0,0,1-1.7-.4,3.4,3.4,0,0,1-1.2-1.2,3.3,3.3,0,0,1-.4-1.7,3.2,3.2,0,0,1,1.6-3,3.8,3.8,0,0,1,3.4,0,2.3,2.3,0,0,1,1.1,1.1,3.4,3.4,0,0,1,.5,1.7C171.8,122.5,171.7,122.7,171.7,122.9Zm-2-1a1.2,1.2,0,0,0-.3-.9,1.6,1.6,0,0,0-.9-.3,1.4,1.4,0,0,0-.9.3,1.3,1.3,0,0,0-.4.9Z" transform="translate(-25.2 -101.4)"/><path class="cls-2" d="M172.8,120.7a2.9,2.9,0,0,1,1-1.2,2.6,2.6,0,0,1,1.5-.4l1.2.3a2.7,2.7,0,0,1,.8.7v-.9h2v6.5h-2v-.9a2.7,2.7,0,0,1-.8.7,2.7,2.7,0,0,1-1.2.3,2.6,2.6,0,0,1-1.5-.4,2.9,2.9,0,0,1-1-1.2,3.4,3.4,0,0,1-.4-1.8A3.3,3.3,0,0,1,172.8,120.7Zm4.1.6a1.4,1.4,0,0,0-1-.5,1.2,1.2,0,0,0-1,.5,1.3,1.3,0,0,0-.5,1.1,1.7,1.7,0,0,0,.5,1.2,1.2,1.2,0,0,0,1,.5,1.4,1.4,0,0,0,1-.5,1.5,1.5,0,0,0,.4-1.1A1.6,1.6,0,0,0,176.9,121.3Z" transform="translate(-25.2 -101.4)"/><path class="cls-2" d="M182.7,117.1v8.6h-2v-8.6Z" transform="translate(-25.2 -101.4)"/><path class="cls-2" d="M188.9,119.1v1.7h2.7v1.5h-2.7v1.8h3v1.6h-5v-8.2h5v1.6Z" transform="translate(-25.2 -101.4)"/><path class="cls-2" d="M194.3,125.5a2,2,0,0,1-1-.8,1.5,1.5,0,0,1-.4-1.1h1.9l.3.6.7.2.6-.2a.5.5,0,0,0,.2-.4c0-.2-.1-.3-.3-.4l-.9-.3-1.2-.3-.8-.6a1.8,1.8,0,0,1-.3-1.1,1.9,1.9,0,0,1,.3-1,2.2,2.2,0,0,1,.9-.7,3.2,3.2,0,0,1,1.4-.3,2.7,2.7,0,0,1,1.9.6,2.4,2.4,0,0,1,.9,1.6h-1.9a.5.5,0,0,0-.3-.5.7.7,0,0,0-.6-.3l-.6.2a.5.5,0,0,0-.2.4c0,.2.1.3.3.4l1,.3,1.1.3.8.6a1.5,1.5,0,0,1,.4,1.1,1.7,1.7,0,0,1-.3,1,1.6,1.6,0,0,1-.9.7,3.3,3.3,0,0,1-1.5.3A4,4,0,0,1,194.3,125.5Z" transform="translate(-25.2 -101.4)"/><path class="cls-2" d="M203.4,124v1.7h-1.1a3.1,3.1,0,0,1-1.7-.5,2.4,2.4,0,0,1-.6-1.8v-2.5h-.8v-1.7h.8v-1.6h2v1.6h1.3v1.7H202v2.6a.5.5,0,0,0,.2.4h1.2Z" transform="translate(-25.2 -101.4)"/><path class="cls-2" d="M204.4,120.7a3.2,3.2,0,0,1,1.1-1.2,2.3,2.3,0,0,1,1.4-.4,2.8,2.8,0,0,1,1.3.3,2.7,2.7,0,0,1,.8.7v-.9h2v6.5h-2v-.9a2.2,2.2,0,0,1-.9.7,2.1,2.1,0,0,1-1.2.3,2.3,2.3,0,0,1-1.4-.4,3.2,3.2,0,0,1-1.1-1.2,4.8,4.8,0,0,1-.3-1.8A4.7,4.7,0,0,1,204.4,120.7Zm4.1.6a1.2,1.2,0,0,0-1-.5,1.4,1.4,0,0,0-1,.5,1.2,1.2,0,0,0-.4,1.1,1.6,1.6,0,0,0,.4,1.2,1.4,1.4,0,0,0,1,.5,1.2,1.2,0,0,0,1-.5,1.6,1.6,0,0,0,.5-1.1A1.7,1.7,0,0,0,208.5,121.3Z" transform="translate(-25.2 -101.4)"/><path class="cls-2" d="M216,124v1.7h-1a2.9,2.9,0,0,1-1.7-.5,2.4,2.4,0,0,1-.6-1.8v-2.5h-.8v-1.7h.8v-1.6h2v1.6H216v1.7h-1.3v2.6a.5.5,0,0,0,.2.4H216Z" transform="translate(-25.2 -101.4)"/><path class="cls-2" d="M223.3,122.9h-4.6a3,3,0,0,0,.4,1,1.2,1.2,0,0,0,.9.3,1,1,0,0,0,1-.7h2.1a2.3,2.3,0,0,1-.6,1.2,2.7,2.7,0,0,1-1,.8,3.7,3.7,0,0,1-1.5.3,3.3,3.3,0,0,1-1.7-.4,2.5,2.5,0,0,1-1.1-1.2,3.4,3.4,0,0,1-.5-1.7,3.5,3.5,0,0,1,.5-1.8,2.5,2.5,0,0,1,1.1-1.2,3.3,3.3,0,0,1,1.7-.4,3.1,3.1,0,0,1,1.7.4,3.2,3.2,0,0,1,1.2,1.1,3.3,3.3,0,0,1,.4,1.7Zm-2.1-1a1.1,1.1,0,0,0-1.2-1.2,1.1,1.1,0,0,0-.8.3,1.3,1.3,0,0,0-.5.9Z" transform="translate(-25.2 -101.4)"/><path class="cls-2" d="M232.2,125.7l-.7-1a2.4,2.4,0,0,1-.9.8,2.8,2.8,0,0,1-1.3.3,3.2,3.2,0,0,1-1.4-.3,2.8,2.8,0,0,1-.9-1,2.5,2.5,0,0,1-.3-1.3,2.4,2.4,0,0,1,.5-1.6,2.5,2.5,0,0,1,1.4-.8,2.2,2.2,0,0,1-.5-.8,1.9,1.9,0,0,1-.1-.8,2.2,2.2,0,0,1,.3-1,1.9,1.9,0,0,1,.8-.7,2.8,2.8,0,0,1,1.3-.3,3.1,3.1,0,0,1,1.7.5,1.9,1.9,0,0,1,.7,1.2,1.3,1.3,0,0,1,.1.6v.4H231v-.5a.8.8,0,0,0-.2-.4H230a.6.6,0,0,0-.1.4.4.4,0,0,0,.1.3l.2.5,4.1,5.5Zm-2.2-1.8a1,1,0,0,0,0-1.4l-.7-.2-.6.2a1,1,0,0,0,0,1.4c.1.2.4.2.6.2A.8.8,0,0,0,230,123.9Z" transform="translate(-25.2 -101.4)"/><path class="cls-2" d="M242.9,124.3h-3.1l-.5,1.4h-2l2.9-8.2h2.3l3,8.2h-2.1Zm-.5-1.6-1-3-1.1,3Z" transform="translate(-25.2 -101.4)"/><path class="cls-2" d="M249.2,119.4a2.1,2.1,0,0,1,1.2-.3,2.8,2.8,0,0,1,1.5.4,4,4,0,0,1,1,1.2,3.3,3.3,0,0,1,.4,1.7,3.4,3.4,0,0,1-.4,1.8,4,4,0,0,1-1,1.2,2.8,2.8,0,0,1-1.5.4,2.7,2.7,0,0,1-1.2-.3,2.7,2.7,0,0,1-.8-.7v4h-2v-9.6h2v.9A2.7,2.7,0,0,1,249.2,119.4Zm1.6,1.9a1.2,1.2,0,0,0-1-.5,1.4,1.4,0,0,0-1,.5,1.6,1.6,0,0,0-.4,1.2,1.5,1.5,0,0,0,.4,1.1,1.2,1.2,0,0,0,2,0,1.6,1.6,0,0,0,.4-1.2A1.2,1.2,0,0,0,250.8,121.3Z" transform="translate(-25.2 -101.4)"/><path class="cls-2" d="M254.3,120.7a4,4,0,0,1,1-1.2,2.8,2.8,0,0,1,1.5-.4,2.1,2.1,0,0,1,1.2.3,1.9,1.9,0,0,1,.8.7v-.9h2v6.5h-2v-.9a1.9,1.9,0,0,1-.8.7,2.1,2.1,0,0,1-1.2.3,2.8,2.8,0,0,1-1.5-.4,4,4,0,0,1-1-1.2,4.8,4.8,0,0,1-.4-1.8A4.7,4.7,0,0,1,254.3,120.7Zm4.1.6a1.2,1.2,0,0,0-2,0,1.2,1.2,0,0,0-.4,1.1,1.6,1.6,0,0,0,.4,1.2,1.2,1.2,0,0,0,2,0,1.5,1.5,0,0,0,.4-1.1A1.6,1.6,0,0,0,258.4,121.3Z" transform="translate(-25.2 -101.4)"/><path class="cls-2" d="M265.1,119.5a1.9,1.9,0,0,1,1.2-.4v2.1h-.5a1.6,1.6,0,0,0-1.2.4,1.4,1.4,0,0,0-.3,1.1v3h-2v-6.5h2v1.2A2.4,2.4,0,0,1,265.1,119.5Z" transform="translate(-25.2 -101.4)"/><path class="cls-2" d="M270.9,124v1.7h-1a2.9,2.9,0,0,1-1.7-.5,2.4,2.4,0,0,1-.6-1.8v-2.5h-.8v-1.7h.8v-1.6h2v1.6h1.3v1.7h-1.3v2.6c0,.2,0,.3.1.4h1.2Z" transform="translate(-25.2 -101.4)"/><path class="cls-2" d="M282.3,119.9a2.8,2.8,0,0,1,.7,2v3.8h-2v-3.5a1.5,1.5,0,0,0-.3-1,1.7,1.7,0,0,0-1-.3,1.4,1.4,0,0,0-.9.3,1.5,1.5,0,0,0-.3,1v3.5h-2v-3.5a1.5,1.5,0,0,0-.3-1,1.4,1.4,0,0,0-.9-.3,1.7,1.7,0,0,0-1,.3,1.5,1.5,0,0,0-.3,1v3.5h-2v-6.5h2v.8a1.6,1.6,0,0,1,.8-.6,2,2,0,0,1,1.1-.3,2.8,2.8,0,0,1,1.3.3,2,2,0,0,1,.9.9,3.9,3.9,0,0,1,1-.8,1.7,1.7,0,0,1,1.2-.4A2.8,2.8,0,0,1,282.3,119.9Z" transform="translate(-25.2 -101.4)"/><path class="cls-2" d="M290.5,122.9H286a1.3,1.3,0,0,0,.4,1,1.1,1.1,0,0,0,.8.3,1.1,1.1,0,0,0,1.1-.7h2.1a2.3,2.3,0,0,1-.6,1.2l-1.1.8a3.2,3.2,0,0,1-1.4.3,3.1,3.1,0,0,1-1.7-.4,3.4,3.4,0,0,1-1.2-1.2,3.3,3.3,0,0,1-.4-1.7,3.2,3.2,0,0,1,1.6-3,3.1,3.1,0,0,1,1.7-.4,3.3,3.3,0,0,1,1.7.4,2.9,2.9,0,0,1,1.1,1.1,3.3,3.3,0,0,1,.4,1.7Zm-2-1a1,1,0,0,0-.4-.9,1.1,1.1,0,0,0-.8-.3,1.2,1.2,0,0,0-.9.3,1.3,1.3,0,0,0-.4.9Z" transform="translate(-25.2 -101.4)"/><path class="cls-2" d="M297.4,119.9a3,3,0,0,1,.7,2v3.8h-2v-3.5a1.1,1.1,0,0,0-.4-1,1.2,1.2,0,0,0-1.8,0,1.3,1.3,0,0,0-.3,1v3.5h-2v-6.5h2v.9a1.8,1.8,0,0,1,.8-.7,2.1,2.1,0,0,1,1.2-.3A2.5,2.5,0,0,1,297.4,119.9Z" transform="translate(-25.2 -101.4)"/><path class="cls-2" d="M303.1,124v1.7h-1a2.6,2.6,0,0,1-1.7-.5,2.4,2.4,0,0,1-.6-1.8v-2.5H299v-1.7h.8v-1.6h2v1.6h1.3v1.7h-1.3v2.6c0,.2,0,.3.1.4h1.2Z" transform="translate(-25.2 -101.4)"/><path class="cls-2" d="M305.3,125.5a2,2,0,0,1-1-.8,2.2,2.2,0,0,1-.5-1.1h2a.9.9,0,0,0,.3.6l.7.2a.8.8,0,0,0,.6-.2.5.5,0,0,0,.2-.4c0-.2-.1-.3-.3-.4l-.9-.3-1.2-.3-.8-.6a1.8,1.8,0,0,1-.3-1.1,1.9,1.9,0,0,1,.3-1,2.2,2.2,0,0,1,.9-.7,3.2,3.2,0,0,1,1.4-.3,2.7,2.7,0,0,1,1.9.6,2.4,2.4,0,0,1,.9,1.6h-1.9a.5.5,0,0,0-.3-.5.9.9,0,0,0-.6-.3.8.8,0,0,0-.6.2.5.5,0,0,0-.2.4c0,.2.1.3.3.4l1,.3,1.1.3.8.6a1.5,1.5,0,0,1,.4,1.1,1.7,1.7,0,0,1-.3,1,1.8,1.8,0,0,1-1,.7,2.9,2.9,0,0,1-1.4.3A4,4,0,0,1,305.3,125.5Z" transform="translate(-25.2 -101.4)"/><path class="cls-2" d="M158.9,138.6a8.7,8.7,0,0,1-.9-4,8.6,8.6,0,0,1,.9-3.9,7.6,7.6,0,0,1,2.3-2.9h2v.2a7,7,0,0,0-2.4,3,7.3,7.3,0,0,0-.8,3.6,7.5,7.5,0,0,0,.8,3.7,7.6,7.6,0,0,0,2.4,3v.2h-2A8.5,8.5,0,0,1,158.9,138.6Z" transform="translate(-25.2 -101.4)"/><path class="cls-2" d="M172.9,131.1v8.2h-2v-4.9l-1.8,4.9h-1.7l-1.8-4.9v4.9h-2v-8.2H166l2.3,5.7,2.2-5.7Z" transform="translate(-25.2 -101.4)"/><path class="cls-2" d="M180.4,136.5h-4.5a1.3,1.3,0,0,0,.4,1,1.2,1.2,0,0,0,.9.3,1.1,1.1,0,0,0,1-.6h2.1a2.4,2.4,0,0,1-.6,1.1,2.5,2.5,0,0,1-1,.8,3.7,3.7,0,0,1-1.5.3,3.3,3.3,0,0,1-1.7-.4,2.5,2.5,0,0,1-1.2-1.1,4.2,4.2,0,0,1,0-3.6,3.4,3.4,0,0,1,1.2-1.2,4.7,4.7,0,0,1,1.7-.4,4.3,4.3,0,0,1,1.7.4,3.4,3.4,0,0,1,1.2,1.2,4.3,4.3,0,0,1,.4,1.7A1.1,1.1,0,0,1,180.4,136.5Zm-2-1a1.4,1.4,0,0,0-.3-.9l-.9-.3-.9.3a1.9,1.9,0,0,0-.4.9Z" transform="translate(-25.2 -101.4)"/><path class="cls-2" d="M185.5,139.3l-2-2.7v2.7h-2v-8.6h2v4.8l2-2.7H188l-2.8,3.3,2.8,3.2Z" transform="translate(-25.2 -101.4)"/><path class="cls-2" d="M194.9,136.5h-4.6a1.9,1.9,0,0,0,.4,1,1.2,1.2,0,0,0,.9.3,1,1,0,0,0,1-.6h2.1a2.4,2.4,0,0,1-.6,1.1,2,2,0,0,1-1,.8,3.7,3.7,0,0,1-1.5.3,3.3,3.3,0,0,1-1.7-.4,2,2,0,0,1-1.1-1.1,3.5,3.5,0,0,1,0-3.6,2.5,2.5,0,0,1,1.1-1.2,4.7,4.7,0,0,1,1.7-.4,4.3,4.3,0,0,1,1.7.4,3.4,3.4,0,0,1,1.2,1.2,4.3,4.3,0,0,1,.4,1.7Zm-2.1-1a1.4,1.4,0,0,0-.3-.9,1.2,1.2,0,0,0-.9-.3,1.1,1.1,0,0,0-.8.3,1.3,1.3,0,0,0-.5.9Z" transform="translate(-25.2 -101.4)"/><path class="cls-2" d="M197.9,130.7v8.6h-2v-8.6Z" transform="translate(-25.2 -101.4)"/><path class="cls-2" d="M201.4,130.7v8.6h-2v-8.6Z" transform="translate(-25.2 -101.4)"/><path class="cls-2" d="M208.9,136.5h-4.5a1.9,1.9,0,0,0,.4,1,1.2,1.2,0,0,0,.9.3,1,1,0,0,0,1-.6h2.1a2.4,2.4,0,0,1-.6,1.1,2,2,0,0,1-1,.8,3.7,3.7,0,0,1-1.5.3,3.3,3.3,0,0,1-1.7-.4,2,2,0,0,1-1.1-1.1,3.5,3.5,0,0,1-.5-1.8,4.8,4.8,0,0,1,.4-1.8,3.4,3.4,0,0,1,1.2-1.2,4.7,4.7,0,0,1,1.7-.4,4.3,4.3,0,0,1,1.7.4,3.4,3.4,0,0,1,1.2,1.2,4.3,4.3,0,0,1,.4,1.7A1.1,1.1,0,0,1,208.9,136.5Zm-2-1a1.1,1.1,0,0,0-1.2-1.2l-.9.3a1.9,1.9,0,0,0-.4.9Z" transform="translate(-25.2 -101.4)"/><path class="cls-2" d="M213.3,130.6a9,9,0,0,1,.9,4,8.7,8.7,0,0,1-.9,4,8.5,8.5,0,0,1-2.3,2.9h-2v-.2a7.6,7.6,0,0,0,2.4-3,7.5,7.5,0,0,0,.8-3.7,7.3,7.3,0,0,0-.8-3.6,7,7,0,0,0-2.4-3v-.2h2A8.1,8.1,0,0,1,213.3,130.6Z" transform="translate(-25.2 -101.4)"/></svg>